G04 #@! TF.GenerationSoftware,KiCad,Pcbnew,(6.0.2)*
G04 #@! TF.CreationDate,2022-11-08T17:00:34+01:00*
G04 #@! TF.ProjectId,PANEL_LED_HARDWARE,50414e45-4c5f-44c4-9544-5f4841524457,rev?*
G04 #@! TF.SameCoordinates,Original*
G04 #@! TF.FileFunction,Soldermask,Bot*
G04 #@! TF.FilePolarity,Negative*
%FSLAX46Y46*%
G04 Gerber Fmt 4.6, Leading zero omitted, Abs format (unit mm)*
G04 Created by KiCad (PCBNEW (6.0.2)) date 2022-11-08 17:00:34*
%MOMM*%
%LPD*%
G01*
G04 APERTURE LIST*
G04 Aperture macros list*
%AMRoundRect*
0 Rectangle with rounded corners*
0 $1 Rounding radius*
0 $2 $3 $4 $5 $6 $7 $8 $9 X,Y pos of 4 corners*
0 Add a 4 corners polygon primitive as box body*
4,1,4,$2,$3,$4,$5,$6,$7,$8,$9,$2,$3,0*
0 Add four circle primitives for the rounded corners*
1,1,$1+$1,$2,$3*
1,1,$1+$1,$4,$5*
1,1,$1+$1,$6,$7*
1,1,$1+$1,$8,$9*
0 Add four rect primitives between the rounded corners*
20,1,$1+$1,$2,$3,$4,$5,0*
20,1,$1+$1,$4,$5,$6,$7,0*
20,1,$1+$1,$6,$7,$8,$9,0*
20,1,$1+$1,$8,$9,$2,$3,0*%
G04 Aperture macros list end*
%ADD10C,1.700000*%
%ADD11C,1.500000*%
%ADD12C,5.000000*%
%ADD13C,3.048000*%
%ADD14R,3.048000X3.048000*%
%ADD15RoundRect,0.050800X-0.889000X0.889000X-0.889000X-0.889000X0.889000X-0.889000X0.889000X0.889000X0*%
%ADD16C,1.879600*%
G04 APERTURE END LIST*
D10*
X117746000Y-80222000D03*
X115206000Y-80222000D03*
X117746000Y-77682000D03*
X115206000Y-77682000D03*
X117746000Y-75142000D03*
X115206000Y-75142000D03*
X117746000Y-72602000D03*
X115206000Y-72602000D03*
X117746000Y-70062000D03*
X115206000Y-70062000D03*
X117746000Y-67522000D03*
X115206000Y-67522000D03*
X117746000Y-64982000D03*
X115206000Y-64982000D03*
X117746000Y-62442000D03*
X115206000Y-62442000D03*
D11*
X132334000Y-89368000D03*
X132334000Y-84368000D03*
D12*
X144796000Y-92670000D03*
D13*
X143315000Y-68035000D03*
D14*
X143315000Y-63035000D03*
D12*
X93105000Y-49266000D03*
D11*
X132840000Y-68240000D03*
X132840000Y-63240000D03*
D15*
X87930000Y-47220000D03*
D16*
X87930000Y-49760000D03*
X87930000Y-52300000D03*
X87930000Y-54840000D03*
X87930000Y-57380000D03*
X87930000Y-59920000D03*
X87930000Y-62460000D03*
X87930000Y-65000000D03*
X87930000Y-67540000D03*
X87930000Y-70080000D03*
X87930000Y-72620000D03*
X87930000Y-75160000D03*
X87930000Y-77700000D03*
X87930000Y-80240000D03*
X87930000Y-82780000D03*
X87930000Y-85320000D03*
X87930000Y-87860000D03*
X87930000Y-90400000D03*
X87930000Y-92940000D03*
X87930000Y-95480000D03*
D14*
X143315000Y-50605000D03*
D13*
X143315000Y-55605000D03*
D14*
X142655000Y-79445000D03*
D13*
X142655000Y-84445000D03*
M02*
