G04 #@! TF.GenerationSoftware,KiCad,Pcbnew,(6.0.2)*
G04 #@! TF.CreationDate,2022-11-08T17:00:34+01:00*
G04 #@! TF.ProjectId,PANEL_LED_HARDWARE,50414e45-4c5f-44c4-9544-5f4841524457,rev?*
G04 #@! TF.SameCoordinates,Original*
G04 #@! TF.FileFunction,Legend,Top*
G04 #@! TF.FilePolarity,Positive*
%FSLAX46Y46*%
G04 Gerber Fmt 4.6, Leading zero omitted, Abs format (unit mm)*
G04 Created by KiCad (PCBNEW (6.0.2)) date 2022-11-08 17:00:34*
%MOMM*%
%LPD*%
G01*
G04 APERTURE LIST*
%ADD10C,0.150000*%
%ADD11C,0.200000*%
%ADD12C,0.120000*%
%ADD13C,0.254000*%
G04 APERTURE END LIST*
D10*
X120033333Y-50307142D02*
X119985714Y-50354761D01*
X119842857Y-50402380D01*
X119747619Y-50402380D01*
X119604761Y-50354761D01*
X119509523Y-50259523D01*
X119461904Y-50164285D01*
X119414285Y-49973809D01*
X119414285Y-49830952D01*
X119461904Y-49640476D01*
X119509523Y-49545238D01*
X119604761Y-49450000D01*
X119747619Y-49402380D01*
X119842857Y-49402380D01*
X119985714Y-49450000D01*
X120033333Y-49497619D01*
X120890476Y-49402380D02*
X120700000Y-49402380D01*
X120604761Y-49450000D01*
X120557142Y-49497619D01*
X120461904Y-49640476D01*
X120414285Y-49830952D01*
X120414285Y-50211904D01*
X120461904Y-50307142D01*
X120509523Y-50354761D01*
X120604761Y-50402380D01*
X120795238Y-50402380D01*
X120890476Y-50354761D01*
X120938095Y-50307142D01*
X120985714Y-50211904D01*
X120985714Y-49973809D01*
X120938095Y-49878571D01*
X120890476Y-49830952D01*
X120795238Y-49783333D01*
X120604761Y-49783333D01*
X120509523Y-49830952D01*
X120461904Y-49878571D01*
X120414285Y-49973809D01*
X123033333Y-70157142D02*
X122985714Y-70204761D01*
X122842857Y-70252380D01*
X122747619Y-70252380D01*
X122604761Y-70204761D01*
X122509523Y-70109523D01*
X122461904Y-70014285D01*
X122414285Y-69823809D01*
X122414285Y-69680952D01*
X122461904Y-69490476D01*
X122509523Y-69395238D01*
X122604761Y-69300000D01*
X122747619Y-69252380D01*
X122842857Y-69252380D01*
X122985714Y-69300000D01*
X123033333Y-69347619D01*
X123366666Y-69252380D02*
X123985714Y-69252380D01*
X123652380Y-69633333D01*
X123795238Y-69633333D01*
X123890476Y-69680952D01*
X123938095Y-69728571D01*
X123985714Y-69823809D01*
X123985714Y-70061904D01*
X123938095Y-70157142D01*
X123890476Y-70204761D01*
X123795238Y-70252380D01*
X123509523Y-70252380D01*
X123414285Y-70204761D01*
X123366666Y-70157142D01*
X138587380Y-77826666D02*
X138111190Y-78160000D01*
X138587380Y-78398095D02*
X137587380Y-78398095D01*
X137587380Y-78017142D01*
X137635000Y-77921904D01*
X137682619Y-77874285D01*
X137777857Y-77826666D01*
X137920714Y-77826666D01*
X138015952Y-77874285D01*
X138063571Y-77921904D01*
X138111190Y-78017142D01*
X138111190Y-78398095D01*
X137920714Y-76969523D02*
X138587380Y-76969523D01*
X137539761Y-77207619D02*
X138254047Y-77445714D01*
X138254047Y-76826666D01*
X138872380Y-54976666D02*
X138396190Y-55310000D01*
X138872380Y-55548095D02*
X137872380Y-55548095D01*
X137872380Y-55167142D01*
X137920000Y-55071904D01*
X137967619Y-55024285D01*
X138062857Y-54976666D01*
X138205714Y-54976666D01*
X138300952Y-55024285D01*
X138348571Y-55071904D01*
X138396190Y-55167142D01*
X138396190Y-55548095D01*
X137967619Y-54595714D02*
X137920000Y-54548095D01*
X137872380Y-54452857D01*
X137872380Y-54214761D01*
X137920000Y-54119523D01*
X137967619Y-54071904D01*
X138062857Y-54024285D01*
X138158095Y-54024285D01*
X138300952Y-54071904D01*
X138872380Y-54643333D01*
X138872380Y-54024285D01*
X112125666Y-70523380D02*
X112125666Y-71237666D01*
X112078047Y-71380523D01*
X111982809Y-71475761D01*
X111839952Y-71523380D01*
X111744714Y-71523380D01*
X113030428Y-70856714D02*
X113030428Y-71523380D01*
X112792333Y-70475761D02*
X112554238Y-71190047D01*
X113173285Y-71190047D01*
X130043095Y-73777380D02*
X130043095Y-74586904D01*
X130090714Y-74682142D01*
X130138333Y-74729761D01*
X130233571Y-74777380D01*
X130424047Y-74777380D01*
X130519285Y-74729761D01*
X130566904Y-74682142D01*
X130614523Y-74586904D01*
X130614523Y-73777380D01*
X131043095Y-73872619D02*
X131090714Y-73825000D01*
X131185952Y-73777380D01*
X131424047Y-73777380D01*
X131519285Y-73825000D01*
X131566904Y-73872619D01*
X131614523Y-73967857D01*
X131614523Y-74063095D01*
X131566904Y-74205952D01*
X130995476Y-74777380D01*
X131614523Y-74777380D01*
X133378333Y-72222142D02*
X133330714Y-72269761D01*
X133187857Y-72317380D01*
X133092619Y-72317380D01*
X132949761Y-72269761D01*
X132854523Y-72174523D01*
X132806904Y-72079285D01*
X132759285Y-71888809D01*
X132759285Y-71745952D01*
X132806904Y-71555476D01*
X132854523Y-71460238D01*
X132949761Y-71365000D01*
X133092619Y-71317380D01*
X133187857Y-71317380D01*
X133330714Y-71365000D01*
X133378333Y-71412619D01*
X134283095Y-71317380D02*
X133806904Y-71317380D01*
X133759285Y-71793571D01*
X133806904Y-71745952D01*
X133902142Y-71698333D01*
X134140238Y-71698333D01*
X134235476Y-71745952D01*
X134283095Y-71793571D01*
X134330714Y-71888809D01*
X134330714Y-72126904D01*
X134283095Y-72222142D01*
X134235476Y-72269761D01*
X134140238Y-72317380D01*
X133902142Y-72317380D01*
X133806904Y-72269761D01*
X133759285Y-72222142D01*
X133957333Y-87435142D02*
X133909714Y-87482761D01*
X133766857Y-87530380D01*
X133671619Y-87530380D01*
X133528761Y-87482761D01*
X133433523Y-87387523D01*
X133385904Y-87292285D01*
X133338285Y-87101809D01*
X133338285Y-86958952D01*
X133385904Y-86768476D01*
X133433523Y-86673238D01*
X133528761Y-86578000D01*
X133671619Y-86530380D01*
X133766857Y-86530380D01*
X133909714Y-86578000D01*
X133957333Y-86625619D01*
X134528761Y-86958952D02*
X134433523Y-86911333D01*
X134385904Y-86863714D01*
X134338285Y-86768476D01*
X134338285Y-86720857D01*
X134385904Y-86625619D01*
X134433523Y-86578000D01*
X134528761Y-86530380D01*
X134719238Y-86530380D01*
X134814476Y-86578000D01*
X134862095Y-86625619D01*
X134909714Y-86720857D01*
X134909714Y-86768476D01*
X134862095Y-86863714D01*
X134814476Y-86911333D01*
X134719238Y-86958952D01*
X134528761Y-86958952D01*
X134433523Y-87006571D01*
X134385904Y-87054190D01*
X134338285Y-87149428D01*
X134338285Y-87339904D01*
X134385904Y-87435142D01*
X134433523Y-87482761D01*
X134528761Y-87530380D01*
X134719238Y-87530380D01*
X134814476Y-87482761D01*
X134862095Y-87435142D01*
X134909714Y-87339904D01*
X134909714Y-87149428D01*
X134862095Y-87054190D01*
X134814476Y-87006571D01*
X134719238Y-86958952D01*
D11*
X130867142Y-89712761D02*
X130867142Y-89103238D01*
X131171904Y-89408000D02*
X130562380Y-89408000D01*
X130867142Y-84632761D02*
X130867142Y-84023238D01*
D10*
X132383333Y-81007142D02*
X132335714Y-81054761D01*
X132192857Y-81102380D01*
X132097619Y-81102380D01*
X131954761Y-81054761D01*
X131859523Y-80959523D01*
X131811904Y-80864285D01*
X131764285Y-80673809D01*
X131764285Y-80530952D01*
X131811904Y-80340476D01*
X131859523Y-80245238D01*
X131954761Y-80150000D01*
X132097619Y-80102380D01*
X132192857Y-80102380D01*
X132335714Y-80150000D01*
X132383333Y-80197619D01*
X133240476Y-80435714D02*
X133240476Y-81102380D01*
X133002380Y-80054761D02*
X132764285Y-80769047D01*
X133383333Y-80769047D01*
X138383333Y-75702380D02*
X138050000Y-75226190D01*
X137811904Y-75702380D02*
X137811904Y-74702380D01*
X138192857Y-74702380D01*
X138288095Y-74750000D01*
X138335714Y-74797619D01*
X138383333Y-74892857D01*
X138383333Y-75035714D01*
X138335714Y-75130952D01*
X138288095Y-75178571D01*
X138192857Y-75226190D01*
X137811904Y-75226190D01*
X138716666Y-74702380D02*
X139335714Y-74702380D01*
X139002380Y-75083333D01*
X139145238Y-75083333D01*
X139240476Y-75130952D01*
X139288095Y-75178571D01*
X139335714Y-75273809D01*
X139335714Y-75511904D01*
X139288095Y-75607142D01*
X139240476Y-75654761D01*
X139145238Y-75702380D01*
X138859523Y-75702380D01*
X138764285Y-75654761D01*
X138716666Y-75607142D01*
X145296666Y-65342380D02*
X145296666Y-66056666D01*
X145249047Y-66199523D01*
X145153809Y-66294761D01*
X145010952Y-66342380D01*
X144915714Y-66342380D01*
X145725238Y-65437619D02*
X145772857Y-65390000D01*
X145868095Y-65342380D01*
X146106190Y-65342380D01*
X146201428Y-65390000D01*
X146249047Y-65437619D01*
X146296666Y-65532857D01*
X146296666Y-65628095D01*
X146249047Y-65770952D01*
X145677619Y-66342380D01*
X146296666Y-66342380D01*
X134503333Y-66197142D02*
X134455714Y-66244761D01*
X134312857Y-66292380D01*
X134217619Y-66292380D01*
X134074761Y-66244761D01*
X133979523Y-66149523D01*
X133931904Y-66054285D01*
X133884285Y-65863809D01*
X133884285Y-65720952D01*
X133931904Y-65530476D01*
X133979523Y-65435238D01*
X134074761Y-65340000D01*
X134217619Y-65292380D01*
X134312857Y-65292380D01*
X134455714Y-65340000D01*
X134503333Y-65387619D01*
X134836666Y-65292380D02*
X135503333Y-65292380D01*
X135074761Y-66292380D01*
D11*
X131373142Y-68584761D02*
X131373142Y-67975238D01*
X131677904Y-68280000D02*
X131068380Y-68280000D01*
X131373142Y-63504761D02*
X131373142Y-62895238D01*
D10*
X90006666Y-53242380D02*
X90006666Y-53956666D01*
X89959047Y-54099523D01*
X89863809Y-54194761D01*
X89720952Y-54242380D01*
X89625714Y-54242380D01*
X90959047Y-53242380D02*
X90482857Y-53242380D01*
X90435238Y-53718571D01*
X90482857Y-53670952D01*
X90578095Y-53623333D01*
X90816190Y-53623333D01*
X90911428Y-53670952D01*
X90959047Y-53718571D01*
X91006666Y-53813809D01*
X91006666Y-54051904D01*
X90959047Y-54147142D01*
X90911428Y-54194761D01*
X90816190Y-54242380D01*
X90578095Y-54242380D01*
X90482857Y-54194761D01*
X90435238Y-54147142D01*
X93507142Y-94207142D02*
X93459523Y-94254761D01*
X93316666Y-94302380D01*
X93221428Y-94302380D01*
X93078571Y-94254761D01*
X92983333Y-94159523D01*
X92935714Y-94064285D01*
X92888095Y-93873809D01*
X92888095Y-93730952D01*
X92935714Y-93540476D01*
X92983333Y-93445238D01*
X93078571Y-93350000D01*
X93221428Y-93302380D01*
X93316666Y-93302380D01*
X93459523Y-93350000D01*
X93507142Y-93397619D01*
X94459523Y-94302380D02*
X93888095Y-94302380D01*
X94173809Y-94302380D02*
X94173809Y-93302380D01*
X94078571Y-93445238D01*
X93983333Y-93540476D01*
X93888095Y-93588095D01*
X95411904Y-94302380D02*
X94840476Y-94302380D01*
X95126190Y-94302380D02*
X95126190Y-93302380D01*
X95030952Y-93445238D01*
X94935714Y-93540476D01*
X94840476Y-93588095D01*
X133953333Y-48727142D02*
X133905714Y-48774761D01*
X133762857Y-48822380D01*
X133667619Y-48822380D01*
X133524761Y-48774761D01*
X133429523Y-48679523D01*
X133381904Y-48584285D01*
X133334285Y-48393809D01*
X133334285Y-48250952D01*
X133381904Y-48060476D01*
X133429523Y-47965238D01*
X133524761Y-47870000D01*
X133667619Y-47822380D01*
X133762857Y-47822380D01*
X133905714Y-47870000D01*
X133953333Y-47917619D01*
X134334285Y-47917619D02*
X134381904Y-47870000D01*
X134477142Y-47822380D01*
X134715238Y-47822380D01*
X134810476Y-47870000D01*
X134858095Y-47917619D01*
X134905714Y-48012857D01*
X134905714Y-48108095D01*
X134858095Y-48250952D01*
X134286666Y-48822380D01*
X134905714Y-48822380D01*
X145856666Y-52622380D02*
X145856666Y-53336666D01*
X145809047Y-53479523D01*
X145713809Y-53574761D01*
X145570952Y-53622380D01*
X145475714Y-53622380D01*
X146856666Y-53622380D02*
X146285238Y-53622380D01*
X146570952Y-53622380D02*
X146570952Y-52622380D01*
X146475714Y-52765238D01*
X146380476Y-52860476D01*
X146285238Y-52908095D01*
X137173333Y-49587380D02*
X136840000Y-49111190D01*
X136601904Y-49587380D02*
X136601904Y-48587380D01*
X136982857Y-48587380D01*
X137078095Y-48635000D01*
X137125714Y-48682619D01*
X137173333Y-48777857D01*
X137173333Y-48920714D01*
X137125714Y-49015952D01*
X137078095Y-49063571D01*
X136982857Y-49111190D01*
X136601904Y-49111190D01*
X138125714Y-49587380D02*
X137554285Y-49587380D01*
X137840000Y-49587380D02*
X137840000Y-48587380D01*
X137744761Y-48730238D01*
X137649523Y-48825476D01*
X137554285Y-48873095D01*
X122607142Y-71657142D02*
X122559523Y-71704761D01*
X122416666Y-71752380D01*
X122321428Y-71752380D01*
X122178571Y-71704761D01*
X122083333Y-71609523D01*
X122035714Y-71514285D01*
X121988095Y-71323809D01*
X121988095Y-71180952D01*
X122035714Y-70990476D01*
X122083333Y-70895238D01*
X122178571Y-70800000D01*
X122321428Y-70752380D01*
X122416666Y-70752380D01*
X122559523Y-70800000D01*
X122607142Y-70847619D01*
X123559523Y-71752380D02*
X122988095Y-71752380D01*
X123273809Y-71752380D02*
X123273809Y-70752380D01*
X123178571Y-70895238D01*
X123083333Y-70990476D01*
X122988095Y-71038095D01*
X124178571Y-70752380D02*
X124273809Y-70752380D01*
X124369047Y-70800000D01*
X124416666Y-70847619D01*
X124464285Y-70942857D01*
X124511904Y-71133333D01*
X124511904Y-71371428D01*
X124464285Y-71561904D01*
X124416666Y-71657142D01*
X124369047Y-71704761D01*
X124273809Y-71752380D01*
X124178571Y-71752380D01*
X124083333Y-71704761D01*
X124035714Y-71657142D01*
X123988095Y-71561904D01*
X123940476Y-71371428D01*
X123940476Y-71133333D01*
X123988095Y-70942857D01*
X124035714Y-70847619D01*
X124083333Y-70800000D01*
X124178571Y-70752380D01*
X123198333Y-80467380D02*
X122722142Y-80467380D01*
X122722142Y-79467380D01*
X123484047Y-79562619D02*
X123531666Y-79515000D01*
X123626904Y-79467380D01*
X123865000Y-79467380D01*
X123960238Y-79515000D01*
X124007857Y-79562619D01*
X124055476Y-79657857D01*
X124055476Y-79753095D01*
X124007857Y-79895952D01*
X123436428Y-80467380D01*
X124055476Y-80467380D01*
X123793333Y-57922380D02*
X123317142Y-57922380D01*
X123317142Y-56922380D01*
X124650476Y-57922380D02*
X124079047Y-57922380D01*
X124364761Y-57922380D02*
X124364761Y-56922380D01*
X124269523Y-57065238D01*
X124174285Y-57160476D01*
X124079047Y-57208095D01*
X120083333Y-51957142D02*
X120035714Y-52004761D01*
X119892857Y-52052380D01*
X119797619Y-52052380D01*
X119654761Y-52004761D01*
X119559523Y-51909523D01*
X119511904Y-51814285D01*
X119464285Y-51623809D01*
X119464285Y-51480952D01*
X119511904Y-51290476D01*
X119559523Y-51195238D01*
X119654761Y-51100000D01*
X119797619Y-51052380D01*
X119892857Y-51052380D01*
X120035714Y-51100000D01*
X120083333Y-51147619D01*
X120559523Y-52052380D02*
X120750000Y-52052380D01*
X120845238Y-52004761D01*
X120892857Y-51957142D01*
X120988095Y-51814285D01*
X121035714Y-51623809D01*
X121035714Y-51242857D01*
X120988095Y-51147619D01*
X120940476Y-51100000D01*
X120845238Y-51052380D01*
X120654761Y-51052380D01*
X120559523Y-51100000D01*
X120511904Y-51147619D01*
X120464285Y-51242857D01*
X120464285Y-51480952D01*
X120511904Y-51576190D01*
X120559523Y-51623809D01*
X120654761Y-51671428D01*
X120845238Y-51671428D01*
X120940476Y-51623809D01*
X120988095Y-51576190D01*
X121035714Y-51480952D01*
X131023095Y-50602380D02*
X131023095Y-51411904D01*
X131070714Y-51507142D01*
X131118333Y-51554761D01*
X131213571Y-51602380D01*
X131404047Y-51602380D01*
X131499285Y-51554761D01*
X131546904Y-51507142D01*
X131594523Y-51411904D01*
X131594523Y-50602380D01*
X132594523Y-51602380D02*
X132023095Y-51602380D01*
X132308809Y-51602380D02*
X132308809Y-50602380D01*
X132213571Y-50745238D01*
X132118333Y-50840476D01*
X132023095Y-50888095D01*
X102771095Y-62377380D02*
X102771095Y-63186904D01*
X102818714Y-63282142D01*
X102866333Y-63329761D01*
X102961571Y-63377380D01*
X103152047Y-63377380D01*
X103247285Y-63329761D01*
X103294904Y-63282142D01*
X103342523Y-63186904D01*
X103342523Y-62377380D01*
X103723476Y-62377380D02*
X104342523Y-62377380D01*
X104009190Y-62758333D01*
X104152047Y-62758333D01*
X104247285Y-62805952D01*
X104294904Y-62853571D01*
X104342523Y-62948809D01*
X104342523Y-63186904D01*
X104294904Y-63282142D01*
X104247285Y-63329761D01*
X104152047Y-63377380D01*
X103866333Y-63377380D01*
X103771095Y-63329761D01*
X103723476Y-63282142D01*
X145166666Y-81562380D02*
X145166666Y-82276666D01*
X145119047Y-82419523D01*
X145023809Y-82514761D01*
X144880952Y-82562380D01*
X144785714Y-82562380D01*
X145547619Y-81562380D02*
X146166666Y-81562380D01*
X145833333Y-81943333D01*
X145976190Y-81943333D01*
X146071428Y-81990952D01*
X146119047Y-82038571D01*
X146166666Y-82133809D01*
X146166666Y-82371904D01*
X146119047Y-82467142D01*
X146071428Y-82514761D01*
X145976190Y-82562380D01*
X145690476Y-82562380D01*
X145595238Y-82514761D01*
X145547619Y-82467142D01*
X129683333Y-59357142D02*
X129635714Y-59404761D01*
X129492857Y-59452380D01*
X129397619Y-59452380D01*
X129254761Y-59404761D01*
X129159523Y-59309523D01*
X129111904Y-59214285D01*
X129064285Y-59023809D01*
X129064285Y-58880952D01*
X129111904Y-58690476D01*
X129159523Y-58595238D01*
X129254761Y-58500000D01*
X129397619Y-58452380D01*
X129492857Y-58452380D01*
X129635714Y-58500000D01*
X129683333Y-58547619D01*
X130635714Y-59452380D02*
X130064285Y-59452380D01*
X130350000Y-59452380D02*
X130350000Y-58452380D01*
X130254761Y-58595238D01*
X130159523Y-58690476D01*
X130064285Y-58738095D01*
D12*
X122634420Y-50410000D02*
X122915580Y-50410000D01*
X122634420Y-49390000D02*
X122915580Y-49390000D01*
X123109420Y-73360000D02*
X123390580Y-73360000D01*
X123109420Y-72340000D02*
X123390580Y-72340000D01*
X129965000Y-75225000D02*
X131715000Y-75225000D01*
X131715000Y-75225000D02*
X131715000Y-78275000D01*
X131715000Y-78275000D02*
X129965000Y-78275000D01*
X129965000Y-78275000D02*
X129965000Y-75225000D01*
X133955580Y-73985000D02*
X133674420Y-73985000D01*
X133955580Y-72965000D02*
X133674420Y-72965000D01*
X137334000Y-86868000D02*
G75*
G03*
X137334000Y-86868000I-5000000J0D01*
G01*
X130109420Y-81060000D02*
X130390580Y-81060000D01*
X130109420Y-80040000D02*
X130390580Y-80040000D01*
X147615000Y-60535000D02*
X139315000Y-60535000D01*
X139315000Y-60535000D02*
X139315000Y-70535000D01*
X139315000Y-70535000D02*
X147615000Y-70535000D01*
X147615000Y-70535000D02*
X147615000Y-60535000D01*
X137840000Y-65740000D02*
G75*
G03*
X137840000Y-65740000I-5000000J0D01*
G01*
D13*
X86914000Y-96750000D02*
X86660000Y-96496000D01*
X88946000Y-68810000D02*
X89200000Y-69064000D01*
X88946000Y-91670000D02*
X89200000Y-91924000D01*
X88946000Y-51030000D02*
X89200000Y-51284000D01*
X88946000Y-56110000D02*
X89200000Y-56364000D01*
X88946000Y-73890000D02*
X89200000Y-74144000D01*
X89200000Y-93956000D02*
X88946000Y-94210000D01*
X86914000Y-56110000D02*
X86660000Y-55856000D01*
X89200000Y-96496000D02*
X88946000Y-96750000D01*
X88946000Y-68810000D02*
X89200000Y-69064000D01*
X86660000Y-63984000D02*
X86914000Y-63730000D01*
X88946000Y-76430000D02*
X89200000Y-76684000D01*
X86914000Y-53570000D02*
X86660000Y-53316000D01*
X89200000Y-69064000D02*
X89200000Y-71096000D01*
X89200000Y-71096000D02*
X88946000Y-71350000D01*
X86660000Y-73636000D02*
X86660000Y-71604000D01*
X86914000Y-91670000D02*
X86660000Y-91416000D01*
X89200000Y-63984000D02*
X89200000Y-66016000D01*
X86660000Y-89384000D02*
X86914000Y-89130000D01*
X86660000Y-53824000D02*
X86914000Y-53570000D01*
X88946000Y-84050000D02*
X89200000Y-84304000D01*
X86660000Y-69064000D02*
X86914000Y-68810000D01*
X86660000Y-81764000D02*
X86914000Y-81510000D01*
X88946000Y-94210000D02*
X89200000Y-94464000D01*
X89200000Y-48744000D02*
X89200000Y-50776000D01*
X89200000Y-81256000D02*
X88946000Y-81510000D01*
X86660000Y-93956000D02*
X86660000Y-91924000D01*
X86660000Y-86336000D02*
X86660000Y-84304000D01*
X86914000Y-91670000D02*
X86660000Y-91416000D01*
X86914000Y-63730000D02*
X86660000Y-63476000D01*
X86660000Y-61444000D02*
X86914000Y-61190000D01*
X89200000Y-78716000D02*
X88946000Y-78970000D01*
X86660000Y-71096000D02*
X86660000Y-69064000D01*
X89200000Y-58904000D02*
X89200000Y-60936000D01*
X89200000Y-79224000D02*
X89200000Y-81256000D01*
X86660000Y-63476000D02*
X86660000Y-61444000D01*
X86660000Y-86336000D02*
X86660000Y-84304000D01*
X86660000Y-48744000D02*
X86914000Y-48490000D01*
X86914000Y-94210000D02*
X86660000Y-93956000D01*
X88946000Y-89130000D02*
X89200000Y-89384000D01*
X86660000Y-96496000D02*
X86660000Y-94464000D01*
X86660000Y-96496000D02*
X86660000Y-94464000D01*
X89200000Y-68556000D02*
X88946000Y-68810000D01*
X86660000Y-55856000D02*
X86660000Y-53824000D01*
X89200000Y-69064000D02*
X89200000Y-71096000D01*
X86914000Y-71350000D02*
X86660000Y-71096000D01*
X86914000Y-68810000D02*
X86660000Y-68556000D01*
X89200000Y-86336000D02*
X88946000Y-86590000D01*
X86660000Y-79224000D02*
X86914000Y-78970000D01*
X86660000Y-86844000D02*
X86914000Y-86590000D01*
X88946000Y-58650000D02*
X89200000Y-58904000D01*
X86914000Y-96750000D02*
X86660000Y-96496000D01*
X86914000Y-61190000D02*
X86660000Y-60936000D01*
X88946000Y-86590000D02*
X89200000Y-86844000D01*
X86914000Y-58650000D02*
X86660000Y-58396000D01*
X89200000Y-58396000D02*
X88946000Y-58650000D01*
X89200000Y-63984000D02*
X89200000Y-66016000D01*
X89200000Y-89384000D02*
X89200000Y-91416000D01*
X86660000Y-48236000D02*
X86660000Y-46458000D01*
X86914000Y-61190000D02*
X86660000Y-60936000D01*
X89200000Y-91416000D02*
X88946000Y-91670000D01*
X89200000Y-66524000D02*
X89200000Y-68556000D01*
X89200000Y-55856000D02*
X88946000Y-56110000D01*
X89200000Y-83796000D02*
X88946000Y-84050000D01*
X86914000Y-81510000D02*
X86660000Y-81256000D01*
X89200000Y-58904000D02*
X89200000Y-60936000D01*
X86660000Y-66016000D02*
X86660000Y-63984000D01*
X89200000Y-86336000D02*
X88946000Y-86590000D01*
X86660000Y-94464000D02*
X86914000Y-94210000D01*
X86660000Y-71096000D02*
X86660000Y-69064000D01*
X89200000Y-63476000D02*
X88946000Y-63730000D01*
X86660000Y-71604000D02*
X86914000Y-71350000D01*
X89200000Y-60936000D02*
X88946000Y-61190000D01*
X86914000Y-89130000D02*
X86660000Y-88876000D01*
X89200000Y-88876000D02*
X88946000Y-89130000D01*
X89200000Y-53316000D02*
X88946000Y-53570000D01*
X86914000Y-73890000D02*
X86660000Y-73636000D01*
X86660000Y-84304000D02*
X86914000Y-84050000D01*
X88946000Y-53570000D02*
X89200000Y-53824000D01*
X89200000Y-74144000D02*
X89200000Y-76176000D01*
X86660000Y-66016000D02*
X86660000Y-63984000D01*
X86660000Y-81256000D02*
X86660000Y-79224000D01*
X89200000Y-48236000D02*
X88946000Y-48490000D01*
X88946000Y-48490000D02*
X89200000Y-48744000D01*
X86660000Y-91924000D02*
X86914000Y-91670000D01*
X86914000Y-48490000D02*
X86660000Y-48236000D01*
X89200000Y-46204000D02*
X89200000Y-48236000D01*
X86660000Y-58904000D02*
X86914000Y-58650000D01*
X86914000Y-66270000D02*
X86660000Y-66016000D01*
X89200000Y-73636000D02*
X88946000Y-73890000D01*
X86660000Y-46458000D02*
X86660000Y-45950000D01*
X86914000Y-84050000D02*
X86660000Y-83796000D01*
X86660000Y-91416000D02*
X86660000Y-89384000D01*
X89200000Y-53824000D02*
X89200000Y-55856000D01*
X86660000Y-58396000D02*
X86660000Y-56364000D01*
X88946000Y-66270000D02*
X89200000Y-66524000D01*
X86660000Y-76176000D02*
X86914000Y-76430000D01*
X89200000Y-84304000D02*
X89200000Y-86336000D01*
X88946000Y-71350000D02*
X89200000Y-71604000D01*
X86914000Y-78970000D02*
X86660000Y-78716000D01*
X88946000Y-94210000D02*
X89200000Y-94464000D01*
X86660000Y-50776000D02*
X86914000Y-51030000D01*
X86660000Y-84304000D02*
X86914000Y-84050000D01*
X89200000Y-91924000D02*
X89200000Y-93956000D01*
X86914000Y-86590000D02*
X86660000Y-86336000D01*
X89200000Y-50776000D02*
X88946000Y-51030000D01*
X89200000Y-89384000D02*
X89200000Y-91416000D01*
X86660000Y-91416000D02*
X86660000Y-89384000D01*
X89200000Y-86844000D02*
X89200000Y-88876000D01*
X86660000Y-66524000D02*
X86914000Y-66270000D01*
X86660000Y-78716000D02*
X86660000Y-76684000D01*
X86660000Y-74144000D02*
X86914000Y-73890000D01*
X89200000Y-76176000D02*
X88946000Y-76430000D01*
X89200000Y-84304000D02*
X89200000Y-86336000D01*
X89200000Y-66016000D02*
X88946000Y-66270000D01*
X89200000Y-56364000D02*
X89200000Y-58396000D01*
X88946000Y-96750000D02*
X86914000Y-96750000D01*
X89200000Y-94464000D02*
X89200000Y-96496000D01*
X89200000Y-71096000D02*
X88946000Y-71350000D01*
X89200000Y-76684000D02*
X89200000Y-78716000D01*
X86660000Y-63984000D02*
X86914000Y-63730000D01*
X86660000Y-50776000D02*
X86660000Y-48744000D01*
X86660000Y-56364000D02*
X86914000Y-56110000D01*
X86660000Y-76176000D02*
X86660000Y-74144000D01*
X88946000Y-89130000D02*
X89200000Y-89384000D01*
X89200000Y-61444000D02*
X89200000Y-63476000D01*
X86660000Y-88876000D02*
X86660000Y-86844000D01*
X88946000Y-58650000D02*
X89200000Y-58904000D01*
X89200000Y-45950000D02*
X89200000Y-46204000D01*
X86914000Y-66270000D02*
X86660000Y-66016000D01*
X89200000Y-96496000D02*
X88946000Y-96750000D01*
X88946000Y-78970000D02*
X89200000Y-79224000D01*
X86660000Y-94464000D02*
X86914000Y-94210000D01*
X88946000Y-84050000D02*
X89200000Y-84304000D01*
X88946000Y-81510000D02*
X89200000Y-81764000D01*
X89200000Y-45950000D02*
X86660000Y-45950000D01*
X86660000Y-60936000D02*
X86660000Y-58904000D01*
X86660000Y-60936000D02*
X86660000Y-58904000D01*
X88946000Y-63730000D02*
X89200000Y-63984000D01*
X86660000Y-46204000D02*
X86914000Y-45950000D01*
X89200000Y-71604000D02*
X89200000Y-73636000D01*
X86660000Y-89384000D02*
X86914000Y-89130000D01*
X89200000Y-94464000D02*
X89200000Y-96496000D01*
X88946000Y-63730000D02*
X89200000Y-63984000D01*
X86660000Y-53316000D02*
X86660000Y-51284000D01*
X86914000Y-76430000D02*
X86660000Y-76684000D01*
X89200000Y-51284000D02*
X89200000Y-53316000D01*
X88946000Y-45950000D02*
X89200000Y-46204000D01*
X86660000Y-69064000D02*
X86914000Y-68810000D01*
X89200000Y-60936000D02*
X88946000Y-61190000D01*
X89200000Y-91416000D02*
X88946000Y-91670000D01*
X86914000Y-71350000D02*
X86660000Y-71096000D01*
X86914000Y-86590000D02*
X86660000Y-86336000D01*
X86660000Y-58904000D02*
X86914000Y-58650000D01*
X88946000Y-61190000D02*
X89200000Y-61444000D01*
X89200000Y-81764000D02*
X89200000Y-83796000D01*
X89200000Y-66016000D02*
X88946000Y-66270000D01*
X86660000Y-83796000D02*
X86660000Y-81764000D01*
X86660000Y-68556000D02*
X86660000Y-66524000D01*
X86914000Y-51030000D02*
X86660000Y-51284000D01*
D12*
X92500000Y-94079420D02*
X92500000Y-94360580D01*
X91480000Y-94079420D02*
X91480000Y-94360580D01*
X134300580Y-49430000D02*
X134019420Y-49430000D01*
X134300580Y-50450000D02*
X134019420Y-50450000D01*
X147615000Y-48105000D02*
X139315000Y-48105000D01*
X139315000Y-48105000D02*
X139315000Y-58105000D01*
X139315000Y-58105000D02*
X147615000Y-58105000D01*
X147615000Y-58105000D02*
X147615000Y-48105000D01*
X123114420Y-74315000D02*
X123395580Y-74315000D01*
X123114420Y-75335000D02*
X123395580Y-75335000D01*
X120430000Y-76755000D02*
X120430000Y-77205000D01*
X126630000Y-76755000D02*
X126630000Y-77205000D01*
X120430000Y-82955000D02*
X120430000Y-82505000D01*
X126630000Y-82955000D02*
X126630000Y-82505000D01*
X120430000Y-76755000D02*
X126630000Y-76755000D01*
X126630000Y-82955000D02*
X120430000Y-82955000D01*
X120930000Y-54200000D02*
X120930000Y-54650000D01*
X127130000Y-54200000D02*
X127130000Y-54650000D01*
X120930000Y-54200000D02*
X127130000Y-54200000D01*
X120930000Y-60400000D02*
X120930000Y-59950000D01*
X127130000Y-60400000D02*
X120930000Y-60400000D01*
X127130000Y-60400000D02*
X127130000Y-59950000D01*
X122629420Y-51060000D02*
X122910580Y-51060000D01*
X122629420Y-52080000D02*
X122910580Y-52080000D01*
X130985000Y-52170000D02*
X132735000Y-52170000D01*
X132735000Y-52170000D02*
X132735000Y-55220000D01*
X132735000Y-55220000D02*
X130985000Y-55220000D01*
X130985000Y-55220000D02*
X130985000Y-52170000D01*
X102053500Y-65425000D02*
G75*
G03*
X102053500Y-65425000I-508000J0D01*
G01*
X107377500Y-64155000D02*
X99777500Y-64155000D01*
X99777500Y-64155000D02*
X99777500Y-77155000D01*
X99777500Y-77155000D02*
X107377500Y-77155000D01*
X107377500Y-77155000D02*
X107377500Y-64155000D01*
X146955000Y-76945000D02*
X138655000Y-76945000D01*
X138655000Y-76945000D02*
X138655000Y-86945000D01*
X138655000Y-86945000D02*
X146955000Y-86945000D01*
X146955000Y-86945000D02*
X146955000Y-76945000D01*
X131134420Y-58010000D02*
X131415580Y-58010000D01*
X131134420Y-56990000D02*
X131415580Y-56990000D01*
M02*
