G04 #@! TF.GenerationSoftware,KiCad,Pcbnew,(6.0.2)*
G04 #@! TF.CreationDate,2022-11-08T17:00:34+01:00*
G04 #@! TF.ProjectId,PANEL_LED_HARDWARE,50414e45-4c5f-44c4-9544-5f4841524457,rev?*
G04 #@! TF.SameCoordinates,Original*
G04 #@! TF.FileFunction,Copper,L2,Bot*
G04 #@! TF.FilePolarity,Positive*
%FSLAX46Y46*%
G04 Gerber Fmt 4.6, Leading zero omitted, Abs format (unit mm)*
G04 Created by KiCad (PCBNEW (6.0.2)) date 2022-11-08 17:00:34*
%MOMM*%
%LPD*%
G01*
G04 APERTURE LIST*
G04 #@! TA.AperFunction,ComponentPad*
%ADD10C,1.700000*%
G04 #@! TD*
G04 #@! TA.AperFunction,ComponentPad*
%ADD11C,1.500000*%
G04 #@! TD*
G04 #@! TA.AperFunction,ComponentPad*
%ADD12C,5.000000*%
G04 #@! TD*
G04 #@! TA.AperFunction,ComponentPad*
%ADD13C,3.048000*%
G04 #@! TD*
G04 #@! TA.AperFunction,ComponentPad*
%ADD14R,3.048000X3.048000*%
G04 #@! TD*
G04 #@! TA.AperFunction,ComponentPad*
%ADD15R,1.778000X1.778000*%
G04 #@! TD*
G04 #@! TA.AperFunction,ComponentPad*
%ADD16C,1.778000*%
G04 #@! TD*
G04 #@! TA.AperFunction,ViaPad*
%ADD17C,0.800000*%
G04 #@! TD*
G04 #@! TA.AperFunction,ViaPad*
%ADD18C,1.000000*%
G04 #@! TD*
G04 #@! TA.AperFunction,Conductor*
%ADD19C,0.250000*%
G04 #@! TD*
G04 #@! TA.AperFunction,Conductor*
%ADD20C,1.000000*%
G04 #@! TD*
G04 APERTURE END LIST*
D10*
X117746000Y-80222000D03*
X115206000Y-80222000D03*
X117746000Y-77682000D03*
X115206000Y-77682000D03*
X117746000Y-75142000D03*
X115206000Y-75142000D03*
X117746000Y-72602000D03*
X115206000Y-72602000D03*
X117746000Y-70062000D03*
X115206000Y-70062000D03*
X117746000Y-67522000D03*
X115206000Y-67522000D03*
X117746000Y-64982000D03*
X115206000Y-64982000D03*
X117746000Y-62442000D03*
X115206000Y-62442000D03*
D11*
X132334000Y-89368000D03*
X132334000Y-84368000D03*
D12*
X144796000Y-92670000D03*
D13*
X143315000Y-68035000D03*
D14*
X143315000Y-63035000D03*
D12*
X93105000Y-49266000D03*
D11*
X132840000Y-68240000D03*
X132840000Y-63240000D03*
D15*
X87930000Y-47220000D03*
D16*
X87930000Y-49760000D03*
X87930000Y-52300000D03*
X87930000Y-54840000D03*
X87930000Y-57380000D03*
X87930000Y-59920000D03*
X87930000Y-62460000D03*
X87930000Y-65000000D03*
X87930000Y-67540000D03*
X87930000Y-70080000D03*
X87930000Y-72620000D03*
X87930000Y-75160000D03*
X87930000Y-77700000D03*
X87930000Y-80240000D03*
X87930000Y-82780000D03*
X87930000Y-85320000D03*
X87930000Y-87860000D03*
X87930000Y-90400000D03*
X87930000Y-92940000D03*
X87930000Y-95480000D03*
D14*
X143315000Y-50605000D03*
D13*
X143315000Y-55605000D03*
D14*
X142655000Y-79445000D03*
D13*
X142655000Y-84445000D03*
D17*
X126000000Y-75000000D03*
X129000000Y-72000000D03*
X136500000Y-53450000D03*
X104850000Y-65800000D03*
X103450000Y-71200000D03*
X101050000Y-75100000D03*
X104625000Y-78175000D03*
X102400000Y-75950000D03*
X105650000Y-77700000D03*
X102350000Y-74400000D03*
X109950000Y-75950000D03*
X105960000Y-74015000D03*
X109950000Y-71200000D03*
X111928489Y-68696511D03*
X112450000Y-71950000D03*
X135275000Y-76135000D03*
D18*
X139735000Y-75345000D03*
D17*
X128000000Y-49000000D03*
X127500000Y-73500000D03*
X126500000Y-52000000D03*
X97383000Y-76385000D03*
X126500000Y-50500000D03*
X134250000Y-80500000D03*
X135000000Y-56250000D03*
X126500000Y-49000000D03*
X127500000Y-72000000D03*
X129500000Y-49000000D03*
X97350000Y-64900000D03*
X135000000Y-57390000D03*
X134250000Y-79215000D03*
X126000000Y-73500000D03*
X128000000Y-50500000D03*
X126000000Y-72000000D03*
D18*
X142010000Y-89240000D03*
D17*
X102250000Y-56000000D03*
X106460000Y-76370000D03*
X103295000Y-73205000D03*
X102250000Y-54000000D03*
X131850000Y-49970000D03*
X128720000Y-53780000D03*
X127895000Y-76865000D03*
X131135000Y-73495000D03*
X105600000Y-59950000D03*
X109600000Y-59900000D03*
X109540000Y-62460000D03*
X105650000Y-62460000D03*
D19*
X136055000Y-75345000D02*
X139735000Y-75345000D01*
X135275000Y-76125000D02*
X136055000Y-75345000D01*
X135275000Y-76135000D02*
X135275000Y-76125000D01*
X141160000Y-53450000D02*
X143315000Y-55605000D01*
X136500000Y-53450000D02*
X141160000Y-53450000D01*
X104850000Y-65800000D02*
X108850000Y-69800000D01*
X116494000Y-71350000D02*
X117746000Y-72602000D01*
X108850000Y-69800000D02*
X112100000Y-69800000D01*
X112100000Y-69800000D02*
X113650000Y-71350000D01*
X113650000Y-71350000D02*
X116494000Y-71350000D01*
X109950000Y-71200000D02*
X103450000Y-71200000D01*
X102200000Y-71950000D02*
X112450000Y-71950000D01*
X101050000Y-73100000D02*
X102200000Y-71950000D01*
X101050000Y-75100000D02*
X101050000Y-73100000D01*
X102400000Y-75950000D02*
X104625000Y-78175000D01*
X102350000Y-74400000D02*
X105650000Y-77700000D01*
X107895000Y-75950000D02*
X109950000Y-75950000D01*
X105960000Y-74015000D02*
X107895000Y-75950000D01*
X105650000Y-59900000D02*
X109600000Y-59900000D01*
X105600000Y-59950000D02*
X105650000Y-59900000D01*
X109540000Y-62460000D02*
X105650000Y-62460000D01*
X87930000Y-49760000D02*
X88750000Y-49760000D01*
D20*
X142010000Y-89240000D02*
X142010000Y-89210000D01*
X146140000Y-70860000D02*
X143315000Y-68035000D01*
X142010000Y-89210000D02*
X146140000Y-85080000D01*
X146140000Y-85080000D02*
X146140000Y-70860000D01*
D19*
X102250000Y-54000000D02*
X102250000Y-56000000D01*
X106460000Y-76370000D02*
X103295000Y-73205000D01*
X87930000Y-75160000D02*
X87940000Y-75160000D01*
X116571489Y-68696511D02*
X111928489Y-68696511D01*
X117746000Y-67522000D02*
X116571489Y-68696511D01*
X128720000Y-53780000D02*
X128720000Y-53100000D01*
X128720000Y-53100000D02*
X131850000Y-49970000D01*
X130535000Y-73495000D02*
X127895000Y-76135000D01*
X131135000Y-73495000D02*
X130535000Y-73495000D01*
X127895000Y-76135000D02*
X127895000Y-76865000D01*
X109760000Y-62460000D02*
X109540000Y-62460000D01*
X87930000Y-77700000D02*
X87940000Y-77700000D01*
G04 #@! TA.AperFunction,Conductor*
G36*
X91973141Y-46260002D02*
G01*
X92019634Y-46313658D01*
X92029738Y-46383932D01*
X92000244Y-46448512D01*
X91959264Y-46479726D01*
X91656707Y-46624039D01*
X91650349Y-46627534D01*
X91362654Y-46808005D01*
X91356731Y-46812214D01*
X91178601Y-46954923D01*
X91170132Y-46967048D01*
X91176527Y-46978316D01*
X93092190Y-48893980D01*
X93106131Y-48901592D01*
X93107966Y-48901461D01*
X93114580Y-48897210D01*
X95032074Y-46979716D01*
X95039466Y-46966179D01*
X95032679Y-46956479D01*
X94929476Y-46868335D01*
X94923704Y-46863953D01*
X94641796Y-46674519D01*
X94635575Y-46670839D01*
X94333757Y-46515060D01*
X94327146Y-46512116D01*
X94252383Y-46483866D01*
X94195730Y-46441076D01*
X94171205Y-46374450D01*
X94186593Y-46305141D01*
X94237010Y-46255155D01*
X94296921Y-46240000D01*
X148434000Y-46240000D01*
X148502121Y-46260002D01*
X148548614Y-46313658D01*
X148560000Y-46366000D01*
X148560000Y-96314000D01*
X148539998Y-96382121D01*
X148486342Y-96428614D01*
X148434000Y-96440000D01*
X88947495Y-96440000D01*
X88879374Y-96419998D01*
X88832881Y-96366342D01*
X88822777Y-96296068D01*
X88850621Y-96233431D01*
X88910807Y-96161065D01*
X88914498Y-96156627D01*
X89021318Y-95965886D01*
X89091589Y-95758873D01*
X89092417Y-95753164D01*
X89092418Y-95753159D01*
X89122426Y-95546194D01*
X89122959Y-95542520D01*
X89124596Y-95480000D01*
X89104592Y-95262302D01*
X89090383Y-95211918D01*
X89046819Y-95057454D01*
X89046818Y-95057452D01*
X89045251Y-95051895D01*
X89042697Y-95046715D01*
X89005695Y-94971681D01*
X142859860Y-94971681D01*
X142859878Y-94971933D01*
X142865793Y-94980677D01*
X142897111Y-95009174D01*
X142902748Y-95013738D01*
X143178544Y-95211918D01*
X143184682Y-95215813D01*
X143481435Y-95380984D01*
X143487955Y-95384136D01*
X143801738Y-95514109D01*
X143808589Y-95516495D01*
X144135212Y-95609536D01*
X144142301Y-95611120D01*
X144477465Y-95666006D01*
X144484671Y-95666763D01*
X144823926Y-95682762D01*
X144831176Y-95682686D01*
X145170010Y-95659587D01*
X145177219Y-95658676D01*
X145511160Y-95596784D01*
X145518190Y-95595057D01*
X145842819Y-95495187D01*
X145849597Y-95492667D01*
X146160603Y-95356145D01*
X146167043Y-95352864D01*
X146460293Y-95181502D01*
X146466326Y-95177493D01*
X146724828Y-94983405D01*
X146733282Y-94972078D01*
X146726537Y-94959748D01*
X144808810Y-93042020D01*
X144794869Y-93034408D01*
X144793034Y-93034539D01*
X144786420Y-93038790D01*
X142867474Y-94957737D01*
X142859860Y-94971681D01*
X89005695Y-94971681D01*
X88951116Y-94861005D01*
X88951113Y-94861001D01*
X88948561Y-94855825D01*
X88817758Y-94680659D01*
X88657224Y-94532263D01*
X88497630Y-94431567D01*
X88450691Y-94378300D01*
X88440002Y-94308113D01*
X88468956Y-94243289D01*
X88509433Y-94211853D01*
X88643138Y-94146352D01*
X88651983Y-94141079D01*
X88707209Y-94101686D01*
X88715609Y-94090987D01*
X88708622Y-94077833D01*
X87659885Y-93029095D01*
X87625859Y-92966783D01*
X87627694Y-92941132D01*
X88294408Y-92941132D01*
X88294539Y-92942966D01*
X88298790Y-92949580D01*
X89068425Y-93719214D01*
X89080431Y-93725770D01*
X89092170Y-93716802D01*
X89128549Y-93666174D01*
X89133860Y-93657335D01*
X89231056Y-93460675D01*
X89234854Y-93451082D01*
X89298628Y-93241177D01*
X89300805Y-93231107D01*
X89329677Y-93011799D01*
X89330196Y-93005124D01*
X89331706Y-92943364D01*
X89331512Y-92936646D01*
X89313389Y-92716203D01*
X89311706Y-92706041D01*
X89279793Y-92578987D01*
X141784484Y-92578987D01*
X141793374Y-92918505D01*
X141793980Y-92925721D01*
X141841835Y-93261963D01*
X141843269Y-93269074D01*
X141929455Y-93597595D01*
X141931692Y-93604478D01*
X142055064Y-93920914D01*
X142058081Y-93927503D01*
X142217002Y-94227652D01*
X142220761Y-94233860D01*
X142413129Y-94513757D01*
X142417574Y-94519486D01*
X142484743Y-94596484D01*
X142497917Y-94604888D01*
X142507769Y-94599020D01*
X144423980Y-92682810D01*
X144430357Y-92671131D01*
X145160408Y-92671131D01*
X145160539Y-92672966D01*
X145164790Y-92679580D01*
X147082268Y-94597057D01*
X147095622Y-94604349D01*
X147105594Y-94597295D01*
X147212641Y-94469267D01*
X147216957Y-94463456D01*
X147403432Y-94179575D01*
X147407046Y-94173313D01*
X147559658Y-93869882D01*
X147562530Y-93863244D01*
X147679249Y-93544293D01*
X147681345Y-93537351D01*
X147760631Y-93207103D01*
X147761915Y-93199964D01*
X147802816Y-92861973D01*
X147803240Y-92856403D01*
X147809010Y-92672797D01*
X147808937Y-92667204D01*
X147789338Y-92327303D01*
X147788506Y-92320113D01*
X147730113Y-91985529D01*
X147728458Y-91978474D01*
X147631998Y-91652834D01*
X147629540Y-91646006D01*
X147496290Y-91333608D01*
X147493073Y-91327125D01*
X147324788Y-91032089D01*
X147320856Y-91026034D01*
X147119774Y-90752295D01*
X147115166Y-90746726D01*
X147109830Y-90740984D01*
X147096178Y-90732866D01*
X147095570Y-90732887D01*
X147087092Y-90738119D01*
X145168020Y-92657190D01*
X145160408Y-92671131D01*
X144430357Y-92671131D01*
X144431592Y-92668869D01*
X144431461Y-92667034D01*
X144427210Y-92660420D01*
X142508374Y-90741585D01*
X142495581Y-90734599D01*
X142484827Y-90742464D01*
X142324037Y-90947527D01*
X142319902Y-90953476D01*
X142142440Y-91243068D01*
X142139019Y-91249447D01*
X141996016Y-91557522D01*
X141993356Y-91564241D01*
X141886711Y-91886707D01*
X141884834Y-91893711D01*
X141815961Y-92226288D01*
X141814904Y-92233449D01*
X141784712Y-92571735D01*
X141784484Y-92578987D01*
X89279793Y-92578987D01*
X89258261Y-92493263D01*
X89254943Y-92483516D01*
X89167462Y-92282323D01*
X89162595Y-92273246D01*
X89091268Y-92162993D01*
X89080582Y-92153791D01*
X89071017Y-92158194D01*
X88302021Y-92927189D01*
X88294408Y-92941132D01*
X87627694Y-92941132D01*
X87630924Y-92895967D01*
X87659885Y-92850905D01*
X87930000Y-92580790D01*
X88711158Y-91799631D01*
X88718178Y-91786775D01*
X88710404Y-91776106D01*
X88709796Y-91775625D01*
X88701210Y-91769921D01*
X88505382Y-91661819D01*
X88455411Y-91611386D01*
X88440639Y-91541943D01*
X88465755Y-91475538D01*
X88504709Y-91441576D01*
X88601585Y-91387322D01*
X88601588Y-91387320D01*
X88606627Y-91384498D01*
X88774707Y-91244707D01*
X88914498Y-91076627D01*
X89021318Y-90885886D01*
X89070003Y-90742464D01*
X89089733Y-90684342D01*
X89089734Y-90684337D01*
X89091589Y-90678873D01*
X89092417Y-90673164D01*
X89092418Y-90673159D01*
X89122426Y-90466194D01*
X89122959Y-90462520D01*
X89124596Y-90400000D01*
X89111315Y-90255469D01*
X89105121Y-90188056D01*
X89105120Y-90188053D01*
X89104592Y-90182302D01*
X89089212Y-90127766D01*
X89046819Y-89977454D01*
X89046818Y-89977452D01*
X89045251Y-89971895D01*
X89042697Y-89966715D01*
X88951116Y-89781005D01*
X88951113Y-89781001D01*
X88948561Y-89775825D01*
X88900270Y-89711155D01*
X88821211Y-89605283D01*
X88821210Y-89605282D01*
X88817758Y-89600659D01*
X88721111Y-89511320D01*
X88661464Y-89456182D01*
X88661461Y-89456180D01*
X88657224Y-89452263D01*
X88500317Y-89353262D01*
X131278520Y-89353262D01*
X131279036Y-89359406D01*
X131291799Y-89511390D01*
X131295759Y-89558553D01*
X131297458Y-89564478D01*
X131349329Y-89745373D01*
X131352544Y-89756586D01*
X131355359Y-89762063D01*
X131355360Y-89762066D01*
X131432884Y-89912912D01*
X131446712Y-89939818D01*
X131574677Y-90101270D01*
X131731564Y-90234791D01*
X131911398Y-90335297D01*
X131984111Y-90358923D01*
X132101471Y-90397056D01*
X132101475Y-90397057D01*
X132107329Y-90398959D01*
X132311894Y-90423351D01*
X132318029Y-90422879D01*
X132318031Y-90422879D01*
X132374039Y-90418569D01*
X132517300Y-90407546D01*
X132523230Y-90405890D01*
X132523232Y-90405890D01*
X132648022Y-90371048D01*
X142861132Y-90371048D01*
X142867527Y-90382316D01*
X144783190Y-92297980D01*
X144797131Y-92305592D01*
X144798966Y-92305461D01*
X144805580Y-92301210D01*
X146723074Y-90383716D01*
X146730466Y-90370179D01*
X146723679Y-90360479D01*
X146620476Y-90272335D01*
X146614704Y-90267953D01*
X146332796Y-90078519D01*
X146326575Y-90074839D01*
X146024757Y-89919060D01*
X146018146Y-89916116D01*
X145700439Y-89796065D01*
X145693513Y-89793894D01*
X145364112Y-89711155D01*
X145357005Y-89709799D01*
X145020278Y-89665468D01*
X145013036Y-89664937D01*
X144673467Y-89659602D01*
X144666205Y-89659906D01*
X144328256Y-89693638D01*
X144321108Y-89694770D01*
X143989263Y-89767124D01*
X143982285Y-89769072D01*
X143660960Y-89879086D01*
X143654253Y-89881823D01*
X143347707Y-90028039D01*
X143341349Y-90031534D01*
X143053654Y-90212005D01*
X143047731Y-90216214D01*
X142869601Y-90358923D01*
X142861132Y-90371048D01*
X132648022Y-90371048D01*
X132709797Y-90353800D01*
X132709796Y-90353800D01*
X132715725Y-90352145D01*
X132721214Y-90349372D01*
X132721220Y-90349370D01*
X132894116Y-90262033D01*
X132899610Y-90259258D01*
X133061951Y-90132424D01*
X133136943Y-90045545D01*
X133192540Y-89981134D01*
X133192540Y-89981133D01*
X133196564Y-89976472D01*
X133205204Y-89961264D01*
X133252407Y-89878171D01*
X133298323Y-89797344D01*
X133363351Y-89601863D01*
X133389171Y-89397474D01*
X133389583Y-89368000D01*
X133375930Y-89228753D01*
X141204514Y-89228753D01*
X141205201Y-89235761D01*
X141205201Y-89235770D01*
X141208595Y-89270378D01*
X141209196Y-89283112D01*
X141209147Y-89297000D01*
X141210684Y-89303874D01*
X141210684Y-89303876D01*
X141211034Y-89305442D01*
X141213285Y-89318895D01*
X141213727Y-89322838D01*
X141213910Y-89324579D01*
X141218513Y-89371522D01*
X141222039Y-89407486D01*
X141223823Y-89412850D01*
X141224454Y-89418472D01*
X141251882Y-89497235D01*
X141252402Y-89498762D01*
X141278726Y-89577896D01*
X141281655Y-89582733D01*
X141283515Y-89588073D01*
X141288933Y-89596743D01*
X141327670Y-89658735D01*
X141328592Y-89660234D01*
X141371759Y-89731512D01*
X141375688Y-89735581D01*
X141378684Y-89740375D01*
X141437427Y-89799530D01*
X141438563Y-89800690D01*
X141496514Y-89860699D01*
X141501247Y-89863796D01*
X141505230Y-89867807D01*
X141520907Y-89877756D01*
X141575554Y-89912436D01*
X141577029Y-89913386D01*
X141646789Y-89959036D01*
X141652090Y-89961008D01*
X141656864Y-89964037D01*
X141663500Y-89966400D01*
X141735377Y-89991994D01*
X141737030Y-89992596D01*
X141815116Y-90021636D01*
X141820721Y-90022384D01*
X141826049Y-90024281D01*
X141852265Y-90027407D01*
X141908835Y-90034153D01*
X141910580Y-90034374D01*
X141986150Y-90044457D01*
X141986153Y-90044457D01*
X141993130Y-90045388D01*
X141998761Y-90044876D01*
X142004376Y-90045545D01*
X142011379Y-90044809D01*
X142011380Y-90044809D01*
X142087267Y-90036834D01*
X142089015Y-90036663D01*
X142128530Y-90033066D01*
X142171981Y-90029112D01*
X142177361Y-90027364D01*
X142182983Y-90026773D01*
X142206591Y-90018736D01*
X142261867Y-89999919D01*
X142263535Y-89999364D01*
X142342782Y-89973615D01*
X142347639Y-89970720D01*
X142352993Y-89968897D01*
X142358992Y-89965207D01*
X142358995Y-89965205D01*
X142423959Y-89925238D01*
X142425465Y-89924326D01*
X142490995Y-89885263D01*
X142490996Y-89885262D01*
X142497044Y-89881657D01*
X142501141Y-89877756D01*
X142505955Y-89874794D01*
X142510981Y-89869872D01*
X142510985Y-89869869D01*
X142565462Y-89816521D01*
X142566727Y-89815300D01*
X142621990Y-89762673D01*
X142621993Y-89762669D01*
X142627099Y-89757807D01*
X142630228Y-89753097D01*
X142634268Y-89749141D01*
X142679480Y-89678986D01*
X142680360Y-89677642D01*
X142685132Y-89670460D01*
X142700983Y-89651095D01*
X146699559Y-85652519D01*
X146700497Y-85651590D01*
X146706883Y-85645336D01*
X146764268Y-85589141D01*
X146768083Y-85583221D01*
X146768088Y-85583215D01*
X146787490Y-85553109D01*
X146794930Y-85542755D01*
X146817267Y-85514774D01*
X146821664Y-85509266D01*
X146836082Y-85479441D01*
X146843611Y-85466025D01*
X146857735Y-85444109D01*
X146861554Y-85438183D01*
X146865242Y-85428052D01*
X146876212Y-85397911D01*
X146881172Y-85386169D01*
X146896763Y-85353916D01*
X146899827Y-85347578D01*
X146907279Y-85315302D01*
X146911648Y-85300554D01*
X146920568Y-85276045D01*
X146920569Y-85276041D01*
X146922978Y-85269422D01*
X146928352Y-85226882D01*
X146930582Y-85214363D01*
X146940226Y-85172589D01*
X146940367Y-85132418D01*
X146940396Y-85131545D01*
X146940500Y-85130717D01*
X146940500Y-85094108D01*
X146940567Y-85075034D01*
X146940841Y-84996493D01*
X146940841Y-84996490D01*
X146940853Y-84993000D01*
X146940587Y-84991812D01*
X146940500Y-84990200D01*
X146940500Y-70869083D01*
X146940507Y-70867763D01*
X146941087Y-70812391D01*
X146941441Y-70778593D01*
X146932384Y-70736704D01*
X146930324Y-70724126D01*
X146930180Y-70722837D01*
X146925546Y-70681528D01*
X146914650Y-70650241D01*
X146910489Y-70635436D01*
X146904978Y-70609944D01*
X146904977Y-70609942D01*
X146903489Y-70603058D01*
X146900513Y-70596676D01*
X146900511Y-70596670D01*
X146885379Y-70564219D01*
X146880583Y-70552408D01*
X146868803Y-70518580D01*
X146868799Y-70518571D01*
X146866485Y-70511927D01*
X146848925Y-70483824D01*
X146841594Y-70470323D01*
X146827590Y-70440292D01*
X146801323Y-70406429D01*
X146794029Y-70395973D01*
X146775049Y-70365599D01*
X146771316Y-70359625D01*
X146764895Y-70353159D01*
X146742997Y-70331107D01*
X146742415Y-70330485D01*
X146741901Y-70329823D01*
X146716041Y-70303963D01*
X146644770Y-70232193D01*
X146643743Y-70231541D01*
X146642535Y-70230457D01*
X145094981Y-68682903D01*
X145060955Y-68620591D01*
X145062807Y-68559607D01*
X145106617Y-68404266D01*
X145107886Y-68399767D01*
X145129291Y-68231512D01*
X145141711Y-68133886D01*
X145141711Y-68133880D01*
X145142109Y-68130755D01*
X145142468Y-68117071D01*
X145144456Y-68041103D01*
X145144616Y-68035000D01*
X145129958Y-67837749D01*
X145124865Y-67769218D01*
X145124864Y-67769214D01*
X145124519Y-67764566D01*
X145064670Y-67500072D01*
X145062977Y-67495718D01*
X144968077Y-67251683D01*
X144968076Y-67251681D01*
X144966384Y-67247330D01*
X144959266Y-67234875D01*
X144892154Y-67117454D01*
X144831820Y-67011892D01*
X144663934Y-66798929D01*
X144466415Y-66613121D01*
X144405118Y-66570598D01*
X144247438Y-66461212D01*
X144247433Y-66461209D01*
X144243600Y-66458550D01*
X144200601Y-66437345D01*
X144004574Y-66340675D01*
X144004571Y-66340674D01*
X144000386Y-66338610D01*
X143742115Y-66255936D01*
X143737508Y-66255186D01*
X143737505Y-66255185D01*
X143479073Y-66213097D01*
X143479074Y-66213097D01*
X143474462Y-66212346D01*
X143343008Y-66210625D01*
X143207982Y-66208858D01*
X143207979Y-66208858D01*
X143203305Y-66208797D01*
X142934601Y-66245365D01*
X142930111Y-66246674D01*
X142930105Y-66246675D01*
X142678748Y-66319940D01*
X142678743Y-66319942D01*
X142674255Y-66321250D01*
X142670008Y-66323208D01*
X142670005Y-66323209D01*
X142613872Y-66349087D01*
X142427985Y-66434782D01*
X142424080Y-66437342D01*
X142424075Y-66437345D01*
X142205113Y-66580902D01*
X142205108Y-66580906D01*
X142201200Y-66583468D01*
X142197708Y-66586585D01*
X142019902Y-66745283D01*
X141998884Y-66764042D01*
X141825481Y-66972537D01*
X141684800Y-67204372D01*
X141682991Y-67208686D01*
X141682990Y-67208688D01*
X141617493Y-67364882D01*
X141579932Y-67454454D01*
X141578781Y-67458986D01*
X141578780Y-67458989D01*
X141558206Y-67540000D01*
X141513180Y-67717291D01*
X141486011Y-67987106D01*
X141486235Y-67991772D01*
X141486235Y-67991777D01*
X141491319Y-68097607D01*
X141499022Y-68257974D01*
X141551926Y-68523944D01*
X141643563Y-68779172D01*
X141771918Y-69018052D01*
X141774713Y-69021796D01*
X141774715Y-69021798D01*
X141830616Y-69096658D01*
X141934171Y-69235336D01*
X141937480Y-69238616D01*
X141937485Y-69238622D01*
X142116570Y-69416151D01*
X142126759Y-69426251D01*
X142130521Y-69429009D01*
X142130524Y-69429012D01*
X142177518Y-69463469D01*
X142345451Y-69586602D01*
X142349586Y-69588778D01*
X142349590Y-69588780D01*
X142398894Y-69614720D01*
X142585442Y-69712868D01*
X142589861Y-69714411D01*
X142837044Y-69800731D01*
X142837050Y-69800733D01*
X142841461Y-69802273D01*
X142846054Y-69803145D01*
X143103293Y-69851984D01*
X143103296Y-69851984D01*
X143107882Y-69852855D01*
X143236574Y-69857911D01*
X143374185Y-69863318D01*
X143374190Y-69863318D01*
X143378853Y-69863501D01*
X143484016Y-69851984D01*
X143643768Y-69834489D01*
X143643774Y-69834488D01*
X143648421Y-69833979D01*
X143765537Y-69803145D01*
X143842407Y-69782907D01*
X143913376Y-69784906D01*
X143963582Y-69815660D01*
X145302595Y-71154673D01*
X145336621Y-71216985D01*
X145339500Y-71243768D01*
X145339500Y-84696232D01*
X145319498Y-84764353D01*
X145302595Y-84785327D01*
X141450441Y-88637481D01*
X141449503Y-88638410D01*
X141385732Y-88700859D01*
X141381917Y-88706779D01*
X141381912Y-88706785D01*
X141362510Y-88736891D01*
X141355070Y-88747245D01*
X141328336Y-88780734D01*
X141325269Y-88787079D01*
X141313918Y-88810559D01*
X141306389Y-88823974D01*
X141288446Y-88851817D01*
X141286036Y-88858437D01*
X141286036Y-88858438D01*
X141273788Y-88892089D01*
X141268828Y-88903831D01*
X141258908Y-88924353D01*
X141250173Y-88942422D01*
X141248590Y-88949277D01*
X141248589Y-88949281D01*
X141242722Y-88974696D01*
X141238352Y-88989446D01*
X141229432Y-89013955D01*
X141229431Y-89013959D01*
X141227022Y-89020578D01*
X141221648Y-89063118D01*
X141219418Y-89075637D01*
X141209774Y-89117411D01*
X141209749Y-89124452D01*
X141209749Y-89124455D01*
X141209633Y-89157582D01*
X141209604Y-89158455D01*
X141209500Y-89159283D01*
X141209500Y-89181353D01*
X141208507Y-89197144D01*
X141204514Y-89228753D01*
X133375930Y-89228753D01*
X133369480Y-89162970D01*
X133309935Y-88965749D01*
X133213218Y-88783849D01*
X133139859Y-88693902D01*
X133086906Y-88628975D01*
X133086903Y-88628972D01*
X133083011Y-88624200D01*
X133065786Y-88609950D01*
X132929025Y-88496811D01*
X132929021Y-88496809D01*
X132924275Y-88492882D01*
X132743055Y-88394897D01*
X132546254Y-88333977D01*
X132540129Y-88333333D01*
X132540128Y-88333333D01*
X132347498Y-88313087D01*
X132347496Y-88313087D01*
X132341369Y-88312443D01*
X132254529Y-88320346D01*
X132142342Y-88330555D01*
X132142339Y-88330556D01*
X132136203Y-88331114D01*
X131938572Y-88389280D01*
X131756002Y-88484726D01*
X131751201Y-88488586D01*
X131751198Y-88488588D01*
X131685930Y-88541065D01*
X131595447Y-88613815D01*
X131463024Y-88771630D01*
X131460056Y-88777028D01*
X131460053Y-88777033D01*
X131385794Y-88912111D01*
X131363776Y-88952162D01*
X131301484Y-89148532D01*
X131300798Y-89154649D01*
X131300797Y-89154653D01*
X131285621Y-89289957D01*
X131278520Y-89353262D01*
X88500317Y-89353262D01*
X88472335Y-89335607D01*
X88269284Y-89254598D01*
X88260562Y-89252863D01*
X88259582Y-89252668D01*
X88196674Y-89219757D01*
X88161546Y-89158060D01*
X88165349Y-89087165D01*
X88206878Y-89029581D01*
X88243667Y-89009778D01*
X88415886Y-88951318D01*
X88606627Y-88844498D01*
X88639095Y-88817495D01*
X88770269Y-88708398D01*
X88774707Y-88704707D01*
X88914498Y-88536627D01*
X89021318Y-88345886D01*
X89091589Y-88138873D01*
X89092417Y-88133164D01*
X89092418Y-88133159D01*
X89122426Y-87926194D01*
X89122959Y-87922520D01*
X89124596Y-87860000D01*
X89104592Y-87642302D01*
X89045251Y-87431895D01*
X89042697Y-87426715D01*
X88951116Y-87241005D01*
X88951113Y-87241001D01*
X88948561Y-87235825D01*
X88817758Y-87060659D01*
X88657224Y-86912263D01*
X88472335Y-86795607D01*
X88269284Y-86714598D01*
X88260562Y-86712863D01*
X88259582Y-86712668D01*
X88196674Y-86679757D01*
X88161546Y-86618060D01*
X88165349Y-86547165D01*
X88206878Y-86489581D01*
X88243667Y-86469778D01*
X88415886Y-86411318D01*
X88606627Y-86304498D01*
X88774707Y-86164707D01*
X88914498Y-85996627D01*
X89021318Y-85805886D01*
X89077086Y-85641598D01*
X89089733Y-85604342D01*
X89089734Y-85604337D01*
X89091589Y-85598873D01*
X89092417Y-85593164D01*
X89092418Y-85593159D01*
X89116357Y-85428052D01*
X89117791Y-85418161D01*
X131648393Y-85418161D01*
X131657687Y-85430175D01*
X131698088Y-85458464D01*
X131707584Y-85463947D01*
X131897113Y-85552326D01*
X131907405Y-85556072D01*
X132109401Y-85610196D01*
X132120196Y-85612099D01*
X132328525Y-85630326D01*
X132339475Y-85630326D01*
X132547804Y-85612099D01*
X132558599Y-85610196D01*
X132760595Y-85556072D01*
X132770887Y-85552326D01*
X132960416Y-85463947D01*
X132969912Y-85458464D01*
X133011148Y-85429590D01*
X133019523Y-85419112D01*
X133012457Y-85405668D01*
X132346811Y-84740021D01*
X132332868Y-84732408D01*
X132331034Y-84732539D01*
X132324420Y-84736790D01*
X131654820Y-85406391D01*
X131648393Y-85418161D01*
X89117791Y-85418161D01*
X89122959Y-85382520D01*
X89124596Y-85320000D01*
X89110403Y-85165545D01*
X89105121Y-85108056D01*
X89105120Y-85108053D01*
X89104592Y-85102302D01*
X89102325Y-85094262D01*
X89046819Y-84897454D01*
X89046818Y-84897452D01*
X89045251Y-84891895D01*
X89006969Y-84814265D01*
X88951116Y-84701005D01*
X88951113Y-84701001D01*
X88948561Y-84695825D01*
X88835103Y-84543886D01*
X88821211Y-84525283D01*
X88821210Y-84525282D01*
X88817758Y-84520659D01*
X88684099Y-84397106D01*
X88661464Y-84376182D01*
X88661461Y-84376180D01*
X88658535Y-84373475D01*
X131071674Y-84373475D01*
X131089901Y-84581804D01*
X131091804Y-84592599D01*
X131145928Y-84794595D01*
X131149674Y-84804887D01*
X131238054Y-84994417D01*
X131243534Y-85003907D01*
X131272411Y-85045149D01*
X131282887Y-85053523D01*
X131296334Y-85046455D01*
X131961979Y-84380811D01*
X131968356Y-84369132D01*
X132698408Y-84369132D01*
X132698539Y-84370966D01*
X132702790Y-84377580D01*
X133372391Y-85047180D01*
X133384161Y-85053607D01*
X133396176Y-85044311D01*
X133424466Y-85003907D01*
X133429946Y-84994417D01*
X133518326Y-84804887D01*
X133522072Y-84794595D01*
X133576196Y-84592599D01*
X133578099Y-84581804D01*
X133594258Y-84397106D01*
X140826011Y-84397106D01*
X140826235Y-84401772D01*
X140826235Y-84401777D01*
X140829093Y-84461267D01*
X140839022Y-84667974D01*
X140891926Y-84933944D01*
X140983563Y-85189172D01*
X141111918Y-85428052D01*
X141114713Y-85431796D01*
X141114715Y-85431798D01*
X141145112Y-85472505D01*
X141274171Y-85645336D01*
X141277480Y-85648616D01*
X141277485Y-85648622D01*
X141382772Y-85752994D01*
X141466759Y-85836251D01*
X141470521Y-85839009D01*
X141470524Y-85839012D01*
X141643967Y-85966185D01*
X141685451Y-85996602D01*
X141689586Y-85998778D01*
X141689590Y-85998780D01*
X141816265Y-86065427D01*
X141925442Y-86122868D01*
X141929861Y-86124411D01*
X142177044Y-86210731D01*
X142177050Y-86210733D01*
X142181461Y-86212273D01*
X142186054Y-86213145D01*
X142443293Y-86261984D01*
X142443296Y-86261984D01*
X142447882Y-86262855D01*
X142576574Y-86267911D01*
X142714185Y-86273318D01*
X142714190Y-86273318D01*
X142718853Y-86273501D01*
X142824016Y-86261984D01*
X142983768Y-86244489D01*
X142983774Y-86244488D01*
X142988421Y-86243979D01*
X142992945Y-86242788D01*
X143246142Y-86176127D01*
X143246144Y-86176126D01*
X143250665Y-86174936D01*
X143274474Y-86164707D01*
X143495529Y-86069734D01*
X143495531Y-86069733D01*
X143499823Y-86067889D01*
X143619489Y-85993837D01*
X143726448Y-85927649D01*
X143726452Y-85927646D01*
X143730421Y-85925190D01*
X143839364Y-85832963D01*
X143933828Y-85752994D01*
X143933830Y-85752992D01*
X143937395Y-85749974D01*
X144116196Y-85546090D01*
X144136340Y-85514774D01*
X144243884Y-85347578D01*
X144262898Y-85318017D01*
X144374277Y-85070766D01*
X144447886Y-84809767D01*
X144465925Y-84667974D01*
X144481711Y-84543886D01*
X144481711Y-84543880D01*
X144482109Y-84540755D01*
X144484616Y-84445000D01*
X144478810Y-84366868D01*
X144464865Y-84179218D01*
X144464864Y-84179214D01*
X144464519Y-84174566D01*
X144404670Y-83910072D01*
X144390321Y-83873174D01*
X144308077Y-83661683D01*
X144308076Y-83661681D01*
X144306384Y-83657330D01*
X144302542Y-83650607D01*
X144194209Y-83461065D01*
X144171820Y-83421892D01*
X144003934Y-83208929D01*
X143806415Y-83023121D01*
X143759971Y-82990902D01*
X143587438Y-82871212D01*
X143587433Y-82871209D01*
X143583600Y-82868550D01*
X143538267Y-82846194D01*
X143344574Y-82750675D01*
X143344571Y-82750674D01*
X143340386Y-82748610D01*
X143082115Y-82665936D01*
X143077508Y-82665186D01*
X143077505Y-82665185D01*
X142819073Y-82623097D01*
X142819074Y-82623097D01*
X142814462Y-82622346D01*
X142683008Y-82620625D01*
X142547982Y-82618858D01*
X142547979Y-82618858D01*
X142543305Y-82618797D01*
X142274601Y-82655365D01*
X142270111Y-82656674D01*
X142270105Y-82656675D01*
X142018748Y-82729940D01*
X142018743Y-82729942D01*
X142014255Y-82731250D01*
X142010008Y-82733208D01*
X142010005Y-82733209D01*
X141979685Y-82747187D01*
X141767985Y-82844782D01*
X141764080Y-82847342D01*
X141764075Y-82847345D01*
X141545113Y-82990902D01*
X141545108Y-82990906D01*
X141541200Y-82993468D01*
X141338884Y-83174042D01*
X141165481Y-83382537D01*
X141024800Y-83614372D01*
X141022991Y-83618686D01*
X141022990Y-83618688D01*
X140933495Y-83832111D01*
X140919932Y-83864454D01*
X140918781Y-83868986D01*
X140918780Y-83868989D01*
X140895605Y-83960241D01*
X140853180Y-84127291D01*
X140826011Y-84397106D01*
X133594258Y-84397106D01*
X133596326Y-84373475D01*
X133596326Y-84362525D01*
X133578099Y-84154196D01*
X133576196Y-84143401D01*
X133522072Y-83941405D01*
X133518326Y-83931113D01*
X133429946Y-83741583D01*
X133424466Y-83732093D01*
X133395589Y-83690851D01*
X133385113Y-83682477D01*
X133371666Y-83689545D01*
X132706021Y-84355189D01*
X132698408Y-84369132D01*
X131968356Y-84369132D01*
X131969592Y-84366868D01*
X131969461Y-84365034D01*
X131965210Y-84358420D01*
X131295609Y-83688820D01*
X131283839Y-83682393D01*
X131271824Y-83691689D01*
X131243534Y-83732093D01*
X131238054Y-83741583D01*
X131149674Y-83931113D01*
X131145928Y-83941405D01*
X131091804Y-84143401D01*
X131089901Y-84154196D01*
X131071674Y-84362525D01*
X131071674Y-84373475D01*
X88658535Y-84373475D01*
X88657224Y-84372263D01*
X88472335Y-84255607D01*
X88269284Y-84174598D01*
X88260562Y-84172863D01*
X88259582Y-84172668D01*
X88196674Y-84139757D01*
X88161546Y-84078060D01*
X88165349Y-84007165D01*
X88206878Y-83949581D01*
X88243667Y-83929778D01*
X88415886Y-83871318D01*
X88606627Y-83764498D01*
X88774707Y-83624707D01*
X88914498Y-83456627D01*
X88992756Y-83316887D01*
X131648477Y-83316887D01*
X131655545Y-83330334D01*
X132321189Y-83995979D01*
X132335132Y-84003592D01*
X132336966Y-84003461D01*
X132343580Y-83999210D01*
X133013180Y-83329609D01*
X133019607Y-83317839D01*
X133010313Y-83305825D01*
X132969912Y-83277536D01*
X132960416Y-83272053D01*
X132770887Y-83183674D01*
X132760595Y-83179928D01*
X132558599Y-83125804D01*
X132547804Y-83123901D01*
X132339475Y-83105674D01*
X132328525Y-83105674D01*
X132120196Y-83123901D01*
X132109401Y-83125804D01*
X131907405Y-83179928D01*
X131897113Y-83183674D01*
X131707583Y-83272054D01*
X131698093Y-83277534D01*
X131656851Y-83306411D01*
X131648477Y-83316887D01*
X88992756Y-83316887D01*
X89021318Y-83265886D01*
X89069515Y-83123901D01*
X89089733Y-83064342D01*
X89089734Y-83064337D01*
X89091589Y-83058873D01*
X89092417Y-83053164D01*
X89092418Y-83053159D01*
X89122426Y-82846194D01*
X89122959Y-82842520D01*
X89124596Y-82780000D01*
X89104592Y-82562302D01*
X89045251Y-82351895D01*
X89042697Y-82346715D01*
X88951116Y-82161005D01*
X88951113Y-82161001D01*
X88948561Y-82155825D01*
X88817758Y-81980659D01*
X88657224Y-81832263D01*
X88472335Y-81715607D01*
X88269284Y-81634598D01*
X88260562Y-81632863D01*
X88259582Y-81632668D01*
X88196674Y-81599757D01*
X88161546Y-81538060D01*
X88165349Y-81467165D01*
X88206878Y-81409581D01*
X88243667Y-81389778D01*
X88415886Y-81331318D01*
X88606627Y-81224498D01*
X88774707Y-81084707D01*
X88914498Y-80916627D01*
X89021318Y-80725886D01*
X89091589Y-80518873D01*
X89092417Y-80513164D01*
X89092418Y-80513159D01*
X89122426Y-80306194D01*
X89122959Y-80302520D01*
X89124596Y-80240000D01*
X89104592Y-80022302D01*
X89099960Y-80005876D01*
X89046819Y-79817454D01*
X89046818Y-79817452D01*
X89045251Y-79811895D01*
X89032163Y-79785354D01*
X88951116Y-79621005D01*
X88951113Y-79621001D01*
X88948561Y-79615825D01*
X88935118Y-79597822D01*
X88821211Y-79445283D01*
X88821210Y-79445282D01*
X88817758Y-79440659D01*
X88675608Y-79309257D01*
X88661464Y-79296182D01*
X88661461Y-79296180D01*
X88657224Y-79292263D01*
X88472335Y-79175607D01*
X88269284Y-79094598D01*
X88260562Y-79092863D01*
X88259582Y-79092668D01*
X88196674Y-79059757D01*
X88161546Y-78998060D01*
X88165349Y-78927165D01*
X88206878Y-78869581D01*
X88243667Y-78849778D01*
X88415886Y-78791318D01*
X88606627Y-78684498D01*
X88658696Y-78641193D01*
X88770269Y-78548398D01*
X88774707Y-78544707D01*
X88914498Y-78376627D01*
X89021318Y-78185886D01*
X89056459Y-78082364D01*
X89089733Y-77984342D01*
X89089734Y-77984337D01*
X89091589Y-77978873D01*
X89092417Y-77973164D01*
X89092418Y-77973159D01*
X89122426Y-77766194D01*
X89122959Y-77762520D01*
X89124596Y-77700000D01*
X89109032Y-77530623D01*
X89105121Y-77488056D01*
X89105120Y-77488053D01*
X89104592Y-77482302D01*
X89102260Y-77474031D01*
X89046819Y-77277454D01*
X89046818Y-77277452D01*
X89045251Y-77271895D01*
X89040741Y-77262749D01*
X88951116Y-77081005D01*
X88951113Y-77081001D01*
X88948561Y-77075825D01*
X88943253Y-77068716D01*
X88821211Y-76905283D01*
X88821210Y-76905282D01*
X88817758Y-76900659D01*
X88699229Y-76791092D01*
X88661464Y-76756182D01*
X88661461Y-76756180D01*
X88657224Y-76752263D01*
X88472335Y-76635607D01*
X88282040Y-76559687D01*
X88274648Y-76556738D01*
X88269284Y-76554598D01*
X88260562Y-76552863D01*
X88259582Y-76552668D01*
X88196674Y-76519757D01*
X88161546Y-76458060D01*
X88165349Y-76387165D01*
X88206878Y-76329581D01*
X88243667Y-76309778D01*
X88415886Y-76251318D01*
X88606627Y-76144498D01*
X88617854Y-76135161D01*
X88770269Y-76008398D01*
X88774707Y-76004707D01*
X88914498Y-75836627D01*
X89021318Y-75645886D01*
X89068643Y-75506470D01*
X89089733Y-75444342D01*
X89089734Y-75444337D01*
X89091589Y-75438873D01*
X89092417Y-75433164D01*
X89092418Y-75433159D01*
X89117360Y-75261135D01*
X89122959Y-75222520D01*
X89124596Y-75160000D01*
X89118404Y-75092611D01*
X100344394Y-75092611D01*
X100362999Y-75261135D01*
X100383436Y-75316982D01*
X100415734Y-75405238D01*
X100421266Y-75420356D01*
X100425502Y-75426659D01*
X100425502Y-75426660D01*
X100437384Y-75444342D01*
X100515830Y-75561083D01*
X100521442Y-75566190D01*
X100521445Y-75566193D01*
X100635612Y-75670077D01*
X100635616Y-75670080D01*
X100641233Y-75675191D01*
X100647906Y-75678814D01*
X100647910Y-75678817D01*
X100783558Y-75752467D01*
X100783560Y-75752468D01*
X100790235Y-75756092D01*
X100797584Y-75758020D01*
X100946883Y-75797188D01*
X100946885Y-75797188D01*
X100954233Y-75799116D01*
X101040609Y-75800473D01*
X101116161Y-75801660D01*
X101116164Y-75801660D01*
X101123760Y-75801779D01*
X101131165Y-75800083D01*
X101131166Y-75800083D01*
X101242532Y-75774577D01*
X101289029Y-75763928D01*
X101440498Y-75687747D01*
X101523602Y-75616769D01*
X101588392Y-75587738D01*
X101658592Y-75598343D01*
X101711914Y-75645217D01*
X101731430Y-75713479D01*
X101722825Y-75758352D01*
X101716524Y-75774513D01*
X101715532Y-75782046D01*
X101715532Y-75782047D01*
X101697370Y-75920009D01*
X101694394Y-75942611D01*
X101712999Y-76111135D01*
X101739067Y-76182368D01*
X101763550Y-76249270D01*
X101771266Y-76270356D01*
X101775502Y-76276659D01*
X101775502Y-76276660D01*
X101785483Y-76291514D01*
X101865830Y-76411083D01*
X101871442Y-76416190D01*
X101871445Y-76416193D01*
X101985612Y-76520077D01*
X101985616Y-76520080D01*
X101991233Y-76525191D01*
X101997906Y-76528814D01*
X101997910Y-76528817D01*
X102133558Y-76602467D01*
X102133560Y-76602468D01*
X102140235Y-76606092D01*
X102147584Y-76608020D01*
X102296883Y-76647188D01*
X102296885Y-76647188D01*
X102304233Y-76649116D01*
X102390920Y-76650478D01*
X102449423Y-76651397D01*
X102517221Y-76672466D01*
X102536539Y-76688286D01*
X103886680Y-78038427D01*
X103920706Y-78100739D01*
X103922507Y-78143967D01*
X103919394Y-78167611D01*
X103937999Y-78336135D01*
X103970754Y-78425642D01*
X103989120Y-78475828D01*
X103996266Y-78495356D01*
X104000502Y-78501659D01*
X104000502Y-78501660D01*
X104013574Y-78521113D01*
X104090830Y-78636083D01*
X104096442Y-78641190D01*
X104096445Y-78641193D01*
X104210612Y-78745077D01*
X104210616Y-78745080D01*
X104216233Y-78750191D01*
X104222906Y-78753814D01*
X104222910Y-78753817D01*
X104358558Y-78827467D01*
X104358560Y-78827468D01*
X104365235Y-78831092D01*
X104372584Y-78833020D01*
X104521883Y-78872188D01*
X104521885Y-78872188D01*
X104529233Y-78874116D01*
X104615609Y-78875473D01*
X104691161Y-78876660D01*
X104691164Y-78876660D01*
X104698760Y-78876779D01*
X104706165Y-78875083D01*
X104706166Y-78875083D01*
X104766586Y-78861245D01*
X104864029Y-78838928D01*
X105015498Y-78762747D01*
X105144423Y-78652634D01*
X105243361Y-78514947D01*
X105273709Y-78439456D01*
X105317673Y-78383714D01*
X105384798Y-78360589D01*
X105422584Y-78364579D01*
X105554233Y-78399116D01*
X105640609Y-78400473D01*
X105716161Y-78401660D01*
X105716164Y-78401660D01*
X105723760Y-78401779D01*
X105731165Y-78400083D01*
X105731166Y-78400083D01*
X105802637Y-78383714D01*
X105889029Y-78363928D01*
X106040498Y-78287747D01*
X106169423Y-78177634D01*
X106268361Y-78039947D01*
X106271194Y-78032900D01*
X106328766Y-77889687D01*
X106328767Y-77889685D01*
X106331601Y-77882634D01*
X106348173Y-77766194D01*
X106354909Y-77718862D01*
X106354909Y-77718859D01*
X106355490Y-77714778D01*
X106355645Y-77700000D01*
X106350062Y-77653863D01*
X113844050Y-77653863D01*
X113856309Y-77866477D01*
X113857745Y-77876697D01*
X113904565Y-78084446D01*
X113907645Y-78094275D01*
X113987770Y-78291603D01*
X113992413Y-78300794D01*
X114072460Y-78431420D01*
X114082916Y-78440880D01*
X114091694Y-78437096D01*
X114833978Y-77694812D01*
X114841592Y-77680868D01*
X114841461Y-77679035D01*
X114837210Y-77672420D01*
X114095849Y-76931059D01*
X114084313Y-76924759D01*
X114072031Y-76934382D01*
X114024089Y-77004662D01*
X114019004Y-77013613D01*
X113929338Y-77206783D01*
X113925775Y-77216470D01*
X113868864Y-77421681D01*
X113866933Y-77431800D01*
X113844302Y-77643574D01*
X113844050Y-77653863D01*
X106350062Y-77653863D01*
X106335276Y-77531680D01*
X106275345Y-77373077D01*
X106209625Y-77277454D01*
X106192834Y-77253023D01*
X106170734Y-77185554D01*
X106188619Y-77116847D01*
X106240811Y-77068716D01*
X106310739Y-77056443D01*
X106328642Y-77059779D01*
X106364233Y-77069116D01*
X106450609Y-77070473D01*
X106526161Y-77071660D01*
X106526164Y-77071660D01*
X106533760Y-77071779D01*
X106541165Y-77070083D01*
X106541166Y-77070083D01*
X106639184Y-77047634D01*
X106699029Y-77033928D01*
X106850498Y-76957747D01*
X106937006Y-76883862D01*
X106973651Y-76852564D01*
X106973652Y-76852563D01*
X106979423Y-76847634D01*
X107078361Y-76709947D01*
X107086550Y-76689577D01*
X107138766Y-76559687D01*
X107138767Y-76559685D01*
X107141601Y-76552634D01*
X107155061Y-76458060D01*
X107164909Y-76388862D01*
X107164909Y-76388859D01*
X107165490Y-76384778D01*
X107165562Y-76377932D01*
X107165602Y-76374135D01*
X107165602Y-76374129D01*
X107165645Y-76370000D01*
X107145276Y-76201680D01*
X107109403Y-76106745D01*
X107104035Y-76035952D01*
X107137793Y-75973494D01*
X107199959Y-75939202D01*
X107270795Y-75943964D01*
X107316364Y-75973112D01*
X107641780Y-76298528D01*
X107663163Y-76309423D01*
X107680009Y-76319747D01*
X107699419Y-76333849D01*
X107708850Y-76336913D01*
X107708853Y-76336915D01*
X107722237Y-76341264D01*
X107740498Y-76348828D01*
X107752777Y-76355084D01*
X107761874Y-76359719D01*
X107785571Y-76363472D01*
X107804790Y-76368086D01*
X107827607Y-76375500D01*
X109328634Y-76375500D01*
X109396755Y-76395502D01*
X109415331Y-76411631D01*
X109415830Y-76411083D01*
X109535612Y-76520077D01*
X109535616Y-76520080D01*
X109541233Y-76525191D01*
X109547906Y-76528814D01*
X109547910Y-76528817D01*
X109683558Y-76602467D01*
X109683560Y-76602468D01*
X109690235Y-76606092D01*
X109697584Y-76608020D01*
X109846883Y-76647188D01*
X109846885Y-76647188D01*
X109854233Y-76649116D01*
X109940609Y-76650473D01*
X110016161Y-76651660D01*
X110016164Y-76651660D01*
X110023760Y-76651779D01*
X110031165Y-76650083D01*
X110031166Y-76650083D01*
X110103716Y-76633467D01*
X110189029Y-76613928D01*
X110340498Y-76537747D01*
X110445318Y-76448222D01*
X110463651Y-76432564D01*
X110463652Y-76432563D01*
X110469423Y-76427634D01*
X110568361Y-76289947D01*
X110578934Y-76263647D01*
X110628766Y-76139687D01*
X110628767Y-76139685D01*
X110631601Y-76132634D01*
X110644406Y-76042658D01*
X110654909Y-75968862D01*
X110654909Y-75968859D01*
X110655490Y-75964778D01*
X110655645Y-75950000D01*
X110653840Y-75935080D01*
X110649161Y-75896418D01*
X110635276Y-75781680D01*
X110575345Y-75623077D01*
X110538029Y-75568782D01*
X110483614Y-75489608D01*
X110483613Y-75489607D01*
X110479312Y-75483349D01*
X110472292Y-75477094D01*
X110358392Y-75375612D01*
X110358388Y-75375610D01*
X110352721Y-75370560D01*
X110339448Y-75363532D01*
X110273000Y-75328350D01*
X110202881Y-75291224D01*
X110038441Y-75249919D01*
X110030843Y-75249879D01*
X110030841Y-75249879D01*
X109953668Y-75249475D01*
X109868895Y-75249031D01*
X109861508Y-75250805D01*
X109861504Y-75250805D01*
X109718162Y-75285220D01*
X109704032Y-75288612D01*
X109697288Y-75292093D01*
X109697285Y-75292094D01*
X109602412Y-75341062D01*
X109553369Y-75366375D01*
X109547647Y-75371367D01*
X109547645Y-75371368D01*
X109469031Y-75439947D01*
X109425604Y-75477831D01*
X109421918Y-75483076D01*
X109361905Y-75520049D01*
X109328713Y-75524500D01*
X108123438Y-75524500D01*
X108055317Y-75504498D01*
X108034343Y-75487595D01*
X106698925Y-74152177D01*
X106664899Y-74089865D01*
X106663277Y-74045329D01*
X106664909Y-74033863D01*
X106664909Y-74033857D01*
X106665490Y-74029778D01*
X106665645Y-74015000D01*
X106663840Y-74000080D01*
X106661004Y-73976653D01*
X106645276Y-73846680D01*
X106585345Y-73688077D01*
X106528399Y-73605221D01*
X106493614Y-73554608D01*
X106493613Y-73554607D01*
X106489312Y-73548349D01*
X106478807Y-73538989D01*
X106368392Y-73440612D01*
X106368388Y-73440610D01*
X106362721Y-73435560D01*
X106338439Y-73422703D01*
X106287680Y-73395828D01*
X106212881Y-73356224D01*
X106048441Y-73314919D01*
X106040843Y-73314879D01*
X106040841Y-73314879D01*
X105963668Y-73314475D01*
X105878895Y-73314031D01*
X105871508Y-73315805D01*
X105871504Y-73315805D01*
X105761661Y-73342177D01*
X105714032Y-73353612D01*
X105707288Y-73357093D01*
X105707285Y-73357094D01*
X105570117Y-73427892D01*
X105563369Y-73431375D01*
X105557647Y-73436367D01*
X105557645Y-73436368D01*
X105507052Y-73480503D01*
X105435604Y-73542831D01*
X105427327Y-73554608D01*
X105344745Y-73672111D01*
X105338113Y-73681547D01*
X105276524Y-73839513D01*
X105275532Y-73847046D01*
X105275532Y-73847047D01*
X105256214Y-73993788D01*
X105254394Y-74007611D01*
X105272999Y-74176135D01*
X105275609Y-74183267D01*
X105310687Y-74279122D01*
X105315313Y-74349967D01*
X105280904Y-74412068D01*
X105218382Y-74445707D01*
X105147599Y-74440204D01*
X105103266Y-74411518D01*
X104033925Y-73342177D01*
X103999899Y-73279865D01*
X103998277Y-73235329D01*
X103999909Y-73223863D01*
X103999909Y-73223857D01*
X104000490Y-73219778D01*
X104000645Y-73205000D01*
X103998840Y-73190080D01*
X103996004Y-73166653D01*
X103980276Y-73036680D01*
X103920345Y-72878077D01*
X103911584Y-72865330D01*
X103828614Y-72744608D01*
X103828613Y-72744607D01*
X103824312Y-72738349D01*
X103765775Y-72686194D01*
X103703392Y-72630612D01*
X103703388Y-72630610D01*
X103697721Y-72625560D01*
X103691012Y-72622008D01*
X103691008Y-72622005D01*
X103673726Y-72612855D01*
X103622882Y-72563302D01*
X103606900Y-72494128D01*
X103630853Y-72427294D01*
X103687137Y-72384020D01*
X103732684Y-72375500D01*
X111828634Y-72375500D01*
X111896755Y-72395502D01*
X111915331Y-72411631D01*
X111915830Y-72411083D01*
X112035612Y-72520077D01*
X112035616Y-72520080D01*
X112041233Y-72525191D01*
X112047906Y-72528814D01*
X112047910Y-72528817D01*
X112183558Y-72602467D01*
X112183560Y-72602468D01*
X112190235Y-72606092D01*
X112197584Y-72608020D01*
X112346883Y-72647188D01*
X112346885Y-72647188D01*
X112354233Y-72649116D01*
X112440609Y-72650473D01*
X112516161Y-72651660D01*
X112516164Y-72651660D01*
X112523760Y-72651779D01*
X112531165Y-72650083D01*
X112531166Y-72650083D01*
X112591586Y-72636245D01*
X112689029Y-72613928D01*
X112840498Y-72537747D01*
X112969423Y-72427634D01*
X113068361Y-72289947D01*
X113071194Y-72282900D01*
X113128766Y-72139687D01*
X113128767Y-72139685D01*
X113131601Y-72132634D01*
X113150721Y-71998290D01*
X113154909Y-71968862D01*
X113154909Y-71968859D01*
X113155490Y-71964778D01*
X113155562Y-71957932D01*
X113155602Y-71954135D01*
X113155602Y-71954129D01*
X113155645Y-71950000D01*
X113135276Y-71781680D01*
X113132592Y-71774576D01*
X113130779Y-71767195D01*
X113132179Y-71766851D01*
X113127441Y-71704356D01*
X113161200Y-71641899D01*
X113223366Y-71607608D01*
X113294203Y-71612370D01*
X113339770Y-71641518D01*
X113396780Y-71698528D01*
X113418163Y-71709423D01*
X113435009Y-71719747D01*
X113454419Y-71733849D01*
X113463850Y-71736913D01*
X113463853Y-71736915D01*
X113477237Y-71741264D01*
X113495498Y-71748828D01*
X113508036Y-71755216D01*
X113516874Y-71759719D01*
X113540571Y-71763472D01*
X113559790Y-71768086D01*
X113582607Y-71775500D01*
X113894998Y-71775500D01*
X113963119Y-71795502D01*
X114009612Y-71849158D01*
X114019716Y-71919432D01*
X114009286Y-71954550D01*
X113929338Y-72126783D01*
X113925775Y-72136470D01*
X113868864Y-72341681D01*
X113866933Y-72351800D01*
X113844302Y-72563574D01*
X113844050Y-72573863D01*
X113856309Y-72786477D01*
X113857745Y-72796697D01*
X113904565Y-73004446D01*
X113907645Y-73014275D01*
X113987770Y-73211603D01*
X113992413Y-73220794D01*
X114072460Y-73351420D01*
X114082916Y-73360880D01*
X114091694Y-73357096D01*
X115041066Y-72407724D01*
X115103378Y-72373698D01*
X115174193Y-72378763D01*
X115231029Y-72421310D01*
X115255840Y-72487830D01*
X115256158Y-72496095D01*
X115257523Y-72739045D01*
X115258181Y-72856129D01*
X115238562Y-72924361D01*
X115221278Y-72945932D01*
X114452737Y-73714473D01*
X114445977Y-73726853D01*
X114451258Y-73733907D01*
X114612756Y-73828279D01*
X114622046Y-73832730D01*
X114706328Y-73864914D01*
X114762832Y-73907901D01*
X114787125Y-73974612D01*
X114771495Y-74043867D01*
X114715628Y-74096348D01*
X114713990Y-74097129D01*
X114708575Y-74099127D01*
X114703613Y-74102079D01*
X114703611Y-74102080D01*
X114531821Y-74204284D01*
X114526856Y-74207238D01*
X114367881Y-74346655D01*
X114236976Y-74512708D01*
X114234287Y-74517819D01*
X114234285Y-74517822D01*
X114213415Y-74557490D01*
X114138523Y-74699836D01*
X114075820Y-74901773D01*
X114050967Y-75111754D01*
X114064796Y-75322749D01*
X114066217Y-75328345D01*
X114066218Y-75328350D01*
X114105584Y-75483349D01*
X114116845Y-75527690D01*
X114119262Y-75532933D01*
X114200602Y-75709374D01*
X114205369Y-75719714D01*
X114327405Y-75892391D01*
X114389041Y-75952434D01*
X114474169Y-76035362D01*
X114478865Y-76039937D01*
X114483661Y-76043142D01*
X114483664Y-76043144D01*
X114574122Y-76103586D01*
X114654677Y-76157411D01*
X114659980Y-76159690D01*
X114659985Y-76159692D01*
X114694818Y-76174657D01*
X114712768Y-76182369D01*
X114767460Y-76227636D01*
X114788998Y-76295287D01*
X114770541Y-76363842D01*
X114717951Y-76411537D01*
X114702175Y-76417901D01*
X114682868Y-76424212D01*
X114673359Y-76428209D01*
X114484466Y-76526540D01*
X114475734Y-76532039D01*
X114455677Y-76547099D01*
X114447223Y-76558427D01*
X114453968Y-76570758D01*
X115247099Y-77363889D01*
X115281125Y-77426201D01*
X115284002Y-77452274D01*
X115284203Y-77488056D01*
X115286560Y-77907750D01*
X115266941Y-77975982D01*
X115249657Y-77997553D01*
X114452737Y-78794473D01*
X114445977Y-78806853D01*
X114451258Y-78813907D01*
X114612756Y-78908279D01*
X114622046Y-78912730D01*
X114706328Y-78944914D01*
X114762832Y-78987901D01*
X114787125Y-79054612D01*
X114771495Y-79123867D01*
X114715628Y-79176348D01*
X114713990Y-79177129D01*
X114708575Y-79179127D01*
X114703613Y-79182079D01*
X114703611Y-79182080D01*
X114531821Y-79284284D01*
X114526856Y-79287238D01*
X114367881Y-79426655D01*
X114236976Y-79592708D01*
X114234287Y-79597819D01*
X114234285Y-79597822D01*
X114222088Y-79621005D01*
X114138523Y-79779836D01*
X114075820Y-79981773D01*
X114050967Y-80191754D01*
X114064796Y-80402749D01*
X114066217Y-80408345D01*
X114066218Y-80408350D01*
X114088784Y-80497200D01*
X114116845Y-80607690D01*
X114205369Y-80799714D01*
X114327405Y-80972391D01*
X114331539Y-80976418D01*
X114469288Y-81110607D01*
X114478865Y-81119937D01*
X114483661Y-81123142D01*
X114483664Y-81123144D01*
X114609245Y-81207054D01*
X114654677Y-81237411D01*
X114659985Y-81239692D01*
X114659986Y-81239692D01*
X114843650Y-81318600D01*
X114843653Y-81318601D01*
X114848953Y-81320878D01*
X114854582Y-81322152D01*
X114854583Y-81322152D01*
X115049550Y-81366269D01*
X115049553Y-81366269D01*
X115055186Y-81367544D01*
X115060957Y-81367771D01*
X115060959Y-81367771D01*
X115122989Y-81370208D01*
X115266470Y-81375846D01*
X115272179Y-81375018D01*
X115272183Y-81375018D01*
X115470015Y-81346333D01*
X115470019Y-81346332D01*
X115475730Y-81345504D01*
X115554987Y-81318600D01*
X115670483Y-81279395D01*
X115670488Y-81279393D01*
X115675955Y-81277537D01*
X115680998Y-81274713D01*
X115855395Y-81177046D01*
X115855399Y-81177043D01*
X115860442Y-81174219D01*
X116023012Y-81039012D01*
X116158219Y-80876442D01*
X116161043Y-80871399D01*
X116161046Y-80871395D01*
X116258713Y-80696998D01*
X116258714Y-80696996D01*
X116261537Y-80691955D01*
X116263393Y-80686488D01*
X116263395Y-80686483D01*
X116327647Y-80497200D01*
X116329504Y-80491730D01*
X116349029Y-80357072D01*
X116378599Y-80292526D01*
X116438371Y-80254214D01*
X116468662Y-80249254D01*
X116470177Y-80249193D01*
X116471647Y-80249134D01*
X116540516Y-80266382D01*
X116589127Y-80318127D01*
X116602439Y-80366791D01*
X116604796Y-80402749D01*
X116606217Y-80408345D01*
X116606218Y-80408350D01*
X116628784Y-80497200D01*
X116656845Y-80607690D01*
X116745369Y-80799714D01*
X116867405Y-80972391D01*
X116871539Y-80976418D01*
X117009288Y-81110607D01*
X117018865Y-81119937D01*
X117023661Y-81123142D01*
X117023664Y-81123144D01*
X117149245Y-81207054D01*
X117194677Y-81237411D01*
X117199985Y-81239692D01*
X117199986Y-81239692D01*
X117383650Y-81318600D01*
X117383653Y-81318601D01*
X117388953Y-81320878D01*
X117394582Y-81322152D01*
X117394583Y-81322152D01*
X117589550Y-81366269D01*
X117589553Y-81366269D01*
X117595186Y-81367544D01*
X117600957Y-81367771D01*
X117600959Y-81367771D01*
X117662989Y-81370208D01*
X117806470Y-81375846D01*
X117812179Y-81375018D01*
X117812183Y-81375018D01*
X118010015Y-81346333D01*
X118010019Y-81346332D01*
X118015730Y-81345504D01*
X118094987Y-81318600D01*
X118210483Y-81279395D01*
X118210488Y-81279393D01*
X118215955Y-81277537D01*
X118220998Y-81274713D01*
X118395395Y-81177046D01*
X118395399Y-81177043D01*
X118400442Y-81174219D01*
X118563012Y-81039012D01*
X118584089Y-81013669D01*
X140623001Y-81013669D01*
X140623371Y-81020490D01*
X140628895Y-81071352D01*
X140632521Y-81086604D01*
X140677676Y-81207054D01*
X140686214Y-81222649D01*
X140762715Y-81324724D01*
X140775276Y-81337285D01*
X140877351Y-81413786D01*
X140892946Y-81422324D01*
X141013394Y-81467478D01*
X141028649Y-81471105D01*
X141079514Y-81476631D01*
X141086328Y-81477000D01*
X142382885Y-81477000D01*
X142398124Y-81472525D01*
X142399329Y-81471135D01*
X142401000Y-81463452D01*
X142401000Y-81458884D01*
X142909000Y-81458884D01*
X142913475Y-81474123D01*
X142914865Y-81475328D01*
X142922548Y-81476999D01*
X144223669Y-81476999D01*
X144230490Y-81476629D01*
X144281352Y-81471105D01*
X144296604Y-81467479D01*
X144417054Y-81422324D01*
X144432649Y-81413786D01*
X144534724Y-81337285D01*
X144547285Y-81324724D01*
X144623786Y-81222649D01*
X144632324Y-81207054D01*
X144677478Y-81086606D01*
X144681105Y-81071351D01*
X144686631Y-81020486D01*
X144687000Y-81013672D01*
X144687000Y-79717115D01*
X144682525Y-79701876D01*
X144681135Y-79700671D01*
X144673452Y-79699000D01*
X142927115Y-79699000D01*
X142911876Y-79703475D01*
X142910671Y-79704865D01*
X142909000Y-79712548D01*
X142909000Y-81458884D01*
X142401000Y-81458884D01*
X142401000Y-79717115D01*
X142396525Y-79701876D01*
X142395135Y-79700671D01*
X142387452Y-79699000D01*
X140641116Y-79699000D01*
X140625877Y-79703475D01*
X140624672Y-79704865D01*
X140623001Y-79712548D01*
X140623001Y-81013669D01*
X118584089Y-81013669D01*
X118698219Y-80876442D01*
X118701043Y-80871399D01*
X118701046Y-80871395D01*
X118798713Y-80696998D01*
X118798714Y-80696996D01*
X118801537Y-80691955D01*
X118803393Y-80686488D01*
X118803395Y-80686483D01*
X118867647Y-80497200D01*
X118869504Y-80491730D01*
X118883243Y-80396981D01*
X118899314Y-80286140D01*
X118899314Y-80286138D01*
X118899846Y-80282470D01*
X118901429Y-80222000D01*
X118882081Y-80011440D01*
X118824686Y-79807931D01*
X118813553Y-79785354D01*
X118733719Y-79623469D01*
X118731165Y-79618290D01*
X118604651Y-79448867D01*
X118449381Y-79305337D01*
X118270554Y-79192505D01*
X118221376Y-79172885D01*
X140623000Y-79172885D01*
X140627475Y-79188124D01*
X140628865Y-79189329D01*
X140636548Y-79191000D01*
X142382885Y-79191000D01*
X142398124Y-79186525D01*
X142399329Y-79185135D01*
X142401000Y-79177452D01*
X142401000Y-79172885D01*
X142909000Y-79172885D01*
X142913475Y-79188124D01*
X142914865Y-79189329D01*
X142922548Y-79191000D01*
X144668884Y-79191000D01*
X144684123Y-79186525D01*
X144685328Y-79185135D01*
X144686999Y-79177452D01*
X144686999Y-77876331D01*
X144686629Y-77869510D01*
X144681105Y-77818648D01*
X144677479Y-77803396D01*
X144632324Y-77682946D01*
X144623786Y-77667351D01*
X144547285Y-77565276D01*
X144534724Y-77552715D01*
X144432649Y-77476214D01*
X144417054Y-77467676D01*
X144296606Y-77422522D01*
X144281351Y-77418895D01*
X144230486Y-77413369D01*
X144223672Y-77413000D01*
X142927115Y-77413000D01*
X142911876Y-77417475D01*
X142910671Y-77418865D01*
X142909000Y-77426548D01*
X142909000Y-79172885D01*
X142401000Y-79172885D01*
X142401000Y-77431116D01*
X142396525Y-77415877D01*
X142395135Y-77414672D01*
X142387452Y-77413001D01*
X141086331Y-77413001D01*
X141079510Y-77413371D01*
X141028648Y-77418895D01*
X141013396Y-77422521D01*
X140892946Y-77467676D01*
X140877351Y-77476214D01*
X140775276Y-77552715D01*
X140762715Y-77565276D01*
X140686214Y-77667351D01*
X140677676Y-77682946D01*
X140632522Y-77803394D01*
X140628895Y-77818649D01*
X140623369Y-77869514D01*
X140623000Y-77876328D01*
X140623000Y-79172885D01*
X118221376Y-79172885D01*
X118074160Y-79114152D01*
X118068503Y-79113027D01*
X118068497Y-79113025D01*
X117871234Y-79073788D01*
X117808324Y-79040881D01*
X117773192Y-78979186D01*
X117776992Y-78908291D01*
X117818517Y-78850705D01*
X117877734Y-78825513D01*
X118010015Y-78806333D01*
X118010019Y-78806332D01*
X118015730Y-78805504D01*
X118072676Y-78786173D01*
X118210483Y-78739395D01*
X118210488Y-78739393D01*
X118215955Y-78737537D01*
X118220998Y-78734713D01*
X118395395Y-78637046D01*
X118395399Y-78637043D01*
X118400442Y-78634219D01*
X118563012Y-78499012D01*
X118698219Y-78336442D01*
X118701043Y-78331399D01*
X118701046Y-78331395D01*
X118798713Y-78156998D01*
X118798714Y-78156996D01*
X118801537Y-78151955D01*
X118803393Y-78146488D01*
X118803395Y-78146483D01*
X118860290Y-77978873D01*
X118869504Y-77951730D01*
X118881866Y-77866477D01*
X118899314Y-77746140D01*
X118899314Y-77746138D01*
X118899846Y-77742470D01*
X118901429Y-77682000D01*
X118882081Y-77471440D01*
X118877772Y-77456159D01*
X118851749Y-77363889D01*
X118824686Y-77267931D01*
X118817335Y-77253023D01*
X118733719Y-77083469D01*
X118731165Y-77078290D01*
X118604651Y-76908867D01*
X118549203Y-76857611D01*
X127189394Y-76857611D01*
X127207999Y-77026135D01*
X127266266Y-77185356D01*
X127270502Y-77191659D01*
X127270502Y-77191660D01*
X127280664Y-77206783D01*
X127360830Y-77326083D01*
X127366442Y-77331190D01*
X127366445Y-77331193D01*
X127480612Y-77435077D01*
X127480616Y-77435080D01*
X127486233Y-77440191D01*
X127492906Y-77443814D01*
X127492910Y-77443817D01*
X127628558Y-77517467D01*
X127628560Y-77517468D01*
X127635235Y-77521092D01*
X127642584Y-77523020D01*
X127791883Y-77562188D01*
X127791885Y-77562188D01*
X127799233Y-77564116D01*
X127885609Y-77565473D01*
X127961161Y-77566660D01*
X127961164Y-77566660D01*
X127968760Y-77566779D01*
X127976165Y-77565083D01*
X127976166Y-77565083D01*
X128036586Y-77551245D01*
X128134029Y-77528928D01*
X128285498Y-77452747D01*
X128414423Y-77342634D01*
X128513361Y-77204947D01*
X128521237Y-77185356D01*
X128573766Y-77054687D01*
X128573767Y-77054685D01*
X128576601Y-77047634D01*
X128593192Y-76931059D01*
X128599909Y-76883862D01*
X128599909Y-76883859D01*
X128600490Y-76879778D01*
X128600645Y-76865000D01*
X128598840Y-76850080D01*
X128594157Y-76811390D01*
X128580276Y-76696680D01*
X128520345Y-76538077D01*
X128494781Y-76500881D01*
X128428614Y-76404608D01*
X128428613Y-76404607D01*
X128424312Y-76398349D01*
X128418643Y-76393298D01*
X128413617Y-76387597D01*
X128415825Y-76385651D01*
X128385463Y-76336974D01*
X128386421Y-76265984D01*
X128417732Y-76214016D01*
X128504137Y-76127611D01*
X134569394Y-76127611D01*
X134587999Y-76296135D01*
X134613209Y-76365023D01*
X134640349Y-76439186D01*
X134646266Y-76455356D01*
X134650502Y-76461659D01*
X134650502Y-76461660D01*
X134663574Y-76481113D01*
X134740830Y-76596083D01*
X134746442Y-76601190D01*
X134746445Y-76601193D01*
X134860612Y-76705077D01*
X134860616Y-76705080D01*
X134866233Y-76710191D01*
X134872906Y-76713814D01*
X134872910Y-76713817D01*
X135008558Y-76787467D01*
X135008560Y-76787468D01*
X135015235Y-76791092D01*
X135022584Y-76793020D01*
X135171883Y-76832188D01*
X135171885Y-76832188D01*
X135179233Y-76834116D01*
X135265609Y-76835473D01*
X135341161Y-76836660D01*
X135341164Y-76836660D01*
X135348760Y-76836779D01*
X135356165Y-76835083D01*
X135356166Y-76835083D01*
X135459616Y-76811390D01*
X135514029Y-76798928D01*
X135665498Y-76722747D01*
X135780263Y-76624728D01*
X135788651Y-76617564D01*
X135788652Y-76617563D01*
X135794423Y-76612634D01*
X135893361Y-76474947D01*
X135901237Y-76455356D01*
X135953766Y-76324687D01*
X135953767Y-76324685D01*
X135956601Y-76317634D01*
X135972400Y-76206621D01*
X135979909Y-76153862D01*
X135979909Y-76153859D01*
X135980490Y-76149778D01*
X135980645Y-76135000D01*
X135975716Y-76094271D01*
X135987388Y-76024243D01*
X136011708Y-75990040D01*
X136194343Y-75807405D01*
X136256655Y-75773379D01*
X136283438Y-75770500D01*
X138985784Y-75770500D01*
X139053905Y-75790502D01*
X139088006Y-75825527D01*
X139088812Y-75824906D01*
X139093112Y-75830490D01*
X139096759Y-75836512D01*
X139101648Y-75841575D01*
X139101649Y-75841576D01*
X139140474Y-75881780D01*
X139221514Y-75965699D01*
X139371789Y-76064036D01*
X139540116Y-76126636D01*
X139547097Y-76127567D01*
X139547099Y-76127568D01*
X139711149Y-76149457D01*
X139711153Y-76149457D01*
X139718130Y-76150388D01*
X139725142Y-76149750D01*
X139725146Y-76149750D01*
X139889960Y-76134751D01*
X139889961Y-76134751D01*
X139896981Y-76134112D01*
X140067782Y-76078615D01*
X140107452Y-76054967D01*
X140215992Y-75990265D01*
X140215994Y-75990264D01*
X140222044Y-75986657D01*
X140352099Y-75862807D01*
X140366545Y-75841065D01*
X140446153Y-75721244D01*
X140451483Y-75713222D01*
X140467932Y-75669919D01*
X140512757Y-75551919D01*
X140512758Y-75551914D01*
X140515257Y-75545336D01*
X140520719Y-75506470D01*
X140539700Y-75371416D01*
X140539700Y-75371411D01*
X140540251Y-75367493D01*
X140540565Y-75345000D01*
X140520546Y-75166528D01*
X140512005Y-75142000D01*
X140463803Y-75003584D01*
X140461485Y-74996927D01*
X140449545Y-74977818D01*
X140370049Y-74850599D01*
X140366316Y-74844625D01*
X140295812Y-74773627D01*
X140244733Y-74722190D01*
X140244729Y-74722187D01*
X140239770Y-74717193D01*
X140231884Y-74712188D01*
X140167673Y-74671439D01*
X140088136Y-74620963D01*
X140058352Y-74610357D01*
X139925586Y-74563081D01*
X139925581Y-74563080D01*
X139918951Y-74560719D01*
X139911965Y-74559886D01*
X139911961Y-74559885D01*
X139784177Y-74544648D01*
X139740624Y-74539455D01*
X139733621Y-74540191D01*
X139733620Y-74540191D01*
X139569025Y-74557490D01*
X139569021Y-74557491D01*
X139562017Y-74558227D01*
X139555346Y-74560498D01*
X139398677Y-74613832D01*
X139398674Y-74613833D01*
X139392007Y-74616103D01*
X139386009Y-74619793D01*
X139386007Y-74619794D01*
X139315526Y-74663155D01*
X139239045Y-74710206D01*
X139234014Y-74715132D01*
X139234011Y-74715135D01*
X139215262Y-74733496D01*
X139110732Y-74835859D01*
X139094477Y-74861083D01*
X139094043Y-74861756D01*
X139040328Y-74908180D01*
X138988132Y-74919500D01*
X135987607Y-74919500D01*
X135978180Y-74922563D01*
X135978173Y-74922564D01*
X135964788Y-74926913D01*
X135945569Y-74931527D01*
X135931669Y-74933729D01*
X135931666Y-74933730D01*
X135921874Y-74935281D01*
X135900503Y-74946170D01*
X135882239Y-74953735D01*
X135868852Y-74958085D01*
X135868849Y-74958086D01*
X135859420Y-74961150D01*
X135840006Y-74975256D01*
X135823154Y-74985582D01*
X135801780Y-74996472D01*
X135400512Y-75397740D01*
X135338200Y-75431766D01*
X135310759Y-75434643D01*
X135193895Y-75434031D01*
X135186508Y-75435805D01*
X135186504Y-75435805D01*
X135043162Y-75470220D01*
X135029032Y-75473612D01*
X135022288Y-75477093D01*
X135022285Y-75477094D01*
X134903577Y-75538364D01*
X134878369Y-75551375D01*
X134872647Y-75556367D01*
X134872645Y-75556368D01*
X134803661Y-75616547D01*
X134750604Y-75662831D01*
X134733093Y-75687747D01*
X134660835Y-75790560D01*
X134653113Y-75801547D01*
X134591524Y-75959513D01*
X134590532Y-75967046D01*
X134590532Y-75967047D01*
X134572557Y-76103586D01*
X134569394Y-76127611D01*
X128504137Y-76127611D01*
X130555331Y-74076417D01*
X130617643Y-74042391D01*
X130688458Y-74047456D01*
X130717413Y-74062804D01*
X130720617Y-74065081D01*
X130726233Y-74070191D01*
X130778718Y-74098688D01*
X130868558Y-74147467D01*
X130868560Y-74147468D01*
X130875235Y-74151092D01*
X130882584Y-74153020D01*
X131031883Y-74192188D01*
X131031885Y-74192188D01*
X131039233Y-74194116D01*
X131125609Y-74195473D01*
X131201161Y-74196660D01*
X131201164Y-74196660D01*
X131208760Y-74196779D01*
X131216165Y-74195083D01*
X131216166Y-74195083D01*
X131298898Y-74176135D01*
X131374029Y-74158928D01*
X131525498Y-74082747D01*
X131606608Y-74013472D01*
X131648651Y-73977564D01*
X131648652Y-73977563D01*
X131654423Y-73972634D01*
X131753361Y-73834947D01*
X131775373Y-73780191D01*
X131813766Y-73684687D01*
X131813767Y-73684685D01*
X131816601Y-73677634D01*
X131840490Y-73509778D01*
X131840645Y-73495000D01*
X131840114Y-73490607D01*
X131833022Y-73432007D01*
X131820276Y-73326680D01*
X131760345Y-73168077D01*
X131717602Y-73105886D01*
X131668614Y-73034608D01*
X131668613Y-73034607D01*
X131664312Y-73028349D01*
X131658119Y-73022831D01*
X131543392Y-72920612D01*
X131543388Y-72920610D01*
X131537721Y-72915560D01*
X131516680Y-72904419D01*
X131448181Y-72868151D01*
X131387881Y-72836224D01*
X131223441Y-72794919D01*
X131215843Y-72794879D01*
X131215841Y-72794879D01*
X131138668Y-72794475D01*
X131053895Y-72794031D01*
X131046508Y-72795805D01*
X131046504Y-72795805D01*
X130903162Y-72830220D01*
X130889032Y-72833612D01*
X130882288Y-72837093D01*
X130882285Y-72837094D01*
X130773662Y-72893159D01*
X130738369Y-72911375D01*
X130732647Y-72916367D01*
X130732645Y-72916368D01*
X130636361Y-73000362D01*
X130610604Y-73022831D01*
X130606918Y-73028076D01*
X130546905Y-73065049D01*
X130513713Y-73069500D01*
X130467607Y-73069500D01*
X130458180Y-73072563D01*
X130458173Y-73072564D01*
X130444788Y-73076913D01*
X130425569Y-73081527D01*
X130411672Y-73083728D01*
X130411665Y-73083730D01*
X130401874Y-73085281D01*
X130380498Y-73096173D01*
X130362237Y-73103736D01*
X130339419Y-73111150D01*
X130331397Y-73116979D01*
X130331396Y-73116979D01*
X130320011Y-73125251D01*
X130303156Y-73135581D01*
X130281780Y-73146472D01*
X127546472Y-75881780D01*
X127535577Y-75903163D01*
X127525253Y-75920009D01*
X127511151Y-75939419D01*
X127508087Y-75948850D01*
X127508085Y-75948853D01*
X127503736Y-75962237D01*
X127496172Y-75980498D01*
X127491196Y-75990265D01*
X127485281Y-76001874D01*
X127481738Y-76024243D01*
X127481528Y-76025570D01*
X127476914Y-76044790D01*
X127469500Y-76067607D01*
X127469500Y-76249270D01*
X127449498Y-76317391D01*
X127426329Y-76344219D01*
X127426149Y-76344376D01*
X127370604Y-76392831D01*
X127357457Y-76411537D01*
X127308559Y-76481113D01*
X127273113Y-76531547D01*
X127211524Y-76689513D01*
X127210532Y-76697046D01*
X127210532Y-76697047D01*
X127191546Y-76841267D01*
X127189394Y-76857611D01*
X118549203Y-76857611D01*
X118485720Y-76798928D01*
X118453622Y-76769257D01*
X118453620Y-76769255D01*
X118449381Y-76765337D01*
X118350425Y-76702900D01*
X118275434Y-76655584D01*
X118275433Y-76655584D01*
X118270554Y-76652505D01*
X118074160Y-76574152D01*
X118068503Y-76573027D01*
X118068497Y-76573025D01*
X117871234Y-76533788D01*
X117808324Y-76500881D01*
X117773192Y-76439186D01*
X117776992Y-76368291D01*
X117818517Y-76310705D01*
X117877734Y-76285513D01*
X118010015Y-76266333D01*
X118010019Y-76266332D01*
X118015730Y-76265504D01*
X118088276Y-76240878D01*
X118210483Y-76199395D01*
X118210488Y-76199393D01*
X118215955Y-76197537D01*
X118220998Y-76194713D01*
X118395395Y-76097046D01*
X118395399Y-76097043D01*
X118400442Y-76094219D01*
X118563012Y-75959012D01*
X118698219Y-75796442D01*
X118701043Y-75791399D01*
X118701046Y-75791395D01*
X118798713Y-75616998D01*
X118798714Y-75616996D01*
X118801537Y-75611955D01*
X118803393Y-75606488D01*
X118803395Y-75606483D01*
X118867647Y-75417200D01*
X118869504Y-75411730D01*
X118870446Y-75405238D01*
X118899314Y-75206140D01*
X118899314Y-75206138D01*
X118899846Y-75202470D01*
X118901429Y-75142000D01*
X118882081Y-74931440D01*
X118880128Y-74924513D01*
X118856187Y-74839627D01*
X118824686Y-74727931D01*
X118820951Y-74720356D01*
X118733719Y-74543469D01*
X118731165Y-74538290D01*
X118627899Y-74400000D01*
X118608104Y-74373491D01*
X118608103Y-74373490D01*
X118604651Y-74368867D01*
X118449381Y-74225337D01*
X118270554Y-74112505D01*
X118074160Y-74034152D01*
X118068503Y-74033027D01*
X118068497Y-74033025D01*
X117871234Y-73993788D01*
X117808324Y-73960881D01*
X117773192Y-73899186D01*
X117776992Y-73828291D01*
X117818517Y-73770705D01*
X117877734Y-73745513D01*
X118010015Y-73726333D01*
X118010019Y-73726332D01*
X118015730Y-73725504D01*
X118091219Y-73699879D01*
X118210483Y-73659395D01*
X118210488Y-73659393D01*
X118215955Y-73657537D01*
X118220998Y-73654713D01*
X118395395Y-73557046D01*
X118395399Y-73557043D01*
X118400442Y-73554219D01*
X118563012Y-73419012D01*
X118698219Y-73256442D01*
X118701043Y-73251399D01*
X118701046Y-73251395D01*
X118798713Y-73076998D01*
X118798714Y-73076996D01*
X118801537Y-73071955D01*
X118803393Y-73066488D01*
X118803395Y-73066483D01*
X118867647Y-72877200D01*
X118869504Y-72871730D01*
X118874138Y-72839776D01*
X118899314Y-72666140D01*
X118899314Y-72666138D01*
X118899846Y-72662470D01*
X118901429Y-72602000D01*
X118882081Y-72391440D01*
X118879989Y-72384020D01*
X118851470Y-72282900D01*
X118824686Y-72187931D01*
X118797417Y-72132634D01*
X118733719Y-72003469D01*
X118731165Y-71998290D01*
X118604651Y-71828867D01*
X118463651Y-71698528D01*
X118453622Y-71689257D01*
X118453620Y-71689255D01*
X118449381Y-71685337D01*
X118380536Y-71641899D01*
X118275434Y-71575584D01*
X118275433Y-71575584D01*
X118270554Y-71572505D01*
X118074160Y-71494152D01*
X118068503Y-71493027D01*
X118068497Y-71493025D01*
X117871234Y-71453788D01*
X117808324Y-71420881D01*
X117773192Y-71359186D01*
X117776992Y-71288291D01*
X117818517Y-71230705D01*
X117877734Y-71205513D01*
X118010015Y-71186333D01*
X118010019Y-71186332D01*
X118015730Y-71185504D01*
X118106556Y-71154673D01*
X118210483Y-71119395D01*
X118210488Y-71119393D01*
X118215955Y-71117537D01*
X118220998Y-71114713D01*
X118395395Y-71017046D01*
X118395399Y-71017043D01*
X118400442Y-71014219D01*
X118563012Y-70879012D01*
X118698219Y-70716442D01*
X118701043Y-70711399D01*
X118701046Y-70711395D01*
X118798713Y-70536998D01*
X118798714Y-70536996D01*
X118801537Y-70531955D01*
X118803393Y-70526488D01*
X118803395Y-70526483D01*
X118860290Y-70358873D01*
X118869504Y-70331730D01*
X118885352Y-70222435D01*
X118899314Y-70126140D01*
X118899314Y-70126138D01*
X118899846Y-70122470D01*
X118901429Y-70062000D01*
X118882081Y-69851440D01*
X118877301Y-69834489D01*
X118862753Y-69782907D01*
X118824686Y-69647931D01*
X118813553Y-69625354D01*
X118733719Y-69463469D01*
X118731165Y-69458290D01*
X118632392Y-69326017D01*
X118608104Y-69293491D01*
X118608103Y-69293490D01*
X118604651Y-69288867D01*
X118485879Y-69179075D01*
X118453622Y-69149257D01*
X118453620Y-69149255D01*
X118449381Y-69145337D01*
X118270554Y-69032505D01*
X118074160Y-68954152D01*
X118068503Y-68953027D01*
X118068497Y-68953025D01*
X117871234Y-68913788D01*
X117808324Y-68880881D01*
X117773192Y-68819186D01*
X117776992Y-68748291D01*
X117818517Y-68690705D01*
X117877734Y-68665513D01*
X118010015Y-68646333D01*
X118010019Y-68646332D01*
X118015730Y-68645504D01*
X118089122Y-68620591D01*
X118210483Y-68579395D01*
X118210488Y-68579393D01*
X118215955Y-68577537D01*
X118220998Y-68574713D01*
X118395395Y-68477046D01*
X118395399Y-68477043D01*
X118400442Y-68474219D01*
X118563012Y-68339012D01*
X118657616Y-68225262D01*
X131784520Y-68225262D01*
X131785036Y-68231406D01*
X131799552Y-68404266D01*
X131801759Y-68430553D01*
X131803458Y-68436478D01*
X131846511Y-68586621D01*
X131858544Y-68628586D01*
X131861359Y-68634063D01*
X131861360Y-68634066D01*
X131933671Y-68774768D01*
X131952712Y-68811818D01*
X132080677Y-68973270D01*
X132085370Y-68977264D01*
X132085371Y-68977265D01*
X132139311Y-69023171D01*
X132237564Y-69106791D01*
X132242942Y-69109797D01*
X132242944Y-69109798D01*
X132286308Y-69134033D01*
X132417398Y-69207297D01*
X132489745Y-69230804D01*
X132607471Y-69269056D01*
X132607475Y-69269057D01*
X132613329Y-69270959D01*
X132817894Y-69295351D01*
X132824029Y-69294879D01*
X132824031Y-69294879D01*
X132880039Y-69290569D01*
X133023300Y-69279546D01*
X133029230Y-69277890D01*
X133029232Y-69277890D01*
X133215797Y-69225800D01*
X133215796Y-69225800D01*
X133221725Y-69224145D01*
X133227214Y-69221372D01*
X133227220Y-69221370D01*
X133377738Y-69145337D01*
X133405610Y-69131258D01*
X133410756Y-69127238D01*
X133532009Y-69032505D01*
X133567951Y-69004424D01*
X133611345Y-68954152D01*
X133698540Y-68853134D01*
X133698540Y-68853133D01*
X133702564Y-68848472D01*
X133723387Y-68811818D01*
X133759475Y-68748291D01*
X133804323Y-68669344D01*
X133869351Y-68473863D01*
X133895171Y-68269474D01*
X133895583Y-68240000D01*
X133875480Y-68034970D01*
X133815935Y-67837749D01*
X133719218Y-67655849D01*
X133645859Y-67565902D01*
X133592906Y-67500975D01*
X133592903Y-67500972D01*
X133589011Y-67496200D01*
X133533333Y-67450139D01*
X133435025Y-67368811D01*
X133435021Y-67368809D01*
X133430275Y-67364882D01*
X133249055Y-67266897D01*
X133052254Y-67205977D01*
X133046129Y-67205333D01*
X133046128Y-67205333D01*
X132853498Y-67185087D01*
X132853496Y-67185087D01*
X132847369Y-67184443D01*
X132760529Y-67192346D01*
X132648342Y-67202555D01*
X132648339Y-67202556D01*
X132642203Y-67203114D01*
X132444572Y-67261280D01*
X132262002Y-67356726D01*
X132257201Y-67360586D01*
X132257198Y-67360588D01*
X132246971Y-67368811D01*
X132101447Y-67485815D01*
X131969024Y-67643630D01*
X131966056Y-67649028D01*
X131966053Y-67649033D01*
X131884598Y-67797200D01*
X131869776Y-67824162D01*
X131807484Y-68020532D01*
X131806798Y-68026649D01*
X131806797Y-68026653D01*
X131794769Y-68133886D01*
X131784520Y-68225262D01*
X118657616Y-68225262D01*
X118698219Y-68176442D01*
X118701043Y-68171399D01*
X118701046Y-68171395D01*
X118798713Y-67996998D01*
X118798714Y-67996996D01*
X118801537Y-67991955D01*
X118803393Y-67986488D01*
X118803395Y-67986483D01*
X118867647Y-67797200D01*
X118869504Y-67791730D01*
X118879255Y-67724485D01*
X118899314Y-67586140D01*
X118899314Y-67586138D01*
X118899846Y-67582470D01*
X118901429Y-67522000D01*
X118882081Y-67311440D01*
X118870902Y-67271800D01*
X118852851Y-67207799D01*
X118824686Y-67107931D01*
X118731165Y-66918290D01*
X118642034Y-66798929D01*
X118608104Y-66753491D01*
X118608103Y-66753490D01*
X118604651Y-66748867D01*
X118449381Y-66605337D01*
X118270554Y-66492505D01*
X118074160Y-66414152D01*
X118068503Y-66413027D01*
X118068497Y-66413025D01*
X117880223Y-66375576D01*
X117817313Y-66342669D01*
X117782181Y-66280974D01*
X117778806Y-66251264D01*
X117778824Y-66248170D01*
X117799222Y-66180167D01*
X117853147Y-66133987D01*
X117886741Y-66124207D01*
X118010015Y-66106333D01*
X118010019Y-66106332D01*
X118015730Y-66105504D01*
X118088276Y-66080878D01*
X118210483Y-66039395D01*
X118210488Y-66039393D01*
X118215955Y-66037537D01*
X118220998Y-66034713D01*
X118395395Y-65937046D01*
X118395399Y-65937043D01*
X118400442Y-65934219D01*
X118563012Y-65799012D01*
X118698219Y-65636442D01*
X118701043Y-65631399D01*
X118701046Y-65631395D01*
X118798713Y-65456998D01*
X118798714Y-65456996D01*
X118801537Y-65451955D01*
X118803393Y-65446488D01*
X118803395Y-65446483D01*
X118867647Y-65257200D01*
X118869504Y-65251730D01*
X118873907Y-65221368D01*
X118899314Y-65046140D01*
X118899314Y-65046138D01*
X118899846Y-65042470D01*
X118901429Y-64982000D01*
X118882081Y-64771440D01*
X118834765Y-64603669D01*
X141283001Y-64603669D01*
X141283371Y-64610490D01*
X141288895Y-64661352D01*
X141292521Y-64676604D01*
X141337676Y-64797054D01*
X141346214Y-64812649D01*
X141422715Y-64914724D01*
X141435276Y-64927285D01*
X141537351Y-65003786D01*
X141552946Y-65012324D01*
X141673394Y-65057478D01*
X141688649Y-65061105D01*
X141739514Y-65066631D01*
X141746328Y-65067000D01*
X143042885Y-65067000D01*
X143058124Y-65062525D01*
X143059329Y-65061135D01*
X143061000Y-65053452D01*
X143061000Y-65048884D01*
X143569000Y-65048884D01*
X143573475Y-65064123D01*
X143574865Y-65065328D01*
X143582548Y-65066999D01*
X144883669Y-65066999D01*
X144890490Y-65066629D01*
X144941352Y-65061105D01*
X144956604Y-65057479D01*
X145077054Y-65012324D01*
X145092649Y-65003786D01*
X145194724Y-64927285D01*
X145207285Y-64914724D01*
X145283786Y-64812649D01*
X145292324Y-64797054D01*
X145337478Y-64676606D01*
X145341105Y-64661351D01*
X145346631Y-64610486D01*
X145347000Y-64603672D01*
X145347000Y-63307115D01*
X145342525Y-63291876D01*
X145341135Y-63290671D01*
X145333452Y-63289000D01*
X143587115Y-63289000D01*
X143571876Y-63293475D01*
X143570671Y-63294865D01*
X143569000Y-63302548D01*
X143569000Y-65048884D01*
X143061000Y-65048884D01*
X143061000Y-63307115D01*
X143056525Y-63291876D01*
X143055135Y-63290671D01*
X143047452Y-63289000D01*
X141301116Y-63289000D01*
X141285877Y-63293475D01*
X141284672Y-63294865D01*
X141283001Y-63302548D01*
X141283001Y-64603669D01*
X118834765Y-64603669D01*
X118824686Y-64567931D01*
X118813553Y-64545354D01*
X118733719Y-64383469D01*
X118731165Y-64378290D01*
X118665356Y-64290161D01*
X132154393Y-64290161D01*
X132163687Y-64302175D01*
X132204088Y-64330464D01*
X132213584Y-64335947D01*
X132403113Y-64424326D01*
X132413405Y-64428072D01*
X132615401Y-64482196D01*
X132626196Y-64484099D01*
X132834525Y-64502326D01*
X132845475Y-64502326D01*
X133053804Y-64484099D01*
X133064599Y-64482196D01*
X133266595Y-64428072D01*
X133276887Y-64424326D01*
X133466416Y-64335947D01*
X133475912Y-64330464D01*
X133517148Y-64301590D01*
X133525523Y-64291112D01*
X133518457Y-64277668D01*
X132852811Y-63612021D01*
X132838868Y-63604408D01*
X132837034Y-63604539D01*
X132830420Y-63608790D01*
X132160820Y-64278391D01*
X132154393Y-64290161D01*
X118665356Y-64290161D01*
X118604651Y-64208867D01*
X118449381Y-64065337D01*
X118270554Y-63952505D01*
X118074160Y-63874152D01*
X118068500Y-63873026D01*
X118068496Y-63873025D01*
X117894558Y-63838427D01*
X117831648Y-63805520D01*
X117796516Y-63743825D01*
X117793141Y-63714142D01*
X117793186Y-63706115D01*
X117813570Y-63638107D01*
X117867485Y-63591916D01*
X117901103Y-63582125D01*
X118010015Y-63566333D01*
X118010019Y-63566332D01*
X118015730Y-63565504D01*
X118072676Y-63546173D01*
X118210483Y-63499395D01*
X118210488Y-63499393D01*
X118215955Y-63497537D01*
X118294046Y-63453804D01*
X118395395Y-63397046D01*
X118395399Y-63397043D01*
X118400442Y-63394219D01*
X118563012Y-63259012D01*
X118574271Y-63245475D01*
X131577674Y-63245475D01*
X131595901Y-63453804D01*
X131597804Y-63464599D01*
X131651928Y-63666595D01*
X131655674Y-63676887D01*
X131744054Y-63866417D01*
X131749534Y-63875907D01*
X131778411Y-63917149D01*
X131788887Y-63925523D01*
X131802334Y-63918455D01*
X132467979Y-63252811D01*
X132474356Y-63241132D01*
X133204408Y-63241132D01*
X133204539Y-63242966D01*
X133208790Y-63249580D01*
X133878391Y-63919180D01*
X133890161Y-63925607D01*
X133902176Y-63916311D01*
X133930466Y-63875907D01*
X133935946Y-63866417D01*
X134024326Y-63676887D01*
X134028072Y-63666595D01*
X134082196Y-63464599D01*
X134084099Y-63453804D01*
X134102326Y-63245475D01*
X134102326Y-63234525D01*
X134084099Y-63026196D01*
X134082196Y-63015401D01*
X134028072Y-62813405D01*
X134024326Y-62803113D01*
X134005567Y-62762885D01*
X141283000Y-62762885D01*
X141287475Y-62778124D01*
X141288865Y-62779329D01*
X141296548Y-62781000D01*
X143042885Y-62781000D01*
X143058124Y-62776525D01*
X143059329Y-62775135D01*
X143061000Y-62767452D01*
X143061000Y-62762885D01*
X143569000Y-62762885D01*
X143573475Y-62778124D01*
X143574865Y-62779329D01*
X143582548Y-62781000D01*
X145328884Y-62781000D01*
X145344123Y-62776525D01*
X145345328Y-62775135D01*
X145346999Y-62767452D01*
X145346999Y-61466331D01*
X145346629Y-61459510D01*
X145341105Y-61408648D01*
X145337479Y-61393396D01*
X145292324Y-61272946D01*
X145283786Y-61257351D01*
X145207285Y-61155276D01*
X145194724Y-61142715D01*
X145092649Y-61066214D01*
X145077054Y-61057676D01*
X144956606Y-61012522D01*
X144941351Y-61008895D01*
X144890486Y-61003369D01*
X144883672Y-61003000D01*
X143587115Y-61003000D01*
X143571876Y-61007475D01*
X143570671Y-61008865D01*
X143569000Y-61016548D01*
X143569000Y-62762885D01*
X143061000Y-62762885D01*
X143061000Y-61021116D01*
X143056525Y-61005877D01*
X143055135Y-61004672D01*
X143047452Y-61003001D01*
X141746331Y-61003001D01*
X141739510Y-61003371D01*
X141688648Y-61008895D01*
X141673396Y-61012521D01*
X141552946Y-61057676D01*
X141537351Y-61066214D01*
X141435276Y-61142715D01*
X141422715Y-61155276D01*
X141346214Y-61257351D01*
X141337676Y-61272946D01*
X141292522Y-61393394D01*
X141288895Y-61408649D01*
X141283369Y-61459514D01*
X141283000Y-61466328D01*
X141283000Y-62762885D01*
X134005567Y-62762885D01*
X133935946Y-62613583D01*
X133930466Y-62604093D01*
X133901589Y-62562851D01*
X133891113Y-62554477D01*
X133877666Y-62561545D01*
X133212021Y-63227189D01*
X133204408Y-63241132D01*
X132474356Y-63241132D01*
X132475592Y-63238868D01*
X132475461Y-63237034D01*
X132471210Y-63230420D01*
X131801609Y-62560820D01*
X131789839Y-62554393D01*
X131777824Y-62563689D01*
X131749534Y-62604093D01*
X131744054Y-62613583D01*
X131655674Y-62803113D01*
X131651928Y-62813405D01*
X131597804Y-63015401D01*
X131595901Y-63026196D01*
X131577674Y-63234525D01*
X131577674Y-63245475D01*
X118574271Y-63245475D01*
X118698219Y-63096442D01*
X118701043Y-63091399D01*
X118701046Y-63091395D01*
X118798713Y-62916998D01*
X118798714Y-62916996D01*
X118801537Y-62911955D01*
X118803393Y-62906488D01*
X118803395Y-62906483D01*
X118867647Y-62717200D01*
X118869504Y-62711730D01*
X118881866Y-62626477D01*
X118899314Y-62506140D01*
X118899314Y-62506138D01*
X118899846Y-62502470D01*
X118901429Y-62442000D01*
X118882081Y-62231440D01*
X118870902Y-62191800D01*
X118870080Y-62188887D01*
X132154477Y-62188887D01*
X132161545Y-62202334D01*
X132827189Y-62867979D01*
X132841132Y-62875592D01*
X132842966Y-62875461D01*
X132849580Y-62871210D01*
X133519180Y-62201609D01*
X133525607Y-62189839D01*
X133516313Y-62177825D01*
X133475912Y-62149536D01*
X133466416Y-62144053D01*
X133276887Y-62055674D01*
X133266595Y-62051928D01*
X133064599Y-61997804D01*
X133053804Y-61995901D01*
X132845475Y-61977674D01*
X132834525Y-61977674D01*
X132626196Y-61995901D01*
X132615401Y-61997804D01*
X132413405Y-62051928D01*
X132403113Y-62055674D01*
X132213583Y-62144054D01*
X132204093Y-62149534D01*
X132162851Y-62178411D01*
X132154477Y-62188887D01*
X118870080Y-62188887D01*
X118857436Y-62144054D01*
X118824686Y-62027931D01*
X118815692Y-62009692D01*
X118733719Y-61843469D01*
X118731165Y-61838290D01*
X118621223Y-61691059D01*
X118608104Y-61673491D01*
X118608103Y-61673490D01*
X118604651Y-61668867D01*
X118449381Y-61525337D01*
X118270554Y-61412505D01*
X118074160Y-61334152D01*
X118068503Y-61333027D01*
X118068497Y-61333025D01*
X117872442Y-61294028D01*
X117872440Y-61294028D01*
X117866775Y-61292901D01*
X117861000Y-61292825D01*
X117860996Y-61292825D01*
X117754976Y-61291437D01*
X117655346Y-61290133D01*
X117649649Y-61291112D01*
X117649648Y-61291112D01*
X117452650Y-61324962D01*
X117452649Y-61324962D01*
X117446953Y-61325941D01*
X117248575Y-61399127D01*
X117243614Y-61402079D01*
X117243613Y-61402079D01*
X117083465Y-61497357D01*
X117066856Y-61507238D01*
X116907881Y-61646655D01*
X116776976Y-61812708D01*
X116774287Y-61817819D01*
X116774285Y-61817822D01*
X116700155Y-61958720D01*
X116650736Y-62009692D01*
X116581603Y-62025855D01*
X116514707Y-62002076D01*
X116473097Y-61950294D01*
X116408971Y-61802814D01*
X116404105Y-61793739D01*
X116339063Y-61693197D01*
X116328377Y-61683995D01*
X116318812Y-61688398D01*
X115544115Y-62463095D01*
X115481803Y-62497121D01*
X115455020Y-62500000D01*
X115200000Y-62500000D01*
X115200077Y-62513724D01*
X115200147Y-62526194D01*
X115201190Y-62711730D01*
X115201421Y-62752889D01*
X115181802Y-62821121D01*
X115164518Y-62842692D01*
X114452737Y-63554473D01*
X114445977Y-63566853D01*
X114451258Y-63573907D01*
X114612756Y-63668279D01*
X114622046Y-63672730D01*
X114706328Y-63704914D01*
X114762832Y-63747901D01*
X114787125Y-63814612D01*
X114771495Y-63883867D01*
X114715628Y-63936348D01*
X114713990Y-63937129D01*
X114708575Y-63939127D01*
X114703613Y-63942079D01*
X114703611Y-63942080D01*
X114531821Y-64044284D01*
X114526856Y-64047238D01*
X114367881Y-64186655D01*
X114236976Y-64352708D01*
X114234287Y-64357819D01*
X114234285Y-64357822D01*
X114222088Y-64381005D01*
X114138523Y-64539836D01*
X114075820Y-64741773D01*
X114050967Y-64951754D01*
X114064796Y-65162749D01*
X114066217Y-65168345D01*
X114066218Y-65168350D01*
X114088784Y-65257200D01*
X114116845Y-65367690D01*
X114205369Y-65559714D01*
X114327405Y-65732391D01*
X114396973Y-65800161D01*
X114469288Y-65870607D01*
X114478865Y-65879937D01*
X114483661Y-65883142D01*
X114483664Y-65883144D01*
X114589088Y-65953586D01*
X114654677Y-65997411D01*
X114659980Y-65999690D01*
X114659985Y-65999692D01*
X114694818Y-66014657D01*
X114712768Y-66022369D01*
X114767460Y-66067636D01*
X114788998Y-66135287D01*
X114770541Y-66203842D01*
X114717951Y-66251537D01*
X114702175Y-66257901D01*
X114682868Y-66264212D01*
X114673359Y-66268209D01*
X114484466Y-66366540D01*
X114475734Y-66372039D01*
X114455677Y-66387099D01*
X114447223Y-66398427D01*
X114453968Y-66410758D01*
X115189698Y-67146488D01*
X115223724Y-67208800D01*
X115226601Y-67234873D01*
X115228646Y-67598963D01*
X115209028Y-67667193D01*
X115155635Y-67713987D01*
X115085418Y-67724485D01*
X115020673Y-67695356D01*
X115013554Y-67688764D01*
X114095849Y-66771059D01*
X114084313Y-66764759D01*
X114072031Y-66774382D01*
X114024089Y-66844662D01*
X114019004Y-66853613D01*
X113929338Y-67046783D01*
X113925775Y-67056470D01*
X113868864Y-67261681D01*
X113866933Y-67271800D01*
X113844302Y-67483574D01*
X113844050Y-67493863D01*
X113856309Y-67706477D01*
X113857745Y-67716697D01*
X113904565Y-67924446D01*
X113907645Y-67934275D01*
X113973966Y-68097607D01*
X113981062Y-68168248D01*
X113948840Y-68231512D01*
X113887530Y-68267312D01*
X113857223Y-68271011D01*
X112549755Y-68271011D01*
X112481634Y-68251009D01*
X112458934Y-68231509D01*
X112457801Y-68229860D01*
X112437299Y-68211593D01*
X112336881Y-68122123D01*
X112336877Y-68122121D01*
X112331210Y-68117071D01*
X112181370Y-68037735D01*
X112016930Y-67996430D01*
X112009332Y-67996390D01*
X112009330Y-67996390D01*
X111932157Y-67995986D01*
X111847384Y-67995542D01*
X111839997Y-67997316D01*
X111839993Y-67997316D01*
X111720995Y-68025886D01*
X111682521Y-68035123D01*
X111675777Y-68038604D01*
X111675774Y-68038605D01*
X111538606Y-68109403D01*
X111531858Y-68112886D01*
X111404093Y-68224342D01*
X111390613Y-68243522D01*
X111320908Y-68342703D01*
X111306602Y-68363058D01*
X111245013Y-68521024D01*
X111244021Y-68528557D01*
X111244021Y-68528558D01*
X111224426Y-68677403D01*
X111222883Y-68689122D01*
X111241488Y-68857646D01*
X111244098Y-68864777D01*
X111295313Y-69004728D01*
X111299755Y-69016867D01*
X111303991Y-69023170D01*
X111303991Y-69023171D01*
X111386083Y-69145337D01*
X111394319Y-69157594D01*
X111399939Y-69162708D01*
X111402925Y-69166167D01*
X111432296Y-69230804D01*
X111422060Y-69301058D01*
X111375466Y-69354626D01*
X111307545Y-69374500D01*
X109078438Y-69374500D01*
X109010317Y-69354498D01*
X108989343Y-69337595D01*
X105588925Y-65937177D01*
X105554899Y-65874865D01*
X105553277Y-65830329D01*
X105554909Y-65818863D01*
X105554909Y-65818857D01*
X105555490Y-65814778D01*
X105555645Y-65800000D01*
X105553840Y-65785080D01*
X105536188Y-65639220D01*
X105535276Y-65631680D01*
X105475345Y-65473077D01*
X105379312Y-65333349D01*
X105367514Y-65322837D01*
X105258392Y-65225612D01*
X105258388Y-65225610D01*
X105252721Y-65220560D01*
X105102881Y-65141224D01*
X104938441Y-65099919D01*
X104930843Y-65099879D01*
X104930841Y-65099879D01*
X104853668Y-65099475D01*
X104768895Y-65099031D01*
X104761508Y-65100805D01*
X104761504Y-65100805D01*
X104618162Y-65135220D01*
X104604032Y-65138612D01*
X104597288Y-65142093D01*
X104597285Y-65142094D01*
X104460117Y-65212892D01*
X104453369Y-65216375D01*
X104447647Y-65221367D01*
X104447645Y-65221368D01*
X104406570Y-65257200D01*
X104325604Y-65327831D01*
X104228113Y-65466547D01*
X104166524Y-65624513D01*
X104165532Y-65632046D01*
X104165532Y-65632047D01*
X104151792Y-65736418D01*
X104144394Y-65792611D01*
X104162999Y-65961135D01*
X104175100Y-65994201D01*
X104210640Y-66091318D01*
X104221266Y-66120356D01*
X104225502Y-66126659D01*
X104225502Y-66126660D01*
X104230962Y-66134785D01*
X104315830Y-66261083D01*
X104321442Y-66266190D01*
X104321445Y-66266193D01*
X104435612Y-66370077D01*
X104435616Y-66370080D01*
X104441233Y-66375191D01*
X104447906Y-66378814D01*
X104447910Y-66378817D01*
X104583558Y-66452467D01*
X104583560Y-66452468D01*
X104590235Y-66456092D01*
X104597584Y-66458020D01*
X104746883Y-66497188D01*
X104746885Y-66497188D01*
X104754233Y-66499116D01*
X104839172Y-66500450D01*
X104899422Y-66501397D01*
X104967220Y-66522466D01*
X104986538Y-66538286D01*
X108596780Y-70148528D01*
X108618163Y-70159423D01*
X108635009Y-70169747D01*
X108654419Y-70183849D01*
X108663850Y-70186913D01*
X108663853Y-70186915D01*
X108677237Y-70191264D01*
X108695498Y-70198828D01*
X108708036Y-70205216D01*
X108716874Y-70209719D01*
X108740571Y-70213472D01*
X108759790Y-70218086D01*
X108782607Y-70225500D01*
X111871562Y-70225500D01*
X111939683Y-70245502D01*
X111960657Y-70262405D01*
X112763251Y-71064999D01*
X112797277Y-71127311D01*
X112792212Y-71198126D01*
X112749665Y-71254962D01*
X112683145Y-71279773D01*
X112643460Y-71276298D01*
X112545810Y-71251770D01*
X112538441Y-71249919D01*
X112530843Y-71249879D01*
X112530841Y-71249879D01*
X112453668Y-71249475D01*
X112368895Y-71249031D01*
X112361508Y-71250805D01*
X112361504Y-71250805D01*
X112255322Y-71276298D01*
X112204032Y-71288612D01*
X112197288Y-71292093D01*
X112197285Y-71292094D01*
X112168086Y-71307165D01*
X112053369Y-71366375D01*
X112047647Y-71371367D01*
X112047645Y-71371368D01*
X111954182Y-71452901D01*
X111925604Y-71477831D01*
X111921918Y-71483076D01*
X111861905Y-71520049D01*
X111828713Y-71524500D01*
X110756613Y-71524500D01*
X110688492Y-71504498D01*
X110641999Y-71450842D01*
X110631870Y-71380747D01*
X110654909Y-71218862D01*
X110654909Y-71218859D01*
X110655490Y-71214778D01*
X110655645Y-71200000D01*
X110653840Y-71185080D01*
X110650160Y-71154673D01*
X110635276Y-71031680D01*
X110575345Y-70873077D01*
X110563490Y-70855828D01*
X110483614Y-70739608D01*
X110483613Y-70739607D01*
X110479312Y-70733349D01*
X110473119Y-70727831D01*
X110358392Y-70625612D01*
X110358388Y-70625610D01*
X110352721Y-70620560D01*
X110319666Y-70603058D01*
X110258969Y-70570921D01*
X110202881Y-70541224D01*
X110038441Y-70499919D01*
X110030843Y-70499879D01*
X110030841Y-70499879D01*
X109953668Y-70499475D01*
X109868895Y-70499031D01*
X109861508Y-70500805D01*
X109861504Y-70500805D01*
X109731760Y-70531955D01*
X109704032Y-70538612D01*
X109697288Y-70542093D01*
X109697285Y-70542094D01*
X109579170Y-70603058D01*
X109553369Y-70616375D01*
X109547647Y-70621367D01*
X109547645Y-70621368D01*
X109433563Y-70720888D01*
X109425604Y-70727831D01*
X109421918Y-70733076D01*
X109361905Y-70770049D01*
X109328713Y-70774500D01*
X104071266Y-70774500D01*
X104003145Y-70754498D01*
X103980445Y-70734998D01*
X103979312Y-70733349D01*
X103973119Y-70727831D01*
X103858392Y-70625612D01*
X103858388Y-70625610D01*
X103852721Y-70620560D01*
X103819666Y-70603058D01*
X103758969Y-70570921D01*
X103702881Y-70541224D01*
X103538441Y-70499919D01*
X103530843Y-70499879D01*
X103530841Y-70499879D01*
X103453668Y-70499475D01*
X103368895Y-70499031D01*
X103361508Y-70500805D01*
X103361504Y-70500805D01*
X103231760Y-70531955D01*
X103204032Y-70538612D01*
X103197288Y-70542093D01*
X103197285Y-70542094D01*
X103079170Y-70603058D01*
X103053369Y-70616375D01*
X102925604Y-70727831D01*
X102828113Y-70866547D01*
X102795339Y-70950607D01*
X102770538Y-71014219D01*
X102766524Y-71024513D01*
X102765532Y-71032046D01*
X102765532Y-71032047D01*
X102746953Y-71173174D01*
X102744394Y-71192611D01*
X102755281Y-71291224D01*
X102758771Y-71322834D01*
X102762999Y-71361135D01*
X102765610Y-71368270D01*
X102765952Y-71369728D01*
X102762034Y-71440616D01*
X102720412Y-71498133D01*
X102654302Y-71524017D01*
X102643281Y-71524500D01*
X102132607Y-71524500D01*
X102123180Y-71527563D01*
X102123173Y-71527564D01*
X102109788Y-71531913D01*
X102090569Y-71536527D01*
X102076672Y-71538728D01*
X102076665Y-71538730D01*
X102066874Y-71540281D01*
X102045498Y-71551173D01*
X102027237Y-71558736D01*
X102004419Y-71566150D01*
X101996397Y-71571979D01*
X101996396Y-71571979D01*
X101985011Y-71580251D01*
X101968156Y-71590581D01*
X101946780Y-71601472D01*
X100701472Y-72846780D01*
X100690577Y-72868163D01*
X100680253Y-72885009D01*
X100666151Y-72904419D01*
X100663087Y-72913850D01*
X100663085Y-72913853D01*
X100658736Y-72927237D01*
X100651172Y-72945498D01*
X100640281Y-72966874D01*
X100638730Y-72976668D01*
X100636528Y-72990570D01*
X100631914Y-73009790D01*
X100624500Y-73032607D01*
X100624500Y-74484270D01*
X100604498Y-74552391D01*
X100581329Y-74579219D01*
X100525604Y-74627831D01*
X100521237Y-74634045D01*
X100442958Y-74745425D01*
X100428113Y-74766547D01*
X100366524Y-74924513D01*
X100365532Y-74932046D01*
X100365532Y-74932047D01*
X100348948Y-75058022D01*
X100344394Y-75092611D01*
X89118404Y-75092611D01*
X89110214Y-75003489D01*
X89105121Y-74948056D01*
X89105120Y-74948053D01*
X89104592Y-74942302D01*
X89102175Y-74933729D01*
X89046819Y-74737454D01*
X89046818Y-74737452D01*
X89045251Y-74731895D01*
X89040741Y-74722749D01*
X88951116Y-74541005D01*
X88951113Y-74541001D01*
X88948561Y-74535825D01*
X88935118Y-74517822D01*
X88821211Y-74365283D01*
X88821210Y-74365282D01*
X88817758Y-74360659D01*
X88686386Y-74239220D01*
X88661464Y-74216182D01*
X88661461Y-74216180D01*
X88657224Y-74212263D01*
X88472335Y-74095607D01*
X88269284Y-74014598D01*
X88260562Y-74012863D01*
X88259582Y-74012668D01*
X88196674Y-73979757D01*
X88161546Y-73918060D01*
X88165349Y-73847165D01*
X88206878Y-73789581D01*
X88243667Y-73769778D01*
X88415886Y-73711318D01*
X88606627Y-73604498D01*
X88774707Y-73464707D01*
X88914498Y-73296627D01*
X89021318Y-73105886D01*
X89044810Y-73036680D01*
X89089733Y-72904342D01*
X89089734Y-72904337D01*
X89091589Y-72898873D01*
X89092417Y-72893164D01*
X89092418Y-72893159D01*
X89122426Y-72686194D01*
X89122959Y-72682520D01*
X89124596Y-72620000D01*
X89106920Y-72427634D01*
X89105121Y-72408056D01*
X89105120Y-72408053D01*
X89104592Y-72402302D01*
X89102675Y-72395502D01*
X89046819Y-72197454D01*
X89046818Y-72197452D01*
X89045251Y-72191895D01*
X89040741Y-72182749D01*
X88951116Y-72001005D01*
X88951113Y-72001001D01*
X88948561Y-71995825D01*
X88917740Y-71954550D01*
X88821211Y-71825283D01*
X88821210Y-71825282D01*
X88817758Y-71820659D01*
X88708592Y-71719747D01*
X88661464Y-71676182D01*
X88661461Y-71676180D01*
X88657224Y-71672263D01*
X88472335Y-71555607D01*
X88269284Y-71474598D01*
X88260416Y-71472834D01*
X88259582Y-71472668D01*
X88196674Y-71439757D01*
X88161546Y-71378060D01*
X88165349Y-71307165D01*
X88206878Y-71249581D01*
X88243667Y-71229778D01*
X88415886Y-71171318D01*
X88606627Y-71064498D01*
X88774707Y-70924707D01*
X88914498Y-70756627D01*
X89021318Y-70565886D01*
X89037376Y-70518580D01*
X89089733Y-70364342D01*
X89089734Y-70364337D01*
X89091589Y-70358873D01*
X89092417Y-70353164D01*
X89092418Y-70353159D01*
X89112991Y-70211270D01*
X89122959Y-70142520D01*
X89124596Y-70080000D01*
X89104592Y-69862302D01*
X89101980Y-69853038D01*
X89046819Y-69657454D01*
X89046818Y-69657452D01*
X89045251Y-69651895D01*
X89032163Y-69625354D01*
X88951116Y-69461005D01*
X88951113Y-69461001D01*
X88948561Y-69455825D01*
X88935118Y-69437822D01*
X88821211Y-69285283D01*
X88821210Y-69285282D01*
X88817758Y-69280659D01*
X88684627Y-69157594D01*
X88661464Y-69136182D01*
X88661461Y-69136180D01*
X88657224Y-69132263D01*
X88472335Y-69015607D01*
X88269284Y-68934598D01*
X88260562Y-68932863D01*
X88259582Y-68932668D01*
X88196674Y-68899757D01*
X88161546Y-68838060D01*
X88165349Y-68767165D01*
X88206878Y-68709581D01*
X88243667Y-68689778D01*
X88415886Y-68631318D01*
X88606627Y-68524498D01*
X88774707Y-68384707D01*
X88907694Y-68224808D01*
X88910807Y-68221065D01*
X88914498Y-68216627D01*
X89021318Y-68025886D01*
X89091589Y-67818873D01*
X89092417Y-67813164D01*
X89092418Y-67813159D01*
X89114438Y-67661290D01*
X89122959Y-67602520D01*
X89124596Y-67540000D01*
X89104592Y-67322302D01*
X89099960Y-67305876D01*
X89046819Y-67117454D01*
X89046818Y-67117452D01*
X89045251Y-67111895D01*
X88994127Y-67008224D01*
X88951116Y-66921005D01*
X88951113Y-66921001D01*
X88948561Y-66915825D01*
X88864010Y-66802597D01*
X88821211Y-66745283D01*
X88821210Y-66745282D01*
X88817758Y-66740659D01*
X88675608Y-66609257D01*
X88661464Y-66596182D01*
X88661461Y-66596180D01*
X88657224Y-66592263D01*
X88472335Y-66475607D01*
X88309789Y-66410758D01*
X88274648Y-66396738D01*
X88269284Y-66394598D01*
X88260562Y-66392863D01*
X88259582Y-66392668D01*
X88196674Y-66359757D01*
X88161546Y-66298060D01*
X88165349Y-66227165D01*
X88206878Y-66169581D01*
X88243667Y-66149778D01*
X88415886Y-66091318D01*
X88606627Y-65984498D01*
X88774707Y-65844707D01*
X88914498Y-65676627D01*
X89021318Y-65485886D01*
X89063339Y-65362095D01*
X89089733Y-65284342D01*
X89089734Y-65284337D01*
X89091589Y-65278873D01*
X89092417Y-65273164D01*
X89092418Y-65273159D01*
X89122309Y-65067000D01*
X89122959Y-65062520D01*
X89124596Y-65000000D01*
X89104592Y-64782302D01*
X89099960Y-64765876D01*
X89046819Y-64577454D01*
X89046818Y-64577452D01*
X89045251Y-64571895D01*
X89032163Y-64545354D01*
X88951116Y-64381005D01*
X88951113Y-64381001D01*
X88948561Y-64375825D01*
X88935118Y-64357822D01*
X88821211Y-64205283D01*
X88821210Y-64205282D01*
X88817758Y-64200659D01*
X88675608Y-64069257D01*
X88661464Y-64056182D01*
X88661461Y-64056180D01*
X88657224Y-64052263D01*
X88472335Y-63935607D01*
X88269284Y-63854598D01*
X88260562Y-63852863D01*
X88259582Y-63852668D01*
X88196674Y-63819757D01*
X88161546Y-63758060D01*
X88165349Y-63687165D01*
X88206878Y-63629581D01*
X88243667Y-63609778D01*
X88415886Y-63551318D01*
X88606627Y-63444498D01*
X88774707Y-63304707D01*
X88914498Y-63136627D01*
X89021318Y-62945886D01*
X89041816Y-62885500D01*
X89089733Y-62744342D01*
X89089734Y-62744337D01*
X89091589Y-62738873D01*
X89092417Y-62733164D01*
X89092418Y-62733159D01*
X89117111Y-62562851D01*
X89122959Y-62522520D01*
X89124596Y-62460000D01*
X89123917Y-62452611D01*
X104944394Y-62452611D01*
X104962999Y-62621135D01*
X104968694Y-62636697D01*
X105016544Y-62767452D01*
X105021266Y-62780356D01*
X105025502Y-62786659D01*
X105025502Y-62786660D01*
X105036558Y-62803113D01*
X105115830Y-62921083D01*
X105121442Y-62926190D01*
X105121445Y-62926193D01*
X105235612Y-63030077D01*
X105235616Y-63030080D01*
X105241233Y-63035191D01*
X105247906Y-63038814D01*
X105247910Y-63038817D01*
X105383558Y-63112467D01*
X105383560Y-63112468D01*
X105390235Y-63116092D01*
X105397584Y-63118020D01*
X105546883Y-63157188D01*
X105546885Y-63157188D01*
X105554233Y-63159116D01*
X105640609Y-63160473D01*
X105716161Y-63161660D01*
X105716164Y-63161660D01*
X105723760Y-63161779D01*
X105731165Y-63160083D01*
X105731166Y-63160083D01*
X105791586Y-63146245D01*
X105889029Y-63123928D01*
X106040498Y-63047747D01*
X106169423Y-62937634D01*
X106173854Y-62931467D01*
X106178684Y-62926215D01*
X106239516Y-62889609D01*
X106271433Y-62885500D01*
X108918634Y-62885500D01*
X108986755Y-62905502D01*
X109005331Y-62921631D01*
X109005830Y-62921083D01*
X109125612Y-63030077D01*
X109125616Y-63030080D01*
X109131233Y-63035191D01*
X109137906Y-63038814D01*
X109137910Y-63038817D01*
X109273558Y-63112467D01*
X109273560Y-63112468D01*
X109280235Y-63116092D01*
X109287584Y-63118020D01*
X109436883Y-63157188D01*
X109436885Y-63157188D01*
X109444233Y-63159116D01*
X109530609Y-63160473D01*
X109606161Y-63161660D01*
X109606164Y-63161660D01*
X109613760Y-63161779D01*
X109621165Y-63160083D01*
X109621166Y-63160083D01*
X109681586Y-63146245D01*
X109779029Y-63123928D01*
X109930498Y-63047747D01*
X110059423Y-62937634D01*
X110158361Y-62799947D01*
X110166237Y-62780356D01*
X110218766Y-62649687D01*
X110218767Y-62649685D01*
X110221601Y-62642634D01*
X110232956Y-62562851D01*
X110244909Y-62478862D01*
X110244909Y-62478859D01*
X110245490Y-62474778D01*
X110245645Y-62460000D01*
X110243840Y-62445080D01*
X110240062Y-62413863D01*
X113844050Y-62413863D01*
X113856309Y-62626477D01*
X113857745Y-62636697D01*
X113904565Y-62844446D01*
X113907645Y-62854275D01*
X113987770Y-63051603D01*
X113992413Y-63060794D01*
X114072460Y-63191420D01*
X114082916Y-63200880D01*
X114091694Y-63197096D01*
X114833978Y-62454812D01*
X114841592Y-62440868D01*
X114841461Y-62439035D01*
X114837210Y-62432420D01*
X114095849Y-61691059D01*
X114084313Y-61684759D01*
X114072031Y-61694382D01*
X114024089Y-61764662D01*
X114019004Y-61773613D01*
X113929338Y-61966783D01*
X113925775Y-61976470D01*
X113868864Y-62181681D01*
X113866933Y-62191800D01*
X113844302Y-62403574D01*
X113844050Y-62413863D01*
X110240062Y-62413863D01*
X110226188Y-62299220D01*
X110225276Y-62291680D01*
X110165345Y-62133077D01*
X110112147Y-62055674D01*
X110073614Y-61999608D01*
X110073613Y-61999607D01*
X110069312Y-61993349D01*
X110057514Y-61982837D01*
X109948392Y-61885612D01*
X109948388Y-61885610D01*
X109942721Y-61880560D01*
X109792881Y-61801224D01*
X109628441Y-61759919D01*
X109620843Y-61759879D01*
X109620841Y-61759879D01*
X109543668Y-61759475D01*
X109458895Y-61759031D01*
X109451508Y-61760805D01*
X109451504Y-61760805D01*
X109314329Y-61793739D01*
X109294032Y-61798612D01*
X109287288Y-61802093D01*
X109287285Y-61802094D01*
X109221933Y-61835825D01*
X109143369Y-61876375D01*
X109137647Y-61881367D01*
X109137645Y-61881368D01*
X109039732Y-61966783D01*
X109015604Y-61987831D01*
X109011918Y-61993076D01*
X108951905Y-62030049D01*
X108918713Y-62034500D01*
X106271266Y-62034500D01*
X106203145Y-62014498D01*
X106180445Y-61994998D01*
X106179312Y-61993349D01*
X106167514Y-61982837D01*
X106058392Y-61885612D01*
X106058388Y-61885610D01*
X106052721Y-61880560D01*
X105902881Y-61801224D01*
X105738441Y-61759919D01*
X105730843Y-61759879D01*
X105730841Y-61759879D01*
X105653668Y-61759475D01*
X105568895Y-61759031D01*
X105561508Y-61760805D01*
X105561504Y-61760805D01*
X105424329Y-61793739D01*
X105404032Y-61798612D01*
X105397288Y-61802093D01*
X105397285Y-61802094D01*
X105331933Y-61835825D01*
X105253369Y-61876375D01*
X105125604Y-61987831D01*
X105028113Y-62126547D01*
X104966524Y-62284513D01*
X104965532Y-62292046D01*
X104965532Y-62292047D01*
X104945791Y-62442000D01*
X104944394Y-62452611D01*
X89123917Y-62452611D01*
X89104592Y-62242302D01*
X89099960Y-62225876D01*
X89046819Y-62037454D01*
X89046818Y-62037452D01*
X89045251Y-62031895D01*
X89042697Y-62026715D01*
X88951116Y-61841005D01*
X88951113Y-61841001D01*
X88948561Y-61835825D01*
X88935118Y-61817822D01*
X88821211Y-61665283D01*
X88821210Y-61665282D01*
X88817758Y-61660659D01*
X88675608Y-61529257D01*
X88661464Y-61516182D01*
X88661461Y-61516180D01*
X88657224Y-61512263D01*
X88472335Y-61395607D01*
X88295262Y-61324962D01*
X88278882Y-61318427D01*
X114447223Y-61318427D01*
X114453968Y-61330758D01*
X115193188Y-62069978D01*
X115207132Y-62077592D01*
X115208965Y-62077461D01*
X115215580Y-62073210D01*
X115959389Y-61329401D01*
X115966410Y-61316544D01*
X115959611Y-61307213D01*
X115955554Y-61304518D01*
X115769117Y-61201599D01*
X115759705Y-61197369D01*
X115558959Y-61126280D01*
X115548989Y-61123646D01*
X115339327Y-61086301D01*
X115329073Y-61085331D01*
X115116116Y-61082728D01*
X115105832Y-61083448D01*
X114895321Y-61115661D01*
X114885293Y-61118050D01*
X114682868Y-61184212D01*
X114673359Y-61188209D01*
X114484466Y-61286540D01*
X114475734Y-61292039D01*
X114455677Y-61307099D01*
X114447223Y-61318427D01*
X88278882Y-61318427D01*
X88274648Y-61316738D01*
X88269284Y-61314598D01*
X88260562Y-61312863D01*
X88259582Y-61312668D01*
X88196674Y-61279757D01*
X88161546Y-61218060D01*
X88165349Y-61147165D01*
X88206878Y-61089581D01*
X88243667Y-61069778D01*
X88415886Y-61011318D01*
X88606627Y-60904498D01*
X88774707Y-60764707D01*
X88914498Y-60596627D01*
X89021318Y-60405886D01*
X89037233Y-60359002D01*
X89089733Y-60204342D01*
X89089734Y-60204337D01*
X89091589Y-60198873D01*
X89092417Y-60193164D01*
X89092418Y-60193159D01*
X89122426Y-59986194D01*
X89122959Y-59982520D01*
X89124004Y-59942611D01*
X104894394Y-59942611D01*
X104912999Y-60111135D01*
X104971266Y-60270356D01*
X105065830Y-60411083D01*
X105071442Y-60416190D01*
X105071445Y-60416193D01*
X105185612Y-60520077D01*
X105185616Y-60520080D01*
X105191233Y-60525191D01*
X105197906Y-60528814D01*
X105197910Y-60528817D01*
X105333558Y-60602467D01*
X105333560Y-60602468D01*
X105340235Y-60606092D01*
X105347584Y-60608020D01*
X105496883Y-60647188D01*
X105496885Y-60647188D01*
X105504233Y-60649116D01*
X105590609Y-60650473D01*
X105666161Y-60651660D01*
X105666164Y-60651660D01*
X105673760Y-60651779D01*
X105681165Y-60650083D01*
X105681166Y-60650083D01*
X105741586Y-60636245D01*
X105839029Y-60613928D01*
X105990498Y-60537747D01*
X106119423Y-60427634D01*
X106155109Y-60377971D01*
X106211101Y-60334326D01*
X106257429Y-60325500D01*
X108978634Y-60325500D01*
X109046755Y-60345502D01*
X109065331Y-60361631D01*
X109065830Y-60361083D01*
X109185612Y-60470077D01*
X109185616Y-60470080D01*
X109191233Y-60475191D01*
X109197906Y-60478814D01*
X109197910Y-60478817D01*
X109333558Y-60552467D01*
X109333560Y-60552468D01*
X109340235Y-60556092D01*
X109347584Y-60558020D01*
X109496883Y-60597188D01*
X109496885Y-60597188D01*
X109504233Y-60599116D01*
X109590609Y-60600473D01*
X109666161Y-60601660D01*
X109666164Y-60601660D01*
X109673760Y-60601779D01*
X109681165Y-60600083D01*
X109681166Y-60600083D01*
X109741586Y-60586245D01*
X109839029Y-60563928D01*
X109990498Y-60487747D01*
X110069713Y-60420090D01*
X110113651Y-60382564D01*
X110113652Y-60382563D01*
X110119423Y-60377634D01*
X110218361Y-60239947D01*
X110270144Y-60111135D01*
X110278766Y-60089687D01*
X110278767Y-60089685D01*
X110281601Y-60082634D01*
X110296377Y-59978811D01*
X110304909Y-59918862D01*
X110304909Y-59918859D01*
X110305490Y-59914778D01*
X110305645Y-59900000D01*
X110285276Y-59731680D01*
X110225345Y-59573077D01*
X110221044Y-59566819D01*
X110133614Y-59439608D01*
X110133613Y-59439607D01*
X110129312Y-59433349D01*
X110123119Y-59427831D01*
X110008392Y-59325612D01*
X110008388Y-59325610D01*
X110002721Y-59320560D01*
X109954024Y-59294776D01*
X109935080Y-59284746D01*
X109852881Y-59241224D01*
X109688441Y-59199919D01*
X109680843Y-59199879D01*
X109680841Y-59199879D01*
X109603668Y-59199475D01*
X109518895Y-59199031D01*
X109511508Y-59200805D01*
X109511504Y-59200805D01*
X109368162Y-59235220D01*
X109354032Y-59238612D01*
X109347288Y-59242093D01*
X109347285Y-59242094D01*
X109245216Y-59294776D01*
X109203369Y-59316375D01*
X109197647Y-59321367D01*
X109197645Y-59321368D01*
X109145328Y-59367007D01*
X109075604Y-59427831D01*
X109071918Y-59433076D01*
X109011905Y-59470049D01*
X108978713Y-59474500D01*
X106167369Y-59474500D01*
X106099248Y-59454498D01*
X106083550Y-59442576D01*
X106008392Y-59375613D01*
X106002721Y-59370560D01*
X105852881Y-59291224D01*
X105688441Y-59249919D01*
X105680843Y-59249879D01*
X105680841Y-59249879D01*
X105603668Y-59249475D01*
X105518895Y-59249031D01*
X105511508Y-59250805D01*
X105511504Y-59250805D01*
X105368162Y-59285220D01*
X105354032Y-59288612D01*
X105347288Y-59292093D01*
X105347285Y-59292094D01*
X105210117Y-59362892D01*
X105203369Y-59366375D01*
X105197647Y-59371367D01*
X105197645Y-59371368D01*
X105132920Y-59427831D01*
X105075604Y-59477831D01*
X104978113Y-59616547D01*
X104916524Y-59774513D01*
X104915532Y-59782046D01*
X104915532Y-59782047D01*
X104897371Y-59920000D01*
X104894394Y-59942611D01*
X89124004Y-59942611D01*
X89124596Y-59920000D01*
X89110577Y-59767434D01*
X89105121Y-59708056D01*
X89105120Y-59708053D01*
X89104592Y-59702302D01*
X89082404Y-59623627D01*
X89046819Y-59497454D01*
X89046818Y-59497452D01*
X89045251Y-59491895D01*
X89041380Y-59484045D01*
X88951116Y-59301005D01*
X88951113Y-59301001D01*
X88948561Y-59295825D01*
X88915664Y-59251770D01*
X88821211Y-59125283D01*
X88821210Y-59125282D01*
X88817758Y-59120659D01*
X88657224Y-58972263D01*
X88472335Y-58855607D01*
X88269284Y-58774598D01*
X88260562Y-58772863D01*
X88259582Y-58772668D01*
X88196674Y-58739757D01*
X88161546Y-58678060D01*
X88165349Y-58607165D01*
X88206878Y-58549581D01*
X88243667Y-58529778D01*
X88415886Y-58471318D01*
X88606627Y-58364498D01*
X88774707Y-58224707D01*
X88914498Y-58056627D01*
X89021318Y-57865886D01*
X89091589Y-57658873D01*
X89092417Y-57653164D01*
X89092418Y-57653159D01*
X89122426Y-57446194D01*
X89122959Y-57442520D01*
X89124596Y-57380000D01*
X89110619Y-57227889D01*
X89105121Y-57168056D01*
X89105120Y-57168053D01*
X89104592Y-57162302D01*
X89102985Y-57156602D01*
X89046819Y-56957454D01*
X89046818Y-56957452D01*
X89045251Y-56951895D01*
X89042697Y-56946715D01*
X88951116Y-56761005D01*
X88951113Y-56761001D01*
X88948561Y-56755825D01*
X88817758Y-56580659D01*
X88710972Y-56481947D01*
X88661464Y-56436182D01*
X88661461Y-56436180D01*
X88657224Y-56432263D01*
X88472335Y-56315607D01*
X88269284Y-56234598D01*
X88260562Y-56232863D01*
X88259582Y-56232668D01*
X88196674Y-56199757D01*
X88161546Y-56138060D01*
X88165349Y-56067165D01*
X88206878Y-56009581D01*
X88238404Y-55992611D01*
X101544394Y-55992611D01*
X101562999Y-56161135D01*
X101589177Y-56232668D01*
X101613735Y-56299776D01*
X101621266Y-56320356D01*
X101625502Y-56326659D01*
X101625502Y-56326660D01*
X101637670Y-56344768D01*
X101715830Y-56461083D01*
X101721442Y-56466190D01*
X101721445Y-56466193D01*
X101835612Y-56570077D01*
X101835616Y-56570080D01*
X101841233Y-56575191D01*
X101847906Y-56578814D01*
X101847910Y-56578817D01*
X101983558Y-56652467D01*
X101983560Y-56652468D01*
X101990235Y-56656092D01*
X101997584Y-56658020D01*
X102146883Y-56697188D01*
X102146885Y-56697188D01*
X102154233Y-56699116D01*
X102240609Y-56700473D01*
X102316161Y-56701660D01*
X102316164Y-56701660D01*
X102323760Y-56701779D01*
X102331165Y-56700083D01*
X102331166Y-56700083D01*
X102391586Y-56686245D01*
X102489029Y-56663928D01*
X102640498Y-56587747D01*
X102769423Y-56477634D01*
X102868361Y-56339947D01*
X102879006Y-56313467D01*
X102928766Y-56189687D01*
X102928767Y-56189685D01*
X102931601Y-56182634D01*
X102955490Y-56014778D01*
X102955645Y-56000000D01*
X102953840Y-55985080D01*
X102947558Y-55933174D01*
X102935276Y-55831680D01*
X102875345Y-55673077D01*
X102828557Y-55605000D01*
X102783614Y-55539608D01*
X102783613Y-55539607D01*
X102779312Y-55533349D01*
X102717679Y-55478436D01*
X102680125Y-55418186D01*
X102675500Y-55384361D01*
X102675500Y-54615939D01*
X102695502Y-54547818D01*
X102719669Y-54520128D01*
X102763651Y-54482564D01*
X102763652Y-54482563D01*
X102769423Y-54477634D01*
X102868361Y-54339947D01*
X102876237Y-54320356D01*
X102928766Y-54189687D01*
X102928767Y-54189685D01*
X102931601Y-54182634D01*
X102942220Y-54108020D01*
X102954909Y-54018862D01*
X102954909Y-54018859D01*
X102955490Y-54014778D01*
X102955645Y-54000000D01*
X102953840Y-53985080D01*
X102950212Y-53955108D01*
X102935276Y-53831680D01*
X102912956Y-53772611D01*
X128014394Y-53772611D01*
X128032999Y-53941135D01*
X128091266Y-54100356D01*
X128095502Y-54106659D01*
X128095502Y-54106660D01*
X128108574Y-54126113D01*
X128185830Y-54241083D01*
X128191442Y-54246190D01*
X128191445Y-54246193D01*
X128305612Y-54350077D01*
X128305616Y-54350080D01*
X128311233Y-54355191D01*
X128317906Y-54358814D01*
X128317910Y-54358817D01*
X128453558Y-54432467D01*
X128453560Y-54432468D01*
X128460235Y-54436092D01*
X128467584Y-54438020D01*
X128616883Y-54477188D01*
X128616885Y-54477188D01*
X128624233Y-54479116D01*
X128710609Y-54480473D01*
X128786161Y-54481660D01*
X128786164Y-54481660D01*
X128793760Y-54481779D01*
X128801165Y-54480083D01*
X128801166Y-54480083D01*
X128884125Y-54461083D01*
X128959029Y-54443928D01*
X129110498Y-54367747D01*
X129239423Y-54257634D01*
X129338361Y-54119947D01*
X129346237Y-54100356D01*
X129398766Y-53969687D01*
X129398767Y-53969685D01*
X129401601Y-53962634D01*
X129413417Y-53879609D01*
X129424909Y-53798862D01*
X129424909Y-53798859D01*
X129425490Y-53794778D01*
X129425645Y-53780000D01*
X129425114Y-53775607D01*
X129415174Y-53693472D01*
X129405276Y-53611680D01*
X129345345Y-53453077D01*
X129338152Y-53442611D01*
X135794394Y-53442611D01*
X135812999Y-53611135D01*
X135835667Y-53673077D01*
X135868126Y-53761775D01*
X135871266Y-53770356D01*
X135875502Y-53776659D01*
X135875502Y-53776660D01*
X135880525Y-53784135D01*
X135965830Y-53911083D01*
X135971442Y-53916190D01*
X135971445Y-53916193D01*
X136085612Y-54020077D01*
X136085616Y-54020080D01*
X136091233Y-54025191D01*
X136097906Y-54028814D01*
X136097910Y-54028817D01*
X136233558Y-54102467D01*
X136233560Y-54102468D01*
X136240235Y-54106092D01*
X136247584Y-54108020D01*
X136396883Y-54147188D01*
X136396885Y-54147188D01*
X136404233Y-54149116D01*
X136490609Y-54150473D01*
X136566161Y-54151660D01*
X136566164Y-54151660D01*
X136573760Y-54151779D01*
X136581165Y-54150083D01*
X136581166Y-54150083D01*
X136641586Y-54136245D01*
X136739029Y-54113928D01*
X136890498Y-54037747D01*
X137019423Y-53927634D01*
X137023854Y-53921467D01*
X137028684Y-53916215D01*
X137089516Y-53879609D01*
X137121433Y-53875500D01*
X140931562Y-53875500D01*
X140999683Y-53895502D01*
X141020657Y-53912405D01*
X141689586Y-54581334D01*
X141723612Y-54643646D01*
X141718547Y-54714461D01*
X141708214Y-54735786D01*
X141684800Y-54774372D01*
X141682991Y-54778686D01*
X141682990Y-54778688D01*
X141655727Y-54843704D01*
X141579932Y-55024454D01*
X141578781Y-55028986D01*
X141578780Y-55028989D01*
X141567189Y-55074629D01*
X141513180Y-55287291D01*
X141486011Y-55557106D01*
X141486235Y-55561772D01*
X141486235Y-55561777D01*
X141490969Y-55660330D01*
X141499022Y-55827974D01*
X141551926Y-56093944D01*
X141643563Y-56349172D01*
X141771918Y-56588052D01*
X141934171Y-56805336D01*
X141937480Y-56808616D01*
X141937485Y-56808622D01*
X142042772Y-56912994D01*
X142126759Y-56996251D01*
X142130521Y-56999009D01*
X142130524Y-56999012D01*
X142341680Y-57153837D01*
X142345451Y-57156602D01*
X142349586Y-57158778D01*
X142349590Y-57158780D01*
X142367221Y-57168056D01*
X142585442Y-57282868D01*
X142589861Y-57284411D01*
X142837044Y-57370731D01*
X142837050Y-57370733D01*
X142841461Y-57372273D01*
X142846054Y-57373145D01*
X143103293Y-57421984D01*
X143103296Y-57421984D01*
X143107882Y-57422855D01*
X143236574Y-57427911D01*
X143374185Y-57433318D01*
X143374190Y-57433318D01*
X143378853Y-57433501D01*
X143484016Y-57421984D01*
X143643768Y-57404489D01*
X143643774Y-57404488D01*
X143648421Y-57403979D01*
X143739500Y-57380000D01*
X143906142Y-57336127D01*
X143906144Y-57336126D01*
X143910665Y-57334936D01*
X144028265Y-57284411D01*
X144155529Y-57229734D01*
X144155531Y-57229733D01*
X144159823Y-57227889D01*
X144279489Y-57153837D01*
X144386448Y-57087649D01*
X144386452Y-57087646D01*
X144390421Y-57085190D01*
X144597395Y-56909974D01*
X144776196Y-56706090D01*
X144779046Y-56701660D01*
X144920370Y-56481947D01*
X144922898Y-56478017D01*
X145034277Y-56230766D01*
X145107886Y-55969767D01*
X145126836Y-55820807D01*
X145141711Y-55703886D01*
X145141711Y-55703880D01*
X145142109Y-55700755D01*
X145142646Y-55680269D01*
X145143513Y-55647141D01*
X145144616Y-55605000D01*
X145140711Y-55552452D01*
X145124865Y-55339218D01*
X145124864Y-55339214D01*
X145124519Y-55334566D01*
X145064670Y-55070072D01*
X145045252Y-55020139D01*
X144968077Y-54821683D01*
X144968076Y-54821681D01*
X144966384Y-54817330D01*
X144941832Y-54774372D01*
X144851279Y-54615939D01*
X144831820Y-54581892D01*
X144663934Y-54368929D01*
X144473395Y-54189687D01*
X144469821Y-54186325D01*
X144466415Y-54183121D01*
X144454864Y-54175108D01*
X144247438Y-54031212D01*
X144247433Y-54031209D01*
X144243600Y-54028550D01*
X144236789Y-54025191D01*
X144004574Y-53910675D01*
X144004571Y-53910674D01*
X144000386Y-53908610D01*
X143949319Y-53892263D01*
X143946154Y-53891250D01*
X143742115Y-53825936D01*
X143737508Y-53825186D01*
X143737505Y-53825185D01*
X143479073Y-53783097D01*
X143479074Y-53783097D01*
X143474462Y-53782346D01*
X143343008Y-53780625D01*
X143207982Y-53778858D01*
X143207979Y-53778858D01*
X143203305Y-53778797D01*
X142934601Y-53815365D01*
X142930111Y-53816674D01*
X142930105Y-53816675D01*
X142678748Y-53889940D01*
X142678743Y-53889942D01*
X142674255Y-53891250D01*
X142670008Y-53893208D01*
X142670005Y-53893209D01*
X142431448Y-54003185D01*
X142361210Y-54013540D01*
X142296525Y-53984277D01*
X142289602Y-53977854D01*
X141413220Y-53101472D01*
X141391837Y-53090577D01*
X141374991Y-53080253D01*
X141363604Y-53071980D01*
X141355581Y-53066151D01*
X141346150Y-53063087D01*
X141346147Y-53063085D01*
X141332763Y-53058736D01*
X141314502Y-53051172D01*
X141301964Y-53044784D01*
X141301963Y-53044784D01*
X141293126Y-53040281D01*
X141269429Y-53036528D01*
X141250210Y-53031914D01*
X141227393Y-53024500D01*
X137121266Y-53024500D01*
X137053145Y-53004498D01*
X137030445Y-52984998D01*
X137029312Y-52983349D01*
X137023119Y-52977831D01*
X136908392Y-52875612D01*
X136908388Y-52875610D01*
X136902721Y-52870560D01*
X136752881Y-52791224D01*
X136588441Y-52749919D01*
X136580843Y-52749879D01*
X136580841Y-52749879D01*
X136503668Y-52749475D01*
X136418895Y-52749031D01*
X136411508Y-52750805D01*
X136411504Y-52750805D01*
X136268162Y-52785220D01*
X136254032Y-52788612D01*
X136247288Y-52792093D01*
X136247285Y-52792094D01*
X136124218Y-52855614D01*
X136103369Y-52866375D01*
X136097647Y-52871367D01*
X136097645Y-52871368D01*
X136082008Y-52885009D01*
X135975604Y-52977831D01*
X135971237Y-52984045D01*
X135891871Y-53096972D01*
X135878113Y-53116547D01*
X135816524Y-53274513D01*
X135815532Y-53282046D01*
X135815532Y-53282047D01*
X135795548Y-53433848D01*
X135794394Y-53442611D01*
X129338152Y-53442611D01*
X129336584Y-53440330D01*
X129251269Y-53316196D01*
X129229169Y-53248727D01*
X129247054Y-53180020D01*
X129266014Y-53155734D01*
X130248079Y-52173669D01*
X141283001Y-52173669D01*
X141283371Y-52180490D01*
X141288895Y-52231352D01*
X141292521Y-52246604D01*
X141337676Y-52367054D01*
X141346214Y-52382649D01*
X141422715Y-52484724D01*
X141435276Y-52497285D01*
X141537351Y-52573786D01*
X141552946Y-52582324D01*
X141673394Y-52627478D01*
X141688649Y-52631105D01*
X141739514Y-52636631D01*
X141746328Y-52637000D01*
X143042885Y-52637000D01*
X143058124Y-52632525D01*
X143059329Y-52631135D01*
X143061000Y-52623452D01*
X143061000Y-52618884D01*
X143569000Y-52618884D01*
X143573475Y-52634123D01*
X143574865Y-52635328D01*
X143582548Y-52636999D01*
X144883669Y-52636999D01*
X144890490Y-52636629D01*
X144941352Y-52631105D01*
X144956604Y-52627479D01*
X145077054Y-52582324D01*
X145092649Y-52573786D01*
X145194724Y-52497285D01*
X145207285Y-52484724D01*
X145283786Y-52382649D01*
X145292324Y-52367054D01*
X145337478Y-52246606D01*
X145341105Y-52231351D01*
X145346631Y-52180486D01*
X145347000Y-52173672D01*
X145347000Y-50877115D01*
X145342525Y-50861876D01*
X145341135Y-50860671D01*
X145333452Y-50859000D01*
X143587115Y-50859000D01*
X143571876Y-50863475D01*
X143570671Y-50864865D01*
X143569000Y-50872548D01*
X143569000Y-52618884D01*
X143061000Y-52618884D01*
X143061000Y-50877115D01*
X143056525Y-50861876D01*
X143055135Y-50860671D01*
X143047452Y-50859000D01*
X141301116Y-50859000D01*
X141285877Y-50863475D01*
X141284672Y-50864865D01*
X141283001Y-50872548D01*
X141283001Y-52173669D01*
X130248079Y-52173669D01*
X131714930Y-50706818D01*
X131777242Y-50672792D01*
X131806002Y-50669929D01*
X131850647Y-50670631D01*
X131916162Y-50671660D01*
X131916165Y-50671660D01*
X131923760Y-50671779D01*
X131931165Y-50670083D01*
X131931166Y-50670083D01*
X131991586Y-50656245D01*
X132089029Y-50633928D01*
X132240498Y-50557747D01*
X132334648Y-50477335D01*
X132363651Y-50452564D01*
X132363652Y-50452563D01*
X132369423Y-50447634D01*
X132451878Y-50332885D01*
X141283000Y-50332885D01*
X141287475Y-50348124D01*
X141288865Y-50349329D01*
X141296548Y-50351000D01*
X143042885Y-50351000D01*
X143058124Y-50346525D01*
X143059329Y-50345135D01*
X143061000Y-50337452D01*
X143061000Y-50332885D01*
X143569000Y-50332885D01*
X143573475Y-50348124D01*
X143574865Y-50349329D01*
X143582548Y-50351000D01*
X145328884Y-50351000D01*
X145344123Y-50346525D01*
X145345328Y-50345135D01*
X145346999Y-50337452D01*
X145346999Y-49036331D01*
X145346629Y-49029510D01*
X145341105Y-48978648D01*
X145337479Y-48963396D01*
X145292324Y-48842946D01*
X145283786Y-48827351D01*
X145207285Y-48725276D01*
X145194724Y-48712715D01*
X145092649Y-48636214D01*
X145077054Y-48627676D01*
X144956606Y-48582522D01*
X144941351Y-48578895D01*
X144890486Y-48573369D01*
X144883672Y-48573000D01*
X143587115Y-48573000D01*
X143571876Y-48577475D01*
X143570671Y-48578865D01*
X143569000Y-48586548D01*
X143569000Y-50332885D01*
X143061000Y-50332885D01*
X143061000Y-48591116D01*
X143056525Y-48575877D01*
X143055135Y-48574672D01*
X143047452Y-48573001D01*
X141746331Y-48573001D01*
X141739510Y-48573371D01*
X141688648Y-48578895D01*
X141673396Y-48582521D01*
X141552946Y-48627676D01*
X141537351Y-48636214D01*
X141435276Y-48712715D01*
X141422715Y-48725276D01*
X141346214Y-48827351D01*
X141337676Y-48842946D01*
X141292522Y-48963394D01*
X141288895Y-48978649D01*
X141283369Y-49029514D01*
X141283000Y-49036328D01*
X141283000Y-50332885D01*
X132451878Y-50332885D01*
X132468361Y-50309947D01*
X132471194Y-50302900D01*
X132528766Y-50159687D01*
X132528767Y-50159685D01*
X132531601Y-50152634D01*
X132542996Y-50072565D01*
X132554909Y-49988862D01*
X132554909Y-49988859D01*
X132555490Y-49984778D01*
X132555645Y-49970000D01*
X132553840Y-49955080D01*
X132551004Y-49931653D01*
X132535276Y-49801680D01*
X132475345Y-49643077D01*
X132470857Y-49636547D01*
X132383614Y-49509608D01*
X132383613Y-49509607D01*
X132379312Y-49503349D01*
X132367514Y-49492837D01*
X132258392Y-49395612D01*
X132258388Y-49395610D01*
X132252721Y-49390560D01*
X132102881Y-49311224D01*
X131938441Y-49269919D01*
X131930843Y-49269879D01*
X131930841Y-49269879D01*
X131853668Y-49269475D01*
X131768895Y-49269031D01*
X131761508Y-49270805D01*
X131761504Y-49270805D01*
X131625258Y-49303516D01*
X131604032Y-49308612D01*
X131597288Y-49312093D01*
X131597285Y-49312094D01*
X131592089Y-49314776D01*
X131453369Y-49386375D01*
X131447647Y-49391367D01*
X131447645Y-49391368D01*
X131377679Y-49452403D01*
X131325604Y-49497831D01*
X131228113Y-49636547D01*
X131166524Y-49794513D01*
X131165532Y-49802046D01*
X131165532Y-49802047D01*
X131157235Y-49865074D01*
X131144394Y-49962611D01*
X131145228Y-49970163D01*
X131148815Y-50002661D01*
X131136409Y-50072565D01*
X131112671Y-50105581D01*
X128371472Y-52846780D01*
X128360577Y-52868163D01*
X128350253Y-52885009D01*
X128336151Y-52904419D01*
X128333087Y-52913850D01*
X128333085Y-52913853D01*
X128328736Y-52927237D01*
X128321172Y-52945498D01*
X128310281Y-52966874D01*
X128306528Y-52990570D01*
X128301914Y-53009790D01*
X128294500Y-53032607D01*
X128294500Y-53164270D01*
X128274498Y-53232391D01*
X128251329Y-53259219D01*
X128195604Y-53307831D01*
X128191237Y-53314045D01*
X128105436Y-53436128D01*
X128098113Y-53446547D01*
X128036524Y-53604513D01*
X128035532Y-53612046D01*
X128035532Y-53612047D01*
X128015432Y-53764728D01*
X128014394Y-53772611D01*
X102912956Y-53772611D01*
X102875345Y-53673077D01*
X102779312Y-53533349D01*
X102773119Y-53527831D01*
X102658392Y-53425612D01*
X102658388Y-53425610D01*
X102652721Y-53420560D01*
X102502881Y-53341224D01*
X102338441Y-53299919D01*
X102330843Y-53299879D01*
X102330841Y-53299879D01*
X102253668Y-53299475D01*
X102168895Y-53299031D01*
X102161508Y-53300805D01*
X102161504Y-53300805D01*
X102018162Y-53335220D01*
X102004032Y-53338612D01*
X101997288Y-53342093D01*
X101997285Y-53342094D01*
X101901916Y-53391318D01*
X101853369Y-53416375D01*
X101847647Y-53421367D01*
X101847645Y-53421368D01*
X101780158Y-53480241D01*
X101725604Y-53527831D01*
X101628113Y-53666547D01*
X101566524Y-53824513D01*
X101565532Y-53832046D01*
X101565532Y-53832047D01*
X101546337Y-53977854D01*
X101544394Y-53992611D01*
X101562999Y-54161135D01*
X101621266Y-54320356D01*
X101625502Y-54326659D01*
X101625502Y-54326660D01*
X101711596Y-54454783D01*
X101711599Y-54454786D01*
X101715830Y-54461083D01*
X101771496Y-54511735D01*
X101783300Y-54522476D01*
X101820222Y-54583117D01*
X101824500Y-54615670D01*
X101824500Y-55384270D01*
X101804498Y-55452391D01*
X101781329Y-55479219D01*
X101725604Y-55527831D01*
X101628113Y-55666547D01*
X101566524Y-55824513D01*
X101565532Y-55832046D01*
X101565532Y-55832047D01*
X101552219Y-55933174D01*
X101544394Y-55992611D01*
X88238404Y-55992611D01*
X88243667Y-55989778D01*
X88415886Y-55931318D01*
X88606627Y-55824498D01*
X88774707Y-55684707D01*
X88914498Y-55516627D01*
X89021318Y-55325886D01*
X89091589Y-55118873D01*
X89092417Y-55113164D01*
X89092418Y-55113159D01*
X89122426Y-54906194D01*
X89122959Y-54902520D01*
X89124596Y-54840000D01*
X89104592Y-54622302D01*
X89102798Y-54615939D01*
X89046819Y-54417454D01*
X89046818Y-54417452D01*
X89045251Y-54411895D01*
X89025872Y-54372597D01*
X88951116Y-54221005D01*
X88951113Y-54221001D01*
X88948561Y-54215825D01*
X88900736Y-54151779D01*
X88821211Y-54045283D01*
X88821210Y-54045282D01*
X88817758Y-54040659D01*
X88717808Y-53948266D01*
X88661464Y-53896182D01*
X88661461Y-53896180D01*
X88657224Y-53892263D01*
X88472335Y-53775607D01*
X88269284Y-53694598D01*
X88260562Y-53692863D01*
X88259582Y-53692668D01*
X88196674Y-53659757D01*
X88161546Y-53598060D01*
X88165349Y-53527165D01*
X88206878Y-53469581D01*
X88243667Y-53449778D01*
X88415886Y-53391318D01*
X88606627Y-53284498D01*
X88774707Y-53144707D01*
X88844603Y-53060667D01*
X88910807Y-52981065D01*
X88914498Y-52976627D01*
X89021318Y-52785886D01*
X89071984Y-52636629D01*
X89089733Y-52584342D01*
X89089734Y-52584337D01*
X89091589Y-52578873D01*
X89092417Y-52573164D01*
X89092418Y-52573159D01*
X89120040Y-52382649D01*
X89122959Y-52362520D01*
X89124596Y-52300000D01*
X89112127Y-52164300D01*
X89105121Y-52088056D01*
X89105120Y-52088053D01*
X89104592Y-52082302D01*
X89045251Y-51871895D01*
X89042697Y-51866715D01*
X88951116Y-51681005D01*
X88951113Y-51681001D01*
X88948561Y-51675825D01*
X88874524Y-51576677D01*
X88867806Y-51567681D01*
X91168860Y-51567681D01*
X91168878Y-51567933D01*
X91174793Y-51576677D01*
X91206111Y-51605174D01*
X91211748Y-51609738D01*
X91487544Y-51807918D01*
X91493682Y-51811813D01*
X91790435Y-51976984D01*
X91796955Y-51980136D01*
X92110738Y-52110109D01*
X92117589Y-52112495D01*
X92444212Y-52205536D01*
X92451301Y-52207120D01*
X92786465Y-52262006D01*
X92793671Y-52262763D01*
X93132926Y-52278762D01*
X93140176Y-52278686D01*
X93479010Y-52255587D01*
X93486219Y-52254676D01*
X93820160Y-52192784D01*
X93827190Y-52191057D01*
X94151819Y-52091187D01*
X94158597Y-52088667D01*
X94469603Y-51952145D01*
X94476043Y-51948864D01*
X94769293Y-51777502D01*
X94775326Y-51773493D01*
X95033828Y-51579405D01*
X95042282Y-51568078D01*
X95035537Y-51555748D01*
X93117810Y-49638020D01*
X93103869Y-49630408D01*
X93102034Y-49630539D01*
X93095420Y-49634790D01*
X91176474Y-51553737D01*
X91168860Y-51567681D01*
X88867806Y-51567681D01*
X88821211Y-51505283D01*
X88821210Y-51505282D01*
X88817758Y-51500659D01*
X88657224Y-51352263D01*
X88497630Y-51251567D01*
X88450691Y-51198300D01*
X88440002Y-51128113D01*
X88468956Y-51063289D01*
X88509433Y-51031853D01*
X88643138Y-50966352D01*
X88651983Y-50961079D01*
X88707209Y-50921686D01*
X88715609Y-50910987D01*
X88708622Y-50897833D01*
X87659885Y-49849095D01*
X87625859Y-49786783D01*
X87627694Y-49761132D01*
X88294408Y-49761132D01*
X88294539Y-49762966D01*
X88298790Y-49769580D01*
X89068425Y-50539214D01*
X89080431Y-50545770D01*
X89092170Y-50536802D01*
X89128549Y-50486174D01*
X89133860Y-50477335D01*
X89231056Y-50280675D01*
X89234854Y-50271082D01*
X89298628Y-50061177D01*
X89300805Y-50051107D01*
X89329677Y-49831799D01*
X89330196Y-49825124D01*
X89331706Y-49763364D01*
X89331512Y-49756646D01*
X89313389Y-49536203D01*
X89311706Y-49526041D01*
X89258261Y-49313263D01*
X89254943Y-49303516D01*
X89199057Y-49174987D01*
X90093484Y-49174987D01*
X90102374Y-49514505D01*
X90102980Y-49521721D01*
X90150835Y-49857963D01*
X90152269Y-49865074D01*
X90238455Y-50193595D01*
X90240692Y-50200478D01*
X90364064Y-50516914D01*
X90367081Y-50523503D01*
X90526002Y-50823652D01*
X90529761Y-50829860D01*
X90722129Y-51109757D01*
X90726574Y-51115486D01*
X90793743Y-51192484D01*
X90806917Y-51200888D01*
X90816769Y-51195020D01*
X92732980Y-49278810D01*
X92739357Y-49267131D01*
X93469408Y-49267131D01*
X93469539Y-49268966D01*
X93473790Y-49275580D01*
X95391268Y-51193057D01*
X95404622Y-51200349D01*
X95414594Y-51193295D01*
X95521641Y-51065267D01*
X95525957Y-51059456D01*
X95712432Y-50775575D01*
X95716046Y-50769313D01*
X95868658Y-50465882D01*
X95871530Y-50459244D01*
X95988249Y-50140293D01*
X95990345Y-50133351D01*
X96069631Y-49803103D01*
X96070915Y-49795964D01*
X96111816Y-49457973D01*
X96112240Y-49452403D01*
X96118010Y-49268797D01*
X96117937Y-49263204D01*
X96098338Y-48923303D01*
X96097506Y-48916113D01*
X96039113Y-48581529D01*
X96037458Y-48574474D01*
X95940998Y-48248834D01*
X95938540Y-48242006D01*
X95805290Y-47929608D01*
X95802073Y-47923125D01*
X95633788Y-47628089D01*
X95629856Y-47622034D01*
X95428774Y-47348295D01*
X95424166Y-47342726D01*
X95418830Y-47336984D01*
X95405178Y-47328866D01*
X95404570Y-47328887D01*
X95396092Y-47334119D01*
X93477020Y-49253190D01*
X93469408Y-49267131D01*
X92739357Y-49267131D01*
X92740592Y-49264869D01*
X92740461Y-49263034D01*
X92736210Y-49256420D01*
X90817374Y-47337585D01*
X90804581Y-47330599D01*
X90793827Y-47338464D01*
X90633037Y-47543527D01*
X90628902Y-47549476D01*
X90451440Y-47839068D01*
X90448019Y-47845447D01*
X90305016Y-48153522D01*
X90302356Y-48160241D01*
X90195711Y-48482707D01*
X90193834Y-48489711D01*
X90124961Y-48822288D01*
X90123904Y-48829449D01*
X90093712Y-49167735D01*
X90093484Y-49174987D01*
X89199057Y-49174987D01*
X89167462Y-49102323D01*
X89162595Y-49093246D01*
X89091268Y-48982993D01*
X89080582Y-48973791D01*
X89071017Y-48978194D01*
X88302021Y-49747189D01*
X88294408Y-49761132D01*
X87627694Y-49761132D01*
X87630924Y-49715967D01*
X87659885Y-49670905D01*
X87930000Y-49400790D01*
X88711158Y-48619631D01*
X88718772Y-48605687D01*
X88718748Y-48605344D01*
X88696359Y-48542865D01*
X88712346Y-48473691D01*
X88763192Y-48424142D01*
X88822144Y-48409500D01*
X88863646Y-48409500D01*
X88867350Y-48409059D01*
X88867353Y-48409059D01*
X88874746Y-48408179D01*
X88889846Y-48406382D01*
X88930051Y-48388524D01*
X88981518Y-48365663D01*
X88992153Y-48360939D01*
X89071241Y-48281713D01*
X89116506Y-48179327D01*
X89119500Y-48153646D01*
X89119500Y-46366000D01*
X89139502Y-46297879D01*
X89193158Y-46251386D01*
X89245500Y-46240000D01*
X91905020Y-46240000D01*
X91973141Y-46260002D01*
G37*
G04 #@! TD.AperFunction*
M02*
