G04 #@! TF.GenerationSoftware,KiCad,Pcbnew,(6.0.2)*
G04 #@! TF.CreationDate,2022-11-08T17:00:34+01:00*
G04 #@! TF.ProjectId,PANEL_LED_HARDWARE,50414e45-4c5f-44c4-9544-5f4841524457,rev?*
G04 #@! TF.SameCoordinates,Original*
G04 #@! TF.FileFunction,Soldermask,Top*
G04 #@! TF.FilePolarity,Negative*
%FSLAX46Y46*%
G04 Gerber Fmt 4.6, Leading zero omitted, Abs format (unit mm)*
G04 Created by KiCad (PCBNEW (6.0.2)) date 2022-11-08 17:00:34*
%MOMM*%
%LPD*%
G01*
G04 APERTURE LIST*
G04 Aperture macros list*
%AMRoundRect*
0 Rectangle with rounded corners*
0 $1 Rounding radius*
0 $2 $3 $4 $5 $6 $7 $8 $9 X,Y pos of 4 corners*
0 Add a 4 corners polygon primitive as box body*
4,1,4,$2,$3,$4,$5,$6,$7,$8,$9,$2,$3,0*
0 Add four circle primitives for the rounded corners*
1,1,$1+$1,$2,$3*
1,1,$1+$1,$4,$5*
1,1,$1+$1,$6,$7*
1,1,$1+$1,$8,$9*
0 Add four rect primitives between the rounded corners*
20,1,$1+$1,$2,$3,$4,$5,0*
20,1,$1+$1,$4,$5,$6,$7,0*
20,1,$1+$1,$6,$7,$8,$9,0*
20,1,$1+$1,$8,$9,$2,$3,0*%
G04 Aperture macros list end*
%ADD10RoundRect,0.225000X-0.225000X-0.250000X0.225000X-0.250000X0.225000X0.250000X-0.225000X0.250000X0*%
%ADD11RoundRect,0.100000X-0.100000X0.130000X-0.100000X-0.130000X0.100000X-0.130000X0.100000X0.130000X0*%
%ADD12C,1.700000*%
%ADD13RoundRect,0.150000X-0.400000X-0.150000X0.400000X-0.150000X0.400000X0.150000X-0.400000X0.150000X0*%
%ADD14RoundRect,0.225000X0.225000X0.250000X-0.225000X0.250000X-0.225000X-0.250000X0.225000X-0.250000X0*%
%ADD15C,1.500000*%
%ADD16C,5.000000*%
%ADD17C,3.048000*%
%ADD18R,3.048000X3.048000*%
%ADD19RoundRect,0.050800X-0.889000X0.889000X-0.889000X-0.889000X0.889000X-0.889000X0.889000X0.889000X0*%
%ADD20C,1.879600*%
%ADD21RoundRect,0.225000X-0.250000X0.225000X-0.250000X-0.225000X0.250000X-0.225000X0.250000X0.225000X0*%
%ADD22R,2.350000X5.100000*%
%ADD23RoundRect,0.127500X-0.630000X0.127500X-0.630000X-0.127500X0.630000X-0.127500X0.630000X0.127500X0*%
G04 APERTURE END LIST*
D10*
X122000000Y-49900000D03*
X123550000Y-49900000D03*
X122475000Y-72850000D03*
X124025000Y-72850000D03*
D11*
X137085000Y-77340000D03*
X137085000Y-77980000D03*
X137370000Y-54490000D03*
X137370000Y-55130000D03*
D12*
X117746000Y-80222000D03*
X115206000Y-80222000D03*
X117746000Y-77682000D03*
X115206000Y-77682000D03*
X117746000Y-75142000D03*
X115206000Y-75142000D03*
X117746000Y-72602000D03*
X115206000Y-72602000D03*
X117746000Y-70062000D03*
X115206000Y-70062000D03*
X117746000Y-67522000D03*
X115206000Y-67522000D03*
X117746000Y-64982000D03*
X115206000Y-64982000D03*
X117746000Y-62442000D03*
X115206000Y-62442000D03*
D13*
X129490000Y-75800000D03*
X129490000Y-76750000D03*
X129490000Y-77700000D03*
X132190000Y-77700000D03*
X132190000Y-76750000D03*
X132190000Y-75800000D03*
D14*
X134590000Y-73475000D03*
X133040000Y-73475000D03*
D15*
X132334000Y-89368000D03*
X132334000Y-84368000D03*
D10*
X129475000Y-80550000D03*
X131025000Y-80550000D03*
D11*
X137055000Y-75040000D03*
X137055000Y-75680000D03*
D16*
X144796000Y-92670000D03*
D17*
X143315000Y-68035000D03*
D18*
X143315000Y-63035000D03*
D16*
X93105000Y-49266000D03*
D15*
X132840000Y-68240000D03*
X132840000Y-63240000D03*
D19*
X87930000Y-47220000D03*
D20*
X87930000Y-49760000D03*
X87930000Y-52300000D03*
X87930000Y-54840000D03*
X87930000Y-57380000D03*
X87930000Y-59920000D03*
X87930000Y-62460000D03*
X87930000Y-65000000D03*
X87930000Y-67540000D03*
X87930000Y-70080000D03*
X87930000Y-72620000D03*
X87930000Y-75160000D03*
X87930000Y-77700000D03*
X87930000Y-80240000D03*
X87930000Y-82780000D03*
X87930000Y-85320000D03*
X87930000Y-87860000D03*
X87930000Y-90400000D03*
X87930000Y-92940000D03*
X87930000Y-95480000D03*
D21*
X91990000Y-93445000D03*
X91990000Y-94995000D03*
D14*
X134935000Y-49940000D03*
X133385000Y-49940000D03*
D18*
X143315000Y-50605000D03*
D17*
X143315000Y-55605000D03*
D11*
X137350000Y-50375000D03*
X137350000Y-51015000D03*
D10*
X122480000Y-74825000D03*
X124030000Y-74825000D03*
D22*
X125605000Y-79855000D03*
X121455000Y-79855000D03*
X126105000Y-57300000D03*
X121955000Y-57300000D03*
D10*
X121995000Y-51570000D03*
X123545000Y-51570000D03*
D13*
X130510000Y-52745000D03*
X130510000Y-53695000D03*
X130510000Y-54645000D03*
X133210000Y-54645000D03*
X133210000Y-53695000D03*
X133210000Y-52745000D03*
D23*
X108135000Y-76370000D03*
X108135000Y-75100000D03*
X108135000Y-73830000D03*
X108135000Y-72560000D03*
X108135000Y-71290000D03*
X108135000Y-70020000D03*
X108135000Y-68750000D03*
X108135000Y-67480000D03*
X108135000Y-66210000D03*
X108135000Y-64940000D03*
X99020000Y-76370000D03*
X99020000Y-75100000D03*
X99020000Y-73830000D03*
X99020000Y-72560000D03*
X99020000Y-71290000D03*
X99020000Y-70020000D03*
X99020000Y-68750000D03*
X99020000Y-67480000D03*
X99020000Y-66210000D03*
X99020000Y-64940000D03*
D18*
X142655000Y-79445000D03*
D17*
X142655000Y-84445000D03*
D10*
X130500000Y-57500000D03*
X132050000Y-57500000D03*
M02*
