M48
INCH,TZ
T1C0.0157
T2C0.0354
T3C0.0394
T4C0.0402
T5C0.0512
T6C0.1299
%
G90
G05
T1
X38327Y-25551
X38340Y-30073
X39783Y-29567
X40256Y-21260
X40256Y-22047
X40295Y-29291
X40315Y-29902
X40667Y-28821
X40728Y-28031
X41191Y-30778
X41280Y-25906
X41575Y-23602
X41594Y-24591
X41594Y-30591
X41717Y-29140
X41913Y-30067
X43126Y-24591
X43150Y-23583
X43287Y-28031
X43287Y-29902
X44066Y-27046
X44272Y-28327
X49606Y-28346
X49606Y-28937
X49606Y-29528
X49803Y-19291
X49803Y-19882
X49803Y-20472
X50197Y-28346
X50197Y-28937
X50352Y-30262
X50394Y-19291
X50394Y-19882
X50677Y-21173
X50787Y-28346
X50984Y-19291
X51628Y-28935
X51909Y-19673
X52854Y-31187
X52854Y-31693
X53150Y-22146
X53150Y-22594
X53258Y-29974
X53740Y-21043
X55014Y-29663
X55909Y-35134
T2
X52100Y-33216
X52100Y-35184
X52299Y-24898
X52299Y-26866
T3
X34618Y-18591
X34618Y-19591
X34618Y-20591
X34618Y-21591
X34618Y-22591
X34618Y-23591
X34618Y-24591
X34618Y-25591
X34618Y-26591
X34618Y-27591
X34618Y-28591
X34618Y-29591
X34618Y-30591
X34618Y-31591
X34618Y-32591
X34618Y-33591
X34618Y-34591
X34618Y-35591
X34618Y-36591
X34618Y-37591
T4
X45357Y-24583
X45357Y-25583
X45357Y-26583
X45357Y-27583
X45357Y-28583
X45357Y-29583
X45357Y-30583
X45357Y-31583
X46357Y-24583
X46357Y-25583
X46357Y-26583
X46357Y-27583
X46357Y-28583
X46357Y-29583
X46357Y-30583
X46357Y-31583
T5
X56163Y-31278
X56163Y-33246
X56423Y-19923
X56423Y-21892
X56423Y-24817
X56423Y-26785
T6
X36656Y-19396
X57006Y-36484
T0
M30
